<svg width="197" height="204" viewBox="0 0 197 204" fill="none" xmlns="http://www.w3.org/2000/svg">
<g opacity="0.4" clip-path="url(#clip0_365_545)">
<mask id="mask0_365_545" style="mask-type:luminance" maskUnits="userSpaceOnUse" x="-128" y="0" width="325" height="204">
<path d="M-128 202.206L195.393 203.299L196.077 1.09364L-127.316 0.00016486L-128 202.206Z" fill="white"/>
</mask>
<g mask="url(#mask0_365_545)">
<path d="M5.95302 11.3486C3.87643 19.5406 7.73777 28.8731 17.4696 39.0865C28.5965 50.7803 47.3894 63.5796 73.344 77.1274C134.566 109.099 145.565 128.274 144.034 138.722C142.86 146.678 133.872 152.64 118.708 155.52C93.5244 160.306 55.1386 155.189 47.9075 142.62C45.0694 137.691 39.4204 135.95 31.5334 137.59C21.2817 139.728 8.44283 147.57 -2.03512 158.049C-13.8836 169.891 -21.1614 183.265 -22.5351 195.648C-22.7944 197.943 -22.8411 200.258 -22.6745 202.562L-22.374 202.563C-22.5442 200.263 -22.4998 197.953 -22.2415 195.662C-19.1771 168.028 12.0405 141.959 31.5939 137.877C39.31 136.264 44.8569 137.922 47.6202 142.755C50.9472 148.54 61.319 153.303 76.0761 155.833C90.1302 158.231 106.077 158.224 118.741 155.814C134.029 152.9 143.098 146.843 144.294 138.757C145.852 128.206 134.833 108.895 73.4406 76.8476C12.2731 44.9038 3.13866 23.6307 6.24648 11.4111C7.29844 7.31512 9.89248 3.63434 13.5979 0.503922L13.0447 0.502052C9.69512 3.4287 7.05359 7.01366 5.95302 11.3486Z" fill="#B2C7F6"/>
<path d="M31.13 137.746C38.2443 136.363 43.313 138.067 45.8858 142.668C52.7076 155.085 88.1715 159.837 113.026 155.487C129.837 152.544 139.85 146.094 141.232 137.319C142.921 126.598 132.319 107.151 72.2092 75.436C12.2563 43.8038 3.59393 22.3 6.86648 9.84174C7.86711 6.28985 9.75885 3.05287 12.362 0.438298L11.959 0.436935C9.43631 3.04401 7.60183 6.23823 6.62099 9.73158C3.30712 22.2922 11.9691 43.9121 72.0991 75.6679C132.032 107.3 142.614 126.617 140.939 137.25C139.584 145.922 129.646 152.284 112.972 155.193C99.5319 157.368 85.825 157.308 72.4045 155.015C58.7534 152.611 49.2073 148.056 46.1526 142.532C43.5461 137.788 38.3342 136.028 31.0695 137.438C20.9687 139.406 7.99258 147.425 -2.78744 158.368C-14.9381 170.701 -22.4702 184.559 -23.9956 197.378C-24.2009 199.096 -24.2934 200.826 -24.2727 202.556L-23.979 202.557C-23.9919 200.841 -23.8971 199.125 -23.6953 197.42C-20.3066 168.797 11.8851 141.487 31.13 137.746Z" fill="#ABC2F6"/>
<path d="M70.9155 74.2837C129.585 105.597 139.723 125.077 137.938 135.887C136.391 145.133 125.167 152.084 107.14 154.968C94.3893 156.932 81.4029 156.791 68.6976 154.551C55.8932 152.192 47.275 147.906 44.4385 142.492C42.0431 137.92 37.2274 136.147 30.5166 137.355C20.5597 139.166 7.50802 147.321 -3.55367 158.755C-15.9928 171.578 -23.7794 185.935 -25.4496 199.177C-25.5899 200.27 -25.6893 201.397 -25.741 202.551L-25.4405 202.552C-25.389 201.453 -25.2964 200.339 -25.1492 199.219C-21.4516 170.105 11.2442 141.143 30.5771 137.655C37.1716 136.489 41.851 138.192 44.1784 142.662C47.0625 148.138 55.7556 152.499 68.6487 154.879C81.3882 157.123 94.4094 157.262 107.194 155.29C115.606 153.951 122.819 151.639 128.047 148.623C133.973 145.179 137.402 140.927 138.252 135.936C140.078 125.01 129.907 105.414 71.0803 74.0178C12.2535 42.6217 4.09719 20.9078 7.55487 8.23156C8.35929 5.38671 9.73207 2.73463 11.5902 0.435668L11.2078 0.434375C9.41011 2.71374 8.08061 5.32615 7.29572 8.12136C3.78967 20.9614 11.9797 42.7985 70.9155 74.2837Z" fill="#C3D4F8"/>
<path d="M69.7797 72.8657C127.221 103.868 136.928 123.503 134.992 134.517C133.217 144.548 120.919 151.94 101.254 154.784C78.1651 158.123 48.4635 153.923 42.7654 142.466C40.5607 138.051 36.1068 136.294 29.8885 137.298C20.0893 138.918 6.96853 147.305 -4.33368 159.176C-16.8626 172.3 -25.0892 187.522 -26.9104 200.997C-26.9805 201.509 -27.0437 202.021 -27.0932 202.547L-26.7859 202.548C-26.7364 202.049 -26.6801 201.544 -26.6101 201.039C-24.7959 187.646 -16.6036 172.465 -4.1295 159.388C7.15209 147.559 20.2044 139.206 29.9353 137.592C36.0102 136.588 40.3549 138.31 42.4917 142.602C45.1374 147.906 53.1343 152.101 64.9896 154.409C76.9803 156.588 89.2439 156.816 101.307 155.085C121.123 152.214 133.496 144.74 135.3 134.566C137.27 123.456 127.529 103.691 69.9445 72.5998C12.3597 41.5085 4.60721 19.5432 8.28443 6.57385C8.90915 4.39287 9.86764 2.32179 11.1258 0.434213L10.7639 0.432989C9.55079 2.29454 8.6231 4.32727 8.01162 6.46361C4.28622 19.5421 11.9972 41.6713 69.7797 72.8657Z" fill="#5383EC"/>
<path d="M68.6781 71.4339C124.919 102.158 134.202 121.963 132.115 133.175C130.105 143.895 116.343 151.925 95.3397 154.648C73.3864 157.491 46.4087 153.642 41.1057 142.467C39.0713 138.197 34.9796 136.399 29.1851 137.268C19.5641 138.725 6.40162 147.317 -5.16162 159.631C-17.8217 173.144 -26.2476 188.762 -28.3226 202.543L-28.0153 202.544C-25.92 188.831 -17.549 173.288 -4.94379 159.843C6.57829 147.584 19.6724 139.012 29.2319 137.569C34.8624 136.72 38.8724 138.456 40.8253 142.596C46.1962 153.894 73.2967 157.792 95.3797 154.949C105.075 153.69 113.552 151.225 119.888 147.817C127.113 143.933 131.33 139.021 132.415 133.231C134.502 121.923 125.227 101.975 68.8225 71.1679C12.4182 40.3608 5.11749 18.0895 8.9936 4.87486C9.44516 3.34552 10.0568 1.86811 10.8184 0.467218L10.4769 0.466064C9.73922 1.84145 9.14393 3.28863 8.70023 4.78504C4.78961 18.1088 12.0216 40.4892 68.6781 71.4339Z" fill="#ABC2F6"/>
<path d="M28.4533 137.573C33.6804 136.86 37.3966 138.601 39.1998 142.611C41.4028 147.51 48.0485 151.414 57.9236 153.606C67.0684 155.646 78.5817 156.095 89.5065 154.847C99.7549 153.673 108.881 151.141 115.805 147.523C123.721 143.389 128.355 138.164 129.585 131.916C131.871 120.411 122.992 100.28 67.755 69.7364C12.3746 39.1104 5.62786 16.6087 9.72344 3.12149C9.99727 2.21728 10.3264 1.33076 10.709 0.466971L10.3812 0.465862C10.016 1.30249 9.69847 2.15913 9.43007 3.03167C5.28631 16.628 12.0395 39.2527 67.6107 70.0024C122.684 100.457 131.55 120.451 129.292 131.861C128.076 138.006 123.496 143.169 115.669 147.256C108.773 150.854 99.715 153.351 89.4733 154.546C68.6349 156.929 44.2388 153.068 39.4802 142.489C37.6092 138.342 33.7839 136.539 28.4133 137.279C18.9772 138.566 5.79373 147.322 -5.99657 160.134C-18.3351 173.504 -26.7533 188.828 -29.4427 202.539L-29.1354 202.54C-26.4461 188.884 -18.0283 173.649 -5.7719 160.34C5.79219 147.773 19.229 138.84 28.4533 137.573Z" fill="#A7C0F5"/>
<path d="M66.5775 68.5572C120.518 98.7615 128.953 118.96 126.523 130.58C123.434 145.376 102.381 152.615 83.7026 154.465C73.2771 155.496 62.9457 154.962 54.6135 152.96C45.6466 150.804 39.8673 147.198 37.8342 142.531C36.1199 138.501 32.5609 136.699 27.5595 137.31C10.0206 139.451 -23.0941 171.131 -30.508 202.535L-30.1939 202.536C-22.7804 171.269 10.1836 139.739 27.6063 137.611C32.5325 137.006 35.887 138.705 37.5674 142.653C42.0462 153.163 64.1555 156.702 83.7084 154.766C94.3594 153.716 104.312 151.057 111.735 147.284C120.225 142.96 125.429 137.204 126.817 130.643C129.26 118.92 120.819 98.5917 66.7219 68.2639C12.413 37.8533 6.15224 15.0525 10.4673 1.27915C10.5571 0.99932 10.6536 0.719527 10.7502 0.439721L10.4292 0.438636C10.3396 0.691135 10.2568 0.936809 10.1808 1.18935C5.83791 15.0993 12.0915 38.0161 66.5775 68.5572Z" fill="#A4BDF5"/>
<path d="M65.5784 67.1052C118.414 97.0804 126.41 117.489 123.809 129.321C120.299 145.311 96.9986 152.823 78.0889 154.392C56.9725 156.158 39.7714 151.304 36.2631 142.587C34.6782 138.66 31.372 136.852 26.7193 137.355C17.8375 138.316 4.29683 147.679 -7.71447 161.214C-19.3144 174.293 -27.7169 189.03 -31.4096 202.532L-31.0954 202.533C-27.4098 189.099 -19.0349 174.438 -7.48298 161.427C4.48032 147.946 17.9184 138.624 26.7455 137.67C31.3367 137.18 34.4453 138.871 35.9963 142.716C40.148 153.027 60.7492 156.164 78.1288 154.706C89.2234 153.746 99.7365 151.049 107.741 147.086C116.908 142.511 122.57 136.395 124.103 129.376C126.725 117.442 118.749 96.8971 65.7296 66.8325C13.726 37.3384 7.00053 14.6181 10.9414 0.433477L10.6272 0.432414C6.69965 14.7264 13.5067 37.5631 65.5784 67.1052Z" fill="#BED0F8"/>
<path d="M64.6136 65.6534C116.377 95.4131 123.929 116.039 121.143 128.102C117.435 144.208 94.1641 152.895 72.755 154.374C56.4489 155.48 38.368 152.31 34.7193 142.705C33.2638 138.874 30.183 137.06 25.8038 137.468C17.1001 138.286 3.59971 147.847 -8.58387 161.84C-19.828 174.722 -28.1749 189.165 -32.2632 202.529L-31.9491 202.53C-27.8609 189.228 -19.5622 174.866 -8.35913 162.025C3.78329 148.087 17.2016 138.567 25.8711 137.762C30.1547 137.36 33.0447 139.057 34.4662 142.8C38.1691 152.548 56.3933 155.78 72.8087 154.661C94.3339 153.189 117.728 144.427 121.477 128.179C124.25 116.019 116.726 95.2503 64.7989 65.3944C15.9663 37.3117 8.17397 15.0045 11.2691 0.475443L10.9618 0.474404C7.83899 15.1059 15.6992 37.5157 64.6136 65.6534Z" fill="#B5CAF7"/>
<path d="M63.683 64.1541C114.409 93.7054 121.51 114.596 118.531 126.891C114.375 144.088 89.2527 153.152 67.6672 154.295C49.5586 155.252 36.017 150.731 33.1755 142.775C31.8222 139.026 28.9531 137.22 24.8542 137.54C16.3559 138.195 2.88211 147.981 -9.47374 162.425C-20.3282 175.171 -28.6193 189.314 -33.0486 202.527L-32.714 202.528C-28.2917 189.377 -20.0623 175.309 -9.22862 162.651C3.05874 148.262 16.4504 138.537 24.8736 137.875C28.8836 137.561 31.5756 139.264 32.8814 142.904C35.7703 150.99 49.4277 155.593 67.6729 154.637C89.3609 153.487 114.62 144.349 118.818 127.001C121.81 114.604 114.71 93.5971 63.8271 63.9565C17.9268 37.1955 9.30656 15.3365 11.6173 0.504164L11.31 0.503125C9.0195 15.3971 17.7009 37.3519 63.683 64.1541Z" fill="#8DADF2"/>
<path d="M62.7864 62.7026C112.495 92.107 119.144 113.221 115.967 125.741C113.344 136.111 103.705 142.686 96.0916 146.37C86.6171 150.957 74.519 153.813 62.907 154.279C46.1996 154.906 34.2351 150.554 31.6589 142.913C30.4148 139.192 27.805 137.434 23.8907 137.688C15.5909 138.22 2.15063 148.191 -10.3433 163.084C-20.8897 175.634 -29.0502 189.483 -33.7658 202.524L-33.4448 202.525C-28.7363 189.56 -20.6034 175.772 -10.1324 163.304C2.29995 148.465 15.6786 138.541 23.8965 138.009C27.6468 137.769 30.1612 139.458 31.3921 143.035C33.9678 150.826 46.055 155.24 62.9059 154.6C74.5588 154.161 86.698 151.264 96.2136 146.664C107.227 141.338 114.163 134.132 116.261 125.838C119.466 113.195 112.81 91.9372 62.9443 62.4435C19.7922 36.9217 10.5148 15.5251 12.1092 0.471701L11.8087 0.470684C10.2276 15.6266 19.532 37.1258 62.7864 62.7026Z" fill="#BED0F8"/>
<path d="M61.924 61.2169C110.65 90.4676 116.841 111.854 113.451 124.646C110.566 135.535 100.414 142.428 92.4516 146.296C81.7871 151.279 70.2073 154.001 58.4403 154.291C43.0247 154.635 32.4529 150.452 30.1488 143.093C29.0002 139.44 26.5543 137.683 22.8725 137.862C14.7848 138.272 1.38479 148.448 -11.2609 163.785C-21.4241 176.117 -29.4675 189.687 -34.4146 202.522L-34.08 202.523C-29.1399 189.729 -21.1309 176.255 -11.0157 163.984C1.56844 148.667 14.8794 138.573 22.8851 138.169C26.4098 137.99 28.7603 139.679 29.8549 143.18C32.2062 150.704 42.8939 154.935 58.4461 154.592C70.2562 154.307 81.879 151.576 92.5805 146.57C100.625 142.675 110.832 135.699 113.744 124.723C117.162 111.834 110.965 90.3047 62.0546 60.9578C21.4733 36.5993 11.723 15.6931 12.635 0.473359L12.3618 0.472435C11.4495 15.781 21.2336 36.7967 61.924 61.2169Z" fill="#93B1F3"/>
<path d="M61.089 59.7178C108.866 88.8355 114.585 110.514 110.975 123.572C107.823 134.958 97.2532 142.158 88.9415 146.229C78.108 151.385 66.2902 154.142 54.2947 154.311C40.2867 154.421 30.7119 150.289 28.6593 143.293C27.6129 139.702 25.3309 137.945 21.8474 138.07C13.9582 138.358 0.639399 148.739 -12.1649 164.52C-21.9721 176.601 -29.8847 189.856 -35.0156 202.52L-34.6878 202.521C-29.5639 189.926 -21.6926 176.752 -11.9264 164.691C0.795697 148.972 14.0528 138.631 21.8601 138.35C25.166 138.232 27.3663 139.913 28.3723 143.36C30.4585 150.5 40.1491 154.714 54.2869 154.598C66.3251 154.438 78.1871 151.681 89.0634 146.517C97.4298 142.446 108.074 135.178 111.255 123.676C114.892 110.522 109.174 88.6998 61.2332 59.486C23.0659 36.2289 12.9724 15.8134 13.2701 0.502814L12.9627 0.501775C12.6785 15.8808 22.8127 36.392 61.089 59.7178Z" fill="#ACC3F6"/>
<path d="M60.2883 58.2119C107.144 87.2171 112.39 109.194 108.561 122.525C105.106 134.402 94.1534 141.929 85.5679 146.15C75.026 151.32 62.0394 154.337 50.7297 154.299L50.4497 154.298C37.5215 154.2 29.0456 150.242 27.1973 143.452C26.2395 139.909 24.1009 138.146 20.8019 138.224C13.1248 138.396 -0.17411 148.982 -13.0618 165.2C-22.1901 176.582 -29.7592 189.132 -35.5687 202.518L-35.2409 202.519C-29.4411 189.215 -21.9054 176.737 -12.8304 165.412C0.00931421 149.27 13.2125 138.724 20.8077 138.552C23.9427 138.48 25.9859 140.168 26.9033 143.553C28.7921 150.494 37.3702 154.52 50.4486 154.633C62.6551 154.532 74.6879 151.728 85.6831 146.423C94.337 142.175 105.379 134.595 108.834 122.588C112.711 109.155 107.465 87.0542 60.4531 57.9255C24.536 35.7351 14.2222 15.8381 13.9601 0.443619L13.6528 0.44258C13.9146 15.9259 24.2827 35.9187 60.2883 58.2119Z" fill="#8FAEF3"/>
<path d="M59.5217 56.6856C105.483 85.6059 110.25 107.91 106.154 121.533C103.26 131.157 94.7818 139.881 82.2762 146.104C71.3304 151.533 58.1045 154.645 46.8843 154.389C35.0904 154.116 27.3929 150.223 25.7486 143.699C24.8791 140.28 22.8909 138.483 19.8313 138.473L19.7357 138.473C12.257 138.536 -0.974366 149.335 -13.9728 165.976C-22.8009 177.209 -30.2231 189.481 -36.0741 202.516L-35.7463 202.517C-29.9094 189.549 -22.5154 177.341 -13.7276 166.161C-0.784003 149.588 12.3584 138.837 19.7483 138.78L19.8371 138.781C22.7328 138.79 24.6121 140.471 25.4546 143.774C27.1327 150.434 34.9392 154.417 46.8765 154.689C58.1377 154.946 71.425 151.841 82.4187 146.371C94.9996 140.114 103.532 131.322 106.447 121.616C110.591 107.897 105.811 85.4498 59.6864 56.4334C25.9515 35.2001 15.4652 15.8355 14.6907 0.480243L14.3834 0.479204C15.1508 15.9164 25.6641 35.3836 59.5217 56.6856Z" fill="#A0BBF5"/>
<path d="M58.7892 55.1527C103.883 84.0017 108.157 106.659 103.794 120.583C100.673 130.554 91.9143 139.605 79.121 146.073C67.8875 151.754 54.6002 154.873 43.5785 154.473C32.7959 154.061 25.7743 150.225 24.3272 143.947C23.526 140.529 21.6129 138.739 18.6762 138.722C11.4027 138.697 -1.75419 149.694 -14.8428 166.738C-23.391 177.813 -30.6686 189.814 -36.5386 202.515L-36.2244 202.516C-21.087 169.334 6.73712 138.982 18.6274 139.022C21.4207 139.032 23.2248 140.719 23.9854 144.021C25.4731 150.442 32.59 154.361 43.5228 154.774C54.5991 155.194 67.9412 152.048 79.2157 146.34C92.0774 139.838 100.898 130.699 104.046 120.672C108.431 106.646 104.171 83.8523 58.9061 54.9276C27.2032 34.6441 16.6535 15.8395 15.3804 0.509924L15.0731 0.508885C16.4076 15.866 26.9637 34.7936 58.7892 55.1527Z" fill="#5383EC"/>
<path d="M58.0774 53.6062C102.373 82.4183 106.106 105.436 101.475 119.673C98.1208 129.979 89.115 139.343 76.0614 146.056C64.5812 151.975 51.2868 155.162 40.5184 154.593C30.4875 154.06 24.244 150.377 22.9398 144.223C22.2138 140.804 20.4236 139.042 17.6236 138.985L17.5143 138.985C10.4184 138.961 -2.60933 150.136 -15.7264 167.521C-23.9908 178.423 -31.1093 190.15 -36.9688 202.513L-36.6341 202.515C-30.8092 190.218 -23.7346 178.553 -15.5221 167.706C-2.48729 150.396 10.4652 139.268 17.4723 139.292L17.5748 139.292C20.2177 139.342 21.9126 141.022 22.605 144.283C23.9496 150.587 30.2816 154.353 40.4628 154.893C51.3063 155.47 64.6623 152.242 76.1902 146.33C89.2918 139.576 98.3661 130.143 101.748 119.769C106.413 105.437 102.653 82.2621 58.2285 53.3471C28.469 33.972 17.9176 15.6867 16.2617 0.451504L15.9543 0.450464C17.6031 15.7677 28.1816 34.1487 58.0774 53.6062Z" fill="#6B94EF"/>
<path d="M57.4065 52.0462C100.869 80.835 104.115 104.247 99.183 118.825C91.0841 142.752 57.3142 156.078 37.5948 154.74C28.3632 154.114 22.6454 150.481 21.4977 144.519C20.8263 141.1 19.1589 139.366 16.4888 139.275L16.3044 139.274C9.38609 139.251 -3.53982 150.604 -16.658 168.31C-24.6255 179.03 -31.5589 190.482 -37.365 202.512L-37.0303 202.513C-31.2454 190.55 -24.347 179.158 -16.4264 168.489C-3.32896 150.857 9.47386 139.552 16.2898 139.575L16.4673 139.576C18.9804 139.652 20.5592 141.339 21.1902 144.566C22.3714 150.719 28.1847 154.401 37.5459 155.04C57.3474 156.378 91.2813 142.978 99.4217 118.914C104.389 104.241 101.149 80.6583 57.5302 51.8143C29.5914 33.2721 19.0926 15.5678 17.0605 0.508931L16.7463 0.507869C18.8261 15.6284 29.3244 33.4489 57.4065 52.0462Z" fill="#94B2F3"/>
<path d="M56.763 50.4656C99.4465 79.2654 102.159 103.1 96.9182 118.024C93.084 128.944 83.6049 138.914 70.2287 146.105C58.5561 152.385 45.022 155.763 34.9169 154.929C26.3959 154.217 21.1492 150.639 20.1376 144.835C19.5479 141.472 17.9626 139.703 15.4155 139.586L15.1697 139.585C8.42889 139.562 -4.34737 151.093 -17.5144 169.114C-25.2089 179.639 -31.9741 190.813 -37.7338 202.511L-37.3991 202.512C-31.6616 190.875 -24.9264 179.758 -17.2691 169.285C-4.15696 151.34 8.5167 139.856 15.1618 139.885L15.4009 139.886C17.784 139.997 19.2809 141.683 19.8369 144.889C20.8754 150.837 26.2242 154.51 34.8886 155.229C45.0551 156.07 58.6507 152.679 70.3712 146.372C83.8159 139.14 93.343 129.115 97.2047 118.128C102.48 103.114 99.7816 79.1231 56.9346 50.2202C30.6934 32.531 20.35 15.367 17.9827 0.457276L17.6958 0.456306C18.2403 3.85494 19.1448 7.18595 20.3941 10.393C25.8787 24.3977 38.106 37.8854 56.763 50.4656Z" fill="#A9C1F6"/>
<path d="M56.1469 48.8785C98.0927 77.7168 100.251 101.993 94.6806 117.293C90.5996 128.491 80.9488 138.741 67.4352 146.17C55.6321 152.662 42.1934 156.108 32.3756 155.153C24.49 154.381 19.6597 150.839 18.75 145.179C18.2218 141.829 16.7184 140.062 14.2944 139.917L14.0007 139.916C7.43071 139.893 -5.21636 151.589 -18.3981 169.917C-25.817 180.238 -32.3971 191.137 -38.0752 202.51L-37.7337 202.511C-32.0699 191.199 -25.513 180.357 -18.1254 170.089C-5.00546 151.836 7.54581 140.188 14.0134 140.21L14.3003 140.21C16.5741 140.348 17.9753 142.034 18.4767 145.219C19.3859 151.03 24.3114 154.661 32.3404 155.446C42.2265 156.416 55.7267 152.95 67.5845 146.431C81.1325 138.961 90.8654 128.663 94.9603 117.396C100.572 102.001 98.421 77.5676 56.3185 48.6331C31.7889 31.7491 21.5527 15.1525 18.9183 0.494697L18.6382 0.49375C19.132 3.17155 19.8449 5.80423 20.7698 8.36517C25.8643 22.6145 37.7769 36.2514 56.1469 48.8785Z" fill="#B2C7F6"/>
<path d="M55.565 47.2709C96.7934 76.1682 98.4103 100.935 92.4564 116.616C82.8088 142.102 48.4584 157.462 29.9707 155.404C24.7958 154.826 18.4106 152.632 17.4239 145.537C16.9639 142.208 15.5493 140.433 13.221 140.268C13.1095 140.261 12.9978 140.261 12.8863 140.267C6.49383 140.246 -6.03085 152.105 -19.2204 170.72C-26.3636 180.835 -32.7567 191.46 -38.3484 202.509L-38.0069 202.51C-32.4298 191.517 -26.0599 180.945 -18.9477 170.878C-5.5798 152.018 7.05432 140.111 13.2541 140.569C15.4185 140.727 16.7378 142.412 17.1778 145.584C17.9713 151.271 22.5214 154.867 29.997 155.712C48.5664 157.824 83.1221 142.343 92.7975 116.726C98.7654 100.936 97.1832 76.0261 55.798 47.0257C32.7478 30.9119 22.7419 14.8968 19.8199 0.46355L19.5603 0.462672C19.9556 2.40051 20.4622 4.31395 21.0776 6.19344C25.8569 20.7696 37.4615 34.5832 55.565 47.2709Z" fill="#759CF0"/>
<path d="M55.0104 45.677C95.5624 74.6609 96.556 99.9445 90.2865 116.048C85.7052 127.764 75.6907 138.546 62.0867 146.412C50.0911 153.299 36.9251 156.869 27.6954 155.704C22.8689 155.093 16.9413 152.935 16.1181 145.929C15.7127 142.607 14.3801 140.826 12.1475 140.64C6.06401 140.121 -6.56384 152.192 -20.022 171.497C-26.9232 181.401 -33.1464 191.762 -38.6489 202.508L-38.3074 202.509C-32.8367 191.824 -26.6527 181.521 -19.7972 171.668C-6.66853 152.862 5.62426 140.905 11.7231 140.926C11.8436 140.919 11.9645 140.92 12.085 140.927C14.1333 141.105 15.3911 142.797 15.7765 145.955C16.4403 151.621 20.5742 155.092 27.6466 155.991C36.931 157.163 50.1926 153.58 62.1953 146.631C75.8812 138.738 85.9165 127.894 90.5253 116.117C96.8702 99.9114 95.884 74.457 55.1752 45.3906C33.7001 30.0405 23.9245 14.607 20.776 0.466743L20.5575 0.466004C20.8221 1.64209 21.1255 2.81147 21.4676 3.97416C25.8633 18.877 37.1531 32.8808 55.0104 45.677Z" fill="#91B0F3"/>
<path d="M10.9977 141.333C12.9708 141.525 14.1398 143.223 14.4706 146.374C15.0528 151.951 18.8657 155.394 25.4873 156.332C34.4777 157.599 47.5482 153.954 59.6062 146.813C73.2929 138.715 83.4724 127.633 88.3484 115.618C92.7699 104.701 92.7056 93.4338 88.1542 82.138C82.885 69.0496 71.6189 56.1186 54.6685 43.7627C34.6115 29.128 25.0866 14.283 21.7525 0.504226L21.5271 0.503464C21.6214 0.9069 21.7225 1.30353 21.8304 1.70702C25.8767 16.923 36.8722 31.1376 54.4696 44.008C94.386 73.1401 94.77 98.9478 88.062 115.48C77.2631 142.09 42.684 158.44 25.5293 156.018C19.0579 155.108 15.3403 151.754 14.7713 146.327C14.4205 143.012 13.1631 141.225 11.0261 141.012L10.63 141.011C4.57902 140.991 -7.68027 153.138 -20.851 172.266C-27.4963 181.962 -33.5339 192.062 -38.9289 202.507L-38.5874 202.508C-33.2211 192.123 -27.2133 182.082 -20.5989 172.444C-7.19482 152.976 5.19447 140.76 10.9977 141.333Z" fill="#BFD1F8"/>
<path d="M53.9971 42.353C93.2711 71.6195 93.011 98.0399 85.8506 115.056C74.4073 142.402 40.1006 158.985 23.445 156.4C17.3835 155.457 13.9321 152.132 13.4584 146.801C13.1623 143.486 11.9731 141.692 9.91819 141.466C9.77955 141.456 9.6403 141.455 9.5016 141.465C3.62818 141.445 -8.49491 153.703 -21.6391 173.069C-28.0512 182.536 -33.9129 192.365 -39.1952 202.506L-38.8606 202.507C-33.6025 192.407 -27.7683 182.617 -21.3868 173.186C-8.29759 153.922 3.7161 141.698 9.45293 141.718C9.58717 141.711 9.72168 141.711 9.85587 141.719C11.747 141.924 12.8476 143.629 13.1307 146.779C13.6176 152.247 17.1574 155.675 23.3758 156.673C32.0585 158.021 44.9586 154.307 57.0241 146.976C70.6567 138.686 80.9941 127.379 86.1235 115.146C90.8166 104.264 91.047 91.9737 86.7651 80.9239C81.8109 67.5838 70.8321 54.5171 54.1483 42.0802C35.4481 28.147 26.2421 13.8975 22.7224 0.480192L22.5107 0.479477C26.4684 15.6473 37.0477 29.7239 53.9971 42.353Z" fill="#B8CCF7"/>
<path d="M53.5384 40.6774C92.2243 70.1333 91.2586 97.1935 83.6868 114.707C78.3178 127.09 67.8979 138.567 54.3809 146.98C42.397 154.455 29.7563 158.212 21.463 156.803C15.7704 155.834 12.558 152.523 12.1662 147.206C11.9247 143.892 10.8175 142.091 8.82411 141.845C8.67408 141.834 8.52345 141.834 8.37335 141.844C2.60237 141.824 -9.08991 153.926 -22.3791 173.743C-28.5741 183.021 -34.2718 192.622 -39.448 202.505L-39.1065 202.506C-33.9543 192.683 -28.2865 183.139 -22.127 173.915C-8.74857 153.968 3.39568 141.513 8.78883 142.18C10.6048 142.405 11.6371 144.11 11.8655 147.26C12.2636 152.727 15.5646 156.107 21.3937 157.097C29.7757 158.526 42.4711 154.749 54.5235 147.24C68.1021 138.78 78.5494 127.268 83.9459 114.824C88.9227 103.783 89.4664 91.2503 85.4643 79.8194C80.832 66.2071 70.1407 52.9569 53.6963 40.432C36.305 27.1933 27.377 13.5391 23.7808 0.511L23.5964 0.510377C27.6176 15.1045 37.673 28.5985 53.5384 40.6774Z" fill="#9DB8F4"/>
<path d="M53.1002 38.9815C91.2458 68.6678 89.588 96.4158 81.4953 114.46C75.8592 127.054 65.3501 138.682 51.9008 147.266C39.9573 154.898 27.5349 158.716 19.5493 157.241C14.1846 156.225 11.1633 152.963 10.8873 147.728C10.6936 144.407 9.63436 142.593 7.72976 142.334C7.57746 142.322 7.42455 142.322 7.27217 142.332C1.67194 142.313 -9.84305 154.497 -23.0918 174.465C-28.9542 183.327 -34.58 192.874 -39.6871 202.531L-39.3456 202.533C-34.266 192.909 -28.6678 183.438 -22.8601 174.63C-9.87217 155.03 1.83488 142.601 7.25072 142.619C7.39414 142.619 7.53755 142.62 7.67415 142.62C9.40807 142.858 10.3994 144.577 10.5663 147.727C10.8759 153.119 13.9514 156.511 19.4732 157.528C27.5613 159.017 40.0383 155.179 52.0434 147.512C65.5611 138.908 76.1319 127.205 81.7749 114.584C87.0806 102.748 87.8931 90.6913 84.2045 78.7356C79.9011 64.8169 69.4973 51.3559 53.2854 38.7429C37.0735 26.13 28.7106 13.0038 25.0786 0.481227L24.6552 0.479796C28.7464 14.5344 38.2915 27.4528 53.1002 38.9815Z" fill="#D7E2FB"/>
<path d="M52.6962 37.2652C90.3013 67.223 87.9171 95.7065 79.283 114.323C73.3801 127.059 62.8088 138.864 49.4478 147.606C37.579 155.368 25.4091 159.242 17.6967 157.747C12.6325 156.746 9.83661 153.464 9.61513 148.271C9.46931 144.943 8.47152 143.115 6.64208 142.849C-1.09191 141.668 -22.2613 169.2 -39.9329 202.503L-39.5777 202.505C-34.5739 193.079 -29.1335 183.812 -23.511 175.229C-10.5978 155.534 0.952291 143.062 6.17007 143.08C6.31106 143.07 6.45259 143.07 6.5935 143.081C8.26594 143.326 9.17528 145.051 9.308 148.215C9.54261 153.566 12.4201 156.944 17.6413 157.979C25.4287 159.523 37.6806 155.628 49.6178 147.839C62.9993 139.084 73.6391 127.217 79.5626 114.427C85.2041 102.25 86.3455 89.8867 82.9583 77.6724C78.9975 63.4269 68.8812 49.7482 52.8815 37.0062C37.8966 25.0806 29.839 12.5567 26.1303 0.498501L25.7205 0.497115C29.8684 13.9507 38.9102 26.2797 52.6962 37.2652Z" fill="#ACC3F6"/>
<path d="M52.3196 35.5284C89.4387 65.8057 86.2664 95.0859 77.0565 114.309C70.9762 127.003 60.0277 139.285 47.022 147.994C35.2415 155.88 23.3242 159.802 15.9125 158.226C11.1352 157.206 8.50321 153.938 8.35677 148.772C8.25879 145.43 7.31569 143.596 5.54782 143.296C0.530754 142.494 -10.937 154.856 -24.3865 175.629C-29.8584 184.09 -35.189 193.2 -40.1378 202.503L-39.7758 202.504C-22.5241 170.176 -2.50518 143.549 5.04831 143.575C5.19614 143.565 5.34447 143.565 5.49223 143.576C7.09632 143.835 7.95781 145.573 8.04271 148.743C8.19545 154.066 10.8886 157.43 15.8365 158.486C23.3438 160.076 35.3363 156.14 47.1783 148.213C60.232 139.471 71.2217 127.114 77.3431 114.405C83.3477 101.861 84.8249 89.1504 81.746 76.6775C78.1483 62.078 68.3129 48.1406 52.5186 35.2626C38.6925 23.9832 30.9606 12.089 27.2026 0.488387L26.8269 0.487117C30.9769 13.3462 39.5084 25.086 52.3196 35.5284Z" fill="#8FAEF3"/>
<path d="M51.9704 33.7713C90.5718 66.0146 82.8344 98.149 74.7887 114.431C68.4553 127.248 57.4518 139.653 44.6233 148.444C32.9859 156.426 21.3075 160.376 14.1965 158.767C9.6446 157.74 7.19698 154.473 7.12559 149.328C7.0823 145.973 6.19385 144.125 4.48737 143.853C-2.55667 142.627 -22.6372 169.288 -40.3699 202.502L-40.008 202.503C-35.1555 193.405 -29.9759 184.513 -24.703 176.304C-11.8433 156.274 -0.963441 144.081 3.9675 144.097C4.1152 144.084 4.26381 144.084 4.41142 144.099C5.95402 144.364 6.76082 146.116 6.80469 149.3C6.87555 154.602 9.4048 157.965 14.1068 159.033C21.2998 160.656 33.0533 156.685 44.7728 148.656C57.6629 139.817 68.7006 127.392 75.0616 114.528C81.4225 101.663 83.2972 88.5509 80.5471 75.758C77.3196 60.7566 67.772 46.5468 52.1626 33.5055C39.4339 22.8652 32.0483 11.5735 28.2748 0.492084L27.9265 0.490907C32.0649 12.7214 40.1135 23.8651 51.9704 33.7713Z" fill="#B7CBF7"/>
<path d="M51.6486 32.0007C89.784 64.6933 81.0871 97.8493 72.4794 114.703C65.8929 127.622 54.855 140.108 42.197 148.962C30.6824 157.005 19.3317 160.991 12.5076 159.349C8.18116 158.31 5.89061 155.043 5.8943 149.911C5.90569 146.543 5.05146 144.682 3.39972 144.376C3.24742 144.364 3.09452 144.364 2.94215 144.374C-1.92733 144.358 -12.6911 156.551 -25.4415 176.582C-30.5979 184.688 -35.709 193.492 -40.5544 202.535L-40.2266 202.537C-35.4155 193.554 -30.3456 184.805 -25.2166 176.747C-12.528 156.798 -1.88737 144.658 2.89332 144.674C3.03967 144.675 3.18573 144.687 3.33029 144.71C4.81823 144.982 5.57711 146.767 5.57317 149.951C5.55529 155.24 7.94114 158.603 12.4246 159.677C19.3169 161.34 30.7974 157.334 42.3805 149.235C55.0727 140.355 66.1449 127.828 72.7588 114.875C79.5721 101.527 81.803 88.1018 79.3887 74.9752C76.552 59.5447 67.2923 45.0148 51.8542 31.7964C40.1684 21.7814 33.1562 11.1537 29.3878 0.564251L29.0532 0.563119C32.8145 11.1935 39.8743 21.9034 51.6486 32.0007Z" fill="#B2C7F6"/>
<path d="M51.361 30.189C89.126 63.3792 79.3256 97.652 70.1217 115.133C63.2823 128.091 52.2305 140.653 39.791 149.534C28.4538 157.626 17.3626 161.62 10.839 159.965C6.74482 158.913 4.57721 155.646 4.64235 150.522C4.68805 147.106 3.90206 145.259 2.29815 144.946C-2.18594 144.063 -12.7234 155.991 -25.8932 176.84C-30.9331 184.824 -35.9618 193.525 -40.7593 202.501L-40.411 202.502C-23.2285 170.447 -4.78497 145.175 1.81236 145.204C1.95562 145.193 2.09944 145.194 2.24263 145.205C3.67589 145.49 4.38018 147.262 4.34196 150.487C4.26947 155.768 6.49137 159.137 10.7631 160.224C17.3685 161.907 28.5622 157.886 39.9679 149.747C52.4416 140.838 63.5276 128.263 70.3876 115.243C77.6463 101.459 80.2884 87.6251 78.2305 74.1308C75.8119 58.2234 66.8403 43.3461 51.5599 29.93C40.8692 20.5334 34.2236 10.5423 30.4876 0.479057L30.2145 0.478133C34.241 11.4442 41.3035 21.3479 51.361 30.189Z" fill="#A6BFF5"/>
</g>
</g>
<defs>
<clipPath id="clip0_365_545">
<rect width="323.395" height="202.207" fill="white" transform="translate(195.393 203.299) rotate(-179.806)"/>
</clipPath>
</defs>
</svg>
