<svg width="1162" height="1617" viewBox="0 0 1162 1617" fill="none" xmlns="http://www.w3.org/2000/svg">
<g opacity="0.4" clip-path="url(#clip0_211_648)">
<mask id="mask0_211_648" style="mask-type:luminance" maskUnits="userSpaceOnUse" x="0" y="0" width="2010" height="1617">
<path d="M1639.96 9.27237e-05L0 590.979L369.517 1616.38L2009.48 1025.4L1639.96 9.27237e-05Z" fill="white"/>
</mask>
<g mask="url(#mask0_211_648)">
<path d="M1313.55 1213.75C1308.96 1168.43 1272.19 1128.28 1204.06 1094.5C1126.13 1055.8 1007.34 1025.64 850.894 1004.89C481.84 955.892 390.761 879.062 379.242 823.317C370.515 780.856 405.038 734.083 476.534 691.524C595.255 620.83 799.113 575.944 858.922 626.266C882.388 645.996 914.211 644.393 951.132 621.536C999.111 591.798 1049.67 528.4 1083.41 455.995C1121.58 374.163 1133.77 293.002 1117.89 227.751C1114.97 215.647 1110.94 203.838 1105.84 192.475L1104.32 193.025C1109.42 204.356 1113.46 216.138 1116.38 228.219C1151.83 373.833 1041.8 563.455 950.295 620.194C914.191 642.6 883.037 644.431 860.127 625.049C832.606 601.887 771.288 596.894 691.879 611.299C616.273 625.078 535.517 654.532 475.824 690.097C403.767 733.053 369.003 780.461 377.864 823.618C389.431 879.933 480.864 957.418 850.921 1006.49C1219.65 1055.45 1305.15 1146.35 1311.95 1213.97C1314.18 1236.66 1307.83 1260.09 1294.84 1282.78L1297.64 1281.77C1309.21 1260.76 1315.97 1237.73 1313.55 1213.75Z" fill="#B2C7F6"/>
<path d="M952.888 620.003C919.406 640.133 890.59 640.848 869.073 622.295C811.618 571.986 623.232 613.332 505.373 681.21C425.657 727.122 386.837 778.262 396.024 825.256C407.245 882.673 496.815 961.613 859.762 1011.37C1221.76 1060.99 1305.3 1153.93 1311.71 1223.07C1313.19 1242.9 1309.58 1262.79 1301.22 1280.83L1303.26 1280.09C1311.23 1262.24 1314.63 1242.67 1313.15 1223.17C1306.77 1153.44 1223.02 1059.92 859.891 1009.99C497.995 960.327 408.766 882.008 397.638 825.066C388.5 778.642 427.101 728.09 506.187 682.6C570.247 646.792 639.782 621.813 711.985 608.673C785.559 595.666 842.311 601.13 867.972 623.474C889.924 642.693 919.568 641.993 953.761 621.45C1001.29 592.852 1052.22 528.304 1086.64 452.993C1125.43 368.118 1138.02 284.035 1122.1 216.292C1119.97 207.212 1117.24 198.28 1113.95 189.555L1112.46 190.092C1115.69 198.762 1118.38 207.627 1120.5 216.633C1156.13 367.858 1043.46 565.559 952.888 620.003Z" fill="#ABC2F6"/>
<path d="M868.44 1014.82C513.524 964.439 426.248 884.477 415.349 826.434C406.132 776.751 450.157 720.838 536.139 672.981C597.099 639.516 663.133 616.275 731.615 604.183C800.82 592.515 852.375 598.325 876.728 620.515C897.294 639.254 924.954 639.347 956.716 620.855C1003.81 593.316 1054.87 527.938 1089.8 449.62C1129.15 361.726 1142.11 274.652 1126.14 204.499C1124.84 198.706 1123.26 192.814 1121.39 186.871L1119.87 187.421C1121.64 193.086 1123.22 198.896 1124.54 204.84C1159.52 359.122 1047.34 566.118 955.855 619.443C924.607 637.515 897.764 637.519 877.732 619.174C853.024 596.76 800.95 590.706 731.258 602.432C662.594 614.564 596.388 637.881 535.275 671.452C495.138 693.745 462.87 718.762 441.954 743.681C418.292 772.055 408.766 799.916 413.668 826.766C424.572 885.473 512.234 965.961 868.095 1016.47C1223.96 1066.98 1305.32 1161.91 1311.19 1232.49C1312.36 1248.38 1310.3 1264.35 1305.13 1279.42L1307.07 1278.72C1311.97 1263.86 1313.89 1248.18 1312.71 1232.57C1306.78 1161.07 1225.02 1065.58 868.44 1014.82Z" fill="#C3D4F8"/>
<path d="M876.808 1019.91C528.689 968.84 443.307 887.294 432.795 827.938C423.285 773.858 471.937 713.733 566.293 663.054C677.076 603.558 835.257 570.044 885.25 617.561C904.56 635.853 930.359 636.538 960.003 619.984C1006.65 593.702 1057.63 527.021 1092.98 446.049C1132.23 356.468 1145.82 264.195 1130.19 192.59C1129.6 189.866 1128.97 187.156 1128.25 184.4L1126.69 184.962C1127.36 187.579 1128.01 190.242 1128.59 192.931C1144.1 264.108 1130.61 356.111 1091.55 445.35C1056.23 526.076 1005.53 592.459 959.223 618.581C930.307 634.874 905.124 634.162 886.386 616.369C863.203 594.384 814.961 587.889 750.658 598.064C685.907 609.145 623.373 630.61 565.466 661.629C470.398 712.722 421.515 773.399 431.149 828.257C441.662 888.161 527.455 970.302 876.464 1021.56C1225.47 1072.81 1305.25 1169.76 1310.55 1242.23C1311.41 1254.43 1310.38 1266.69 1307.49 1278.57L1309.32 1277.91C1312.03 1266.24 1312.98 1254.24 1312.14 1242.29C1306.88 1169.18 1227.01 1071.32 876.808 1019.91Z" fill="#5383EC"/>
<path d="M885.028 1025.13C543.504 973.248 459.957 890.063 449.845 829.427C440.251 771.423 495.141 705.371 596.497 652.835C702.443 597.94 846.181 567.673 893.654 614.494C911.835 632.37 935.874 633.924 963.62 618.837C1009.66 593.711 1060.48 525.916 1096.33 442.218C1135.53 350.425 1149.4 255.78 1134.49 182.154L1132.93 182.715C1147.61 256.032 1133.88 350.196 1094.84 441.543C1059.09 524.889 1008.58 592.455 962.828 617.4C935.876 632.084 912.365 630.691 894.837 613.324C846.793 566.004 702.344 596.253 595.74 651.385C548.955 675.644 510.567 703.766 484.765 732.716C455.334 765.714 443.036 798.371 448.221 829.699C458.508 890.82 542.282 974.746 884.788 1026.74C1227.29 1078.73 1305.35 1178.07 1310.09 1252.15C1310.63 1260.72 1310.26 1269.34 1308.98 1277.84L1310.71 1277.21C1311.91 1268.89 1312.26 1260.46 1311.75 1252.06C1306.98 1177.36 1229.06 1077.35 885.028 1025.13Z" fill="#ABC2F6"/>
<path d="M966.764 615.942C941.605 629.197 919.571 627.233 903.042 610.25C882.846 589.498 841.987 581.986 787.927 589.097C737.847 595.635 678.706 614.598 625.675 641.068C575.935 665.922 534.381 695.576 505.987 726.674C473.52 762.214 459.685 797.226 464.979 831.138C474.623 893.626 556.726 979.21 892.835 1032.02C1229.82 1084.99 1305.5 1186.51 1309.63 1262.37C1309.91 1267.46 1309.88 1272.56 1309.54 1277.64L1311.2 1277.04C1311.51 1272.13 1311.53 1267.2 1311.28 1262.29C1307.19 1185.78 1231.26 1083.65 893.075 1030.41C557.96 977.748 476.176 892.831 466.568 830.878C461.392 797.511 475.063 762.911 507.167 727.775C535.46 696.832 576.729 667.475 626.397 642.53C727.547 592.026 858.231 566.581 901.847 611.385C918.972 628.937 941.673 631.013 967.508 617.357C1012.93 593.435 1063.55 524.771 1099.63 438.131C1137.46 347.653 1151.83 254.51 1140.17 180.107L1138.61 180.669C1150.18 254.795 1135.64 347.487 1098.12 437.504C1062.73 522.484 1011.15 592.511 966.764 615.942Z" fill="#A7C0F5"/>
<path d="M900.974 1035.82C572.057 982.337 492.081 895.595 482.952 832.256C471.307 751.62 564.583 676.119 655.775 632.296C706.678 607.845 759.989 591.492 805.885 586.266C855.276 580.642 891.201 588.249 910.106 608.134C926.222 625.384 947.572 627.947 971.775 615.624C1056.66 572.43 1165.95 350.895 1145.57 178.16L1143.98 178.734C1164.1 350.776 1055.3 571.274 970.983 614.187C947.149 626.338 927.025 623.921 911.232 607.024C869.161 562.055 750.653 584.913 655.191 630.784C603.183 655.75 557.676 687.573 527.041 720.379C492.014 757.938 476.278 796.688 481.35 832.481C490.597 896.364 570.846 983.752 900.783 1037.57C1231.94 1091.42 1305.71 1195.36 1309.26 1273.08C1309.32 1274.66 1309.35 1276.25 1309.38 1277.85L1311.01 1277.26C1310.99 1275.82 1310.96 1274.42 1310.88 1273C1307.22 1194.54 1233.27 1090 900.974 1035.82Z" fill="#A4BDF5"/>
<path d="M908.712 1041.33C585.818 986.969 507.671 898.354 499.02 833.629C487.303 746.168 591.462 665.141 684.343 622.314C788.036 574.416 884.112 567.275 917.959 604.952C933.23 621.919 953.311 624.979 975.948 613.846C1019.16 592.598 1070.47 520.201 1106.34 429.49C1140.97 341.849 1156.34 251.711 1150.14 176.513L1148.55 177.087C1154.66 251.926 1139.29 341.633 1104.78 428.84C1069.05 519.187 1018.18 591.188 975.235 612.302C952.885 623.253 934.021 620.421 919.073 603.807C879.026 559.243 768.897 581.353 683.561 620.795C629.139 646.122 580.868 679.176 547.638 714.013C509.645 754.089 492.25 795.512 497.431 833.888C506.165 899.171 584.458 988.516 908.449 1042.99C1226.24 1096.45 1302.22 1199.12 1308.42 1278.23L1310.01 1277.66C1303.54 1198.02 1226.94 1094.91 908.712 1041.33Z" fill="#BED0F8"/>
<path d="M916.277 1046.9C599.207 991.657 522.912 901.122 514.772 834.882C503.847 746.47 605.685 659.546 711.392 612.567C791.939 576.885 889.364 559.589 925.562 601.508C940 618.227 958.95 621.733 980.376 611.585C1022.95 591.388 1073.69 518.062 1109.59 424.717C1142.78 338.73 1158.41 250.182 1154.47 174.953L1152.88 175.527C1156.71 250.444 1141.17 338.489 1108.11 424.193C1072.32 517.186 1021.92 590.155 979.493 610.22C958.539 620.159 940.771 616.892 926.668 600.561C889.932 558.015 791.667 575.261 710.591 611.211C604.283 658.368 501.958 745.898 512.938 835.112C521.322 901.812 597.741 993.125 915.816 1048.56C1214.95 1100.72 1295.56 1199.33 1306.68 1278.63L1308.24 1278.06C1297.07 1198.2 1215.92 1099.19 916.277 1046.9Z" fill="#B5CAF7"/>
<path d="M923.756 1052.78C612.325 996.677 537.829 903.967 530.234 836.2C519.563 741.433 630.087 649.186 737.306 603.58C827.259 565.332 904.185 563.252 933.252 598.306C947.02 614.797 964.885 618.655 985.053 609.469C1026.89 590.478 1077.08 516.058 1113.02 420.115C1144.48 335.532 1160.39 248.608 1158.45 173.517L1156.76 174.129C1158.62 248.895 1142.88 335.326 1111.36 419.421C1075.67 514.962 1025.78 588.921 984.337 607.809C964.607 616.798 947.83 613.135 934.504 597.111C904.957 561.486 827.293 563.362 736.647 601.86C628.921 647.688 517.841 740.566 528.58 836.169C536.293 904.482 611.001 997.781 923.391 1054.05C1205.23 1104.92 1289.21 1199.74 1304.87 1279.12L1306.43 1278.56C1290.55 1198.9 1206.09 1103.72 923.756 1052.78Z" fill="#8DADF2"/>
<path d="M930.975 1058.48C624.967 1001.24 552.344 906.566 545.342 837.293C539.502 779.933 576.192 728.856 607.959 696.151C647.486 655.444 703.493 618.662 761.446 594.882C844.91 560.889 913.536 560.861 940.678 594.808C953.843 611.36 970.304 615.45 989.662 606.947C1030.72 588.942 1080.4 513.649 1116.21 415.169C1146.47 332.153 1162.26 246.956 1162.09 172.207L1160.46 172.794C1160.53 247.149 1144.77 331.984 1114.73 414.447C1079.14 512.538 1029.68 587.476 989.04 605.331C970.488 613.465 954.637 609.547 941.804 593.697C914.387 558.989 845.026 558.929 760.859 593.253C702.648 616.97 646.508 654.034 606.799 694.886C560.84 742.178 539.001 791.466 543.678 837.345C550.766 907.291 623.686 1002.68 930.653 1060.08C1196.29 1109.75 1282.74 1201.01 1302.44 1280.19L1303.96 1279.65C1284.01 1199.97 1197.23 1108.24 930.975 1058.48Z" fill="#BED0F8"/>
<path d="M938.082 1064.41C637.336 1006.14 566.535 909.243 560.107 838.197C554.634 777.729 593.335 724.088 626.531 689.811C671.353 644.9 724.982 609.753 784.046 586.581C861.489 556.403 922.75 558.089 947.995 591.114C960.55 607.495 976.179 611.884 994.497 604.187C1034.7 587.192 1083.8 510.935 1119.56 409.928C1148.29 328.719 1164 245.155 1165.38 171.021L1163.68 171.633C1162.26 245.546 1146.55 328.563 1117.95 409.373C1082.47 510.163 1033.67 585.842 993.866 602.652C976.345 610.063 961.325 605.845 949.322 590.127C923.535 556.358 861.598 554.641 783.462 585.069C724.17 608.295 670.341 643.568 625.373 688.662C591.811 723.227 552.983 777.385 558.48 838.353C564.944 909.933 636.043 1007.55 937.899 1065.97C1188.37 1114.49 1276.32 1202.39 1299.77 1281.16L1301.15 1280.66C1277.54 1201.44 1189.22 1113.04 938.082 1064.41Z" fill="#93B1F3"/>
<path d="M945.077 1070.47C649.382 1011.12 580.433 911.868 574.626 839.072C569.593 775.588 609.844 719.626 644.432 683.673C689.793 637.578 744.563 601.817 805.006 578.832C875.752 552.437 931.869 555.703 955.17 587.354C967.094 603.61 981.892 608.299 999.305 601.241C1038.73 585.232 1087.04 508.084 1122.78 404.539C1150.17 325.261 1165.8 243.528 1168.43 169.923L1166.76 170.522C1164.05 243.768 1148.48 325.01 1121.26 404.109C1085.82 507.193 1037.75 584.02 998.724 599.845C982.199 606.544 967.953 602.086 956.5 586.483C932.763 554.168 875.908 550.698 804.516 577.364C743.84 600.381 688.845 636.222 643.285 682.443C608.42 718.495 567.912 774.941 573.019 839.064C578.862 912.395 648.073 1012.37 944.774 1071.91C1180.99 1119.3 1269.77 1204.08 1296.5 1282.18L1298.06 1281.62C1271.13 1203.2 1181.97 1118.01 945.077 1070.47Z" fill="#ACC3F6"/>
<path d="M951.91 1076.62C661.091 1016.14 593.982 914.502 588.784 839.92C584.376 773.392 625.967 715.068 661.666 677.854C705.522 632.22 765.732 592.985 823.085 572.317L824.505 571.805C890.166 548.457 940.394 552.866 962.282 583.852C973.668 600.027 987.751 605.012 1004.32 598.534C1042.88 583.501 1090.71 505.352 1126.07 399.439C1151.31 324.951 1166.5 247.424 1171.23 168.912L1169.57 169.511C1164.74 247.595 1149.58 324.691 1124.51 398.789C1089.25 504.233 1041.83 582 1003.68 596.883C987.936 603.028 974.475 598.248 963.584 582.795C941.214 551.122 890.341 546.554 823.893 570.107C762.255 593.136 706.482 629.531 660.578 676.68C624.583 714.158 582.641 772.921 587.287 840.107C592.429 915.296 659.763 1017.56 951.604 1078.37C1174.45 1124.51 1263.39 1206.26 1293.11 1283.75L1294.67 1283.19C1264.79 1205.25 1175.39 1123.11 951.91 1076.62Z" fill="#8FAEF3"/>
<path d="M958.608 1082.93C672.475 1021.23 607.192 917.062 602.808 840.504C599.714 786.421 626.561 726.598 678.422 672.012C723.847 624.325 785.094 584.167 842.396 564.771C902.632 544.395 948.8 549.915 969.162 579.924C979.873 595.638 993.257 601.071 1008.77 595.48L1009.26 595.305C1047.02 581.188 1094.12 502.09 1129.26 393.829C1153.25 320.648 1168.21 244.806 1173.79 167.989L1172.13 168.588C1166.49 245.036 1151.56 320.51 1127.67 393.343C1092.68 501.157 1045.95 579.851 1008.63 593.771L1008.18 593.933C993.492 599.225 980.874 594.181 970.514 579.006C949.729 548.367 902.845 542.596 841.881 563.234C784.371 582.705 722.8 622.94 677.208 670.923C625.029 725.82 598.029 786.089 601.169 840.625C605.485 917.755 671.1 1022.63 958.239 1084.51C1168.27 1129.83 1257.1 1208.57 1289.34 1284.91L1290.9 1284.35C1258.54 1207.58 1169.39 1128.37 958.608 1082.93Z" fill="#A0BBF5"/>
<path d="M965.146 1089.35C683.536 1026.41 620.097 919.536 616.514 840.967C613.927 784.705 641.595 722.708 694.46 666.35C740.877 616.856 802.424 576.552 858.984 558.245C914.357 540.444 956.996 546.922 975.904 576.046C986.269 591.884 999.259 597.42 1014.16 592.088C1051.05 578.797 1097.4 498.83 1132.26 388.363C1155.12 316.501 1169.85 242.295 1176.15 167.14L1174.56 167.714C1159.09 363.698 1074.15 568.748 1013.86 590.476C999.692 595.581 987.443 590.365 977.499 575.04C958.121 545.264 914.846 538.545 858.712 556.62C801.837 574.924 740.063 615.466 693.488 665.173C640.339 721.829 612.522 784.389 615.07 840.978C618.736 920.105 682.356 1027.7 964.969 1090.7C1162.95 1134.96 1251.07 1210.74 1285.8 1286.03L1287.36 1285.47C1252.27 1210.15 1163.89 1133.76 965.146 1089.35Z" fill="#5383EC"/>
<path d="M971.604 1095.87C694.109 1031.64 632.744 921.947 629.937 841.297C627.916 782.913 656.256 718.873 709.988 660.793C757.215 609.638 818.671 568.975 874.262 551.995C926.05 536.191 964.467 543.33 982.423 572.092C992.406 588.068 1004.72 593.69 1019.01 588.815L1019.56 588.616C1055.55 575.648 1100.92 495.019 1135.29 382.769C1157.04 312.305 1171.46 239.783 1178.33 166.354L1176.63 166.965C1169.81 239.991 1155.5 312.119 1133.91 382.208C1099.82 493.927 1054.74 574.177 1019.21 586.982L1018.69 587.169C1005.21 591.791 993.53 586.41 984.007 571.168C965.569 541.719 926.552 534.327 873.99 550.371C818.006 567.453 756.313 608.436 708.831 659.644C654.931 718.019 626.369 782.531 628.377 841.311C631.185 922.509 692.976 1032.95 971.316 1097.46C1157.78 1140.7 1244.95 1213.85 1281.44 1287.96L1283 1287.39C1246.4 1212.86 1158.91 1139.27 971.604 1095.87Z" fill="#6B94EF"/>
<path d="M977.879 1102.53C704.647 1036.89 645.017 924.296 643.11 841.365C639.995 705.237 786.455 575.456 888.798 545.856C936.709 531.997 972.371 539.855 989.181 567.933C998.887 584.009 1010.53 589.718 1024.22 585.253L1025.16 584.916C1060.24 572.274 1104.77 490.93 1138.55 377.052C1159.13 308.06 1173.12 237.269 1180.34 165.629L1178.64 166.241C1171.41 237.505 1157.48 307.928 1137.05 376.576C1103.23 490.035 1059.24 570.911 1024.68 583.367L1023.78 583.691C1010.91 587.938 999.801 582.31 990.652 567.129C973.32 538.143 937.085 530.217 888.491 544.245C785.732 573.994 638.578 704.456 641.736 841.351C643.644 924.83 703.552 1038.3 977.68 1103.93C1153.39 1146.31 1239.22 1216.62 1277.29 1289.14L1278.88 1288.57C1240.46 1215.82 1154.41 1144.92 977.879 1102.53Z" fill="#94B2F3"/>
<path d="M984.054 1109.35C714.745 1042.21 657.042 926.501 656.057 841.241C655.336 778.865 684.954 710.88 739.44 649.788C786.975 596.447 849.294 554.377 902.012 539.96C946.483 527.849 979.656 536.29 995.486 563.822C1004.68 579.77 1015.97 585.801 1029.09 581.7L1030.33 581.251C1064.52 568.933 1107.96 486.963 1141.41 371.404C1160.96 303.902 1174.62 234.826 1182.21 164.956L1180.51 165.567C1172.92 235.089 1159.31 303.82 1139.85 370.987C1106.54 486.065 1063.53 567.605 1029.82 579.714L1028.61 580.151C1016.33 583.987 1005.64 578.209 996.91 562.995C980.679 534.786 946.812 526.047 901.601 538.385C848.559 552.88 785.954 595.132 738.226 648.699C683.469 710.123 653.707 778.473 654.415 841.245C655.389 927.018 713.31 1043.55 983.637 1110.91C1149.17 1152.1 1233.22 1219.95 1272.71 1291.1L1274.17 1290.58C1265.14 1274.37 1254.42 1259.17 1242.17 1245.23C1188.56 1184.41 1101.75 1138.65 984.054 1109.35Z" fill="#A9C1F6"/>
<path d="M990.102 1116.25C724.458 1047.56 668.749 928.585 668.74 840.82C668.754 776.574 698.726 706.856 753.468 644.303C801.274 589.65 862.983 547.408 914.471 534.139C955.834 523.5 986.832 532.53 1001.88 559.521C1010.73 575.513 1021.61 581.693 1034.15 577.956L1035.64 577.419C1068.96 565.413 1111.44 482.849 1144.4 365.705C1162.94 299.747 1176.16 232.407 1183.94 164.332L1182.21 164.956C1174.39 232.696 1161.18 299.703 1142.7 365.338C1109.92 481.988 1067.83 564.135 1035.04 575.954L1033.58 576.478C1021.81 579.976 1011.61 574.024 1003.19 558.814C987.867 531.061 956.222 521.755 914.108 532.587C862.248 545.912 800.265 588.37 752.231 643.26C697.392 706.085 667.091 776.195 667.133 840.812C667.109 929.137 723.071 1048.92 989.685 1117.81C1145.07 1158.08 1227.53 1223.26 1267.91 1292.64L1269.33 1292.13C1261.89 1279.47 1253.42 1267.46 1244.01 1256.19C1191.92 1193.42 1106.43 1146.32 990.102 1116.25Z" fill="#B2C7F6"/>
<path d="M996.015 1123.32C733.895 1053.01 680.023 930.551 681.254 840.147C683.106 693.264 828.755 552.109 926.188 528.429C953.464 521.81 989.851 521.146 1007.94 555.264C1016.41 571.276 1026.85 577.654 1038.94 574.195C1039.52 574.026 1040.09 573.822 1040.64 573.583C1073.06 561.901 1114.62 478.73 1147.08 360.119C1164.61 295.714 1177.39 230.109 1185.33 163.833L1183.6 164.457C1175.63 230.421 1162.86 295.715 1145.41 359.822C1112.49 480.005 1070.47 563.618 1038.22 572.733C1026.97 575.927 1017.18 569.825 1009.1 554.572C994.587 527.23 964.91 517.411 925.488 526.92C827.539 550.473 681.076 692.626 679.323 840.216C678.222 931.2 732.183 1054.45 995.287 1124.99C1141.76 1164.09 1221.97 1226.75 1263.4 1294.46L1264.71 1293.98C1259.14 1284.9 1253.04 1276.14 1246.46 1267.76C1195.37 1202.75 1111.11 1154.19 996.015 1123.32Z" fill="#759CF0"/>
<path d="M1001.76 1130.37C742.911 1058.37 691.241 932.145 693.291 839.019C694.884 771.229 725.719 698.147 780.111 633.213C828.163 576.202 888.262 533.836 937.159 522.714C962.731 516.904 996.736 516.903 1013.83 550.87C1022.01 566.948 1032.04 573.51 1043.69 570.329C1075.46 561.739 1117.15 477.306 1149.71 354.709C1166.39 291.813 1178.8 227.858 1186.85 163.283L1185.12 163.907C1177.12 228.114 1164.8 291.707 1148.26 354.255C1116.45 473.724 1076.24 556.955 1045.32 568.1C1044.72 568.356 1044.1 568.577 1043.48 568.762C1032.78 571.64 1023.29 565.391 1015.51 550.107C1001.7 522.632 974.356 512.676 936.877 521.171C887.691 532.358 827.132 574.969 779.158 632.304C724.4 697.526 693.574 770.957 691.954 839.109C689.711 932.892 741.658 1060 1001.46 1132.12C1138.54 1170.26 1216.52 1230.39 1258.55 1296.21L1259.66 1295.81C1256.15 1290.34 1252.45 1284.97 1248.58 1279.72C1198.82 1212.34 1115.81 1162.24 1001.76 1130.37Z" fill="#91B0F3"/>
<path d="M1048.24 564.699C1037.89 567.37 1028.84 560.924 1021.35 545.575C1008.11 518.401 982.452 507.997 947.185 515.46C899.312 525.626 839.836 568.199 791.934 626.604C737.551 692.866 706.434 767.771 703.901 837.623C701.644 901.072 722.753 958.019 766.64 1006.84C817.47 1063.41 898.384 1108.12 1007.03 1139.43C1135.61 1176.56 1211.23 1234.18 1253.53 1297.82L1254.68 1297.41C1253.46 1295.54 1252.21 1293.71 1250.92 1291.87C1202.36 1222.27 1120.45 1170.55 1007.58 1137.83C751.674 1063.9 702.126 933.899 705.606 837.791C711.216 683.095 856.197 536.504 947.551 517.129C982.007 509.802 1007.02 519.93 1019.91 546.367C1027.81 562.51 1037.47 569.244 1048.69 566.377L1050.69 565.653C1081.38 554.595 1121.06 470.456 1152.49 349.284C1168.26 287.914 1180.21 225.624 1188.27 162.772L1186.54 163.396C1178.52 225.894 1166.61 287.83 1150.88 348.845C1118.91 472.174 1078.69 556.897 1048.24 564.699Z" fill="#BFD1F8"/>
<path d="M1013.03 1145.34C760.126 1069.55 712.709 935.253 717.589 835.861C725.106 676.25 868.277 528.98 957.403 511.348C989.843 504.942 1013.46 515.419 1025.69 541.546C1033.3 557.788 1042.64 564.682 1053.46 562.034C1054.18 561.833 1054.89 561.579 1055.57 561.273C1085.36 550.539 1124.15 466.095 1155 343.76C1170.01 283.984 1181.57 223.392 1189.62 162.285L1187.93 162.896C1179.92 223.753 1168.43 284.098 1153.51 343.633C1122.75 465.348 1084.45 549.42 1055.35 559.903C1054.69 560.185 1054 560.431 1053.31 560.64C1043.35 563.092 1034.63 556.486 1027.39 541.05C1014.84 514.256 990.586 503.422 957.25 509.837C910.786 519.025 852.3 561.632 804.714 621.02C750.957 688.152 719.456 764.488 716.041 835.91C712.342 899.679 733.846 962.355 775.915 1010.42C825.614 1068.85 905.323 1114.78 1012.76 1147C1133.18 1183.07 1206.09 1238.26 1248.67 1299.73L1249.74 1299.34C1201.72 1229.82 1122.17 1178.04 1013.03 1145.34Z" fill="#B8CCF7"/>
<path d="M1018.44 1152.98C768.169 1075.14 723.146 936.307 729.192 833.637C733.544 761.017 765.148 683.664 818.092 616.121C865 556.155 922.095 513.814 966.697 505.649C997.317 500.057 1019.69 510.901 1031.49 537.108C1038.82 553.45 1047.75 560.528 1058.3 558.097C1059.08 557.876 1059.85 557.601 1060.59 557.273C1089.85 546.727 1126.75 463.866 1157.5 338.982C1171.77 280.564 1182.92 221.427 1190.9 161.823L1189.17 162.447C1181.2 221.704 1170.09 280.496 1155.91 338.578C1124.94 464.282 1086.41 549.769 1057.86 556.337C1048.25 558.548 1039.88 551.817 1032.91 536.282C1020.81 509.325 997.856 498.296 966.507 504.035C921.417 512.258 864.082 554.803 816.89 615.067C763.722 682.965 732.042 760.54 727.663 833.523C722.822 898.624 743.186 963.103 784.541 1013.62C833.111 1074.02 911.702 1121.41 1018.09 1154.51C1130.6 1189.48 1201 1242.17 1243.25 1301.52L1244.18 1301.19C1196.9 1234.69 1121.08 1184.89 1018.44 1152.98Z" fill="#9DB8F4"/>
<path d="M1023.79 1160.76C775.828 1080.76 733.042 937.165 740.746 830.844C746.062 756.662 777.841 678.386 830.126 610.101C876.54 549.413 932.415 507.16 975.583 499.903C1004.63 495.152 1025.95 506.103 1037 532.106C1044.11 548.571 1052.82 555.805 1062.94 553.605C1063.74 553.381 1064.51 553.101 1065.26 552.769C1093.66 542.535 1129.51 459.583 1159.78 334.011C1173.13 278.311 1184.01 219.582 1192.07 161.248L1190.33 161.872C1182.36 219.983 1171.47 278.281 1158.31 333.604C1128.68 456.83 1092.31 541.379 1064.84 551.276C1064.12 551.539 1063.39 551.801 1062.7 552.05C1053.48 554.042 1045.29 547.168 1038.63 531.52C1027.12 504.782 1005.28 493.272 975.439 498.31C931.727 505.685 875.613 548.142 828.95 609.116C776.356 677.629 744.402 756.399 739.101 830.732C734.061 900.468 752.185 963.032 792.92 1016.78C840.39 1079.34 917.914 1128.33 1023.29 1162.31C1128.67 1196.29 1195.24 1247.34 1236.73 1304.07L1238.88 1303.29C1192.23 1239.66 1120.06 1191.83 1023.79 1160.76Z" fill="#D7E2FB"/>
<path d="M1029 1168.71C783.277 1086.34 742.813 937.675 752.204 827.458C758.609 752.062 790.376 672.772 841.923 603.853C887.719 542.644 942.212 500.575 984.032 493.922C1011.53 489.65 1031.74 501.117 1042.44 527.013C1049.32 543.599 1057.75 551.016 1067.5 548.987C1108.85 540.702 1165.29 362.21 1193.36 160.937L1191.56 161.586C1183.6 218.555 1173.14 275.526 1160.5 329.369C1131.42 452.943 1095.93 537.413 1069.47 546.948C1068.77 547.259 1068.05 547.517 1067.32 547.722C1058.4 549.567 1050.61 542.508 1044.1 526.728C1033.04 500.061 1012.24 488.259 983.885 492.644C941.596 499.192 886.725 541.515 840.633 602.987C789.006 672.013 757.006 751.74 750.597 827.45C744.485 899.531 761.508 964.253 801.194 1019.87C847.531 1084.71 924 1135.33 1028.54 1170.36C1126.43 1203.12 1190.35 1251.69 1231.37 1305.92L1233.45 1305.17C1187.63 1244.68 1119.09 1198.92 1029 1168.71Z" fill="#ACC3F6"/>
<path d="M1034.11 1176.81C790.26 1091.93 752.318 937.773 763.507 823.424C770.887 747.912 803.685 665.51 853.494 597.413C898.615 535.743 951.739 493.893 992.185 488.204C1018.26 484.561 1037.62 496.258 1047.89 522.152C1054.55 538.896 1062.71 546.446 1072.22 544.704C1099.11 539.515 1134.39 455.749 1164.19 325.728C1176.3 272.783 1186.5 216.808 1194.4 160.563L1192.57 161.224C1164.82 356.781 1112.54 528.569 1074.24 542.372C1073.51 542.695 1072.75 542.966 1071.99 543.183C1063.38 544.834 1055.81 537.619 1049.54 521.717C1038.94 495.038 1019.1 482.968 992.091 486.75C951.135 492.545 897.655 534.601 852.298 596.591C802.309 664.949 769.441 747.807 761.878 823.463C754.604 898.076 770.567 965.177 809.169 1022.67C854.32 1089.98 929.843 1142.43 1033.59 1178.52C1124.43 1210.15 1185.53 1256.13 1225.96 1307.95L1227.86 1307.26C1183.13 1249.79 1118.26 1206.07 1034.11 1176.81Z" fill="#8FAEF3"/>
<path d="M1039.12 1185.06C784.136 1092.96 764.051 915.929 774.768 818.622C783.205 742.024 816.055 658.899 864.814 590.711C909.032 528.818 960.894 487.266 999.879 482.3C1024.83 479.103 1043.25 491.137 1053.1 517.065C1059.51 533.977 1067.42 541.697 1076.56 539.928C1114.5 533.146 1167.03 361.073 1195.58 160.138L1193.74 160.8C1185.95 215.831 1176.12 270.423 1164.55 321.724C1136.37 446.895 1103.75 528.722 1078.75 537.733C1078.02 538.072 1077.27 538.344 1076.5 538.544C1068.19 540.048 1060.88 532.663 1054.78 516.617C1044.64 489.892 1025.63 477.523 999.842 480.786C960.417 485.833 908.211 527.626 863.665 589.912C814.681 658.455 781.696 741.746 773.208 818.637C764.72 895.527 779.411 965.396 816.937 1025.12C860.955 1095.14 935.523 1149.5 1038.64 1186.76C1122.73 1217.18 1180.97 1260.74 1220.52 1309.91L1222.29 1309.27C1178.77 1254.96 1117.45 1213.37 1039.12 1185.06Z" fill="#B7CBF7"/>
<path d="M1044.02 1193.44C790.563 1098.2 773.454 914.224 785.962 812.984C795.493 735.404 828.366 651.801 876.147 583.613C919.63 521.632 969.767 480.507 1007.36 476.238C1031.19 473.522 1048.82 485.843 1058.26 511.839C1064.42 528.92 1072.18 536.772 1081.11 535.276C1081.9 535.053 1082.68 534.774 1083.43 534.44C1108.12 525.541 1140.15 443.927 1167.78 318.955C1178.94 268.386 1188.59 214.37 1196.45 159.628L1194.79 160.227C1186.99 214.595 1177.45 268.259 1166.34 318.536C1138.87 442.979 1107.37 524.092 1083.12 532.828C1082.38 533.094 1081.62 533.303 1080.84 533.454C1072.81 534.823 1065.67 527.178 1059.82 511.044C1050.15 484.227 1031.87 471.595 1007.18 474.425C969.199 478.715 918.442 520.181 874.713 582.564C826.809 650.953 793.837 734.826 784.23 812.629C774.343 892.803 787.808 964.915 824.248 1026.95C867.079 1099.87 940.779 1156.38 1043.35 1194.85C1121.01 1224.02 1176.13 1264.91 1214.75 1311.6L1216.45 1310.99C1177.79 1264.08 1122.28 1222.86 1044.02 1193.44Z" fill="#B2C7F6"/>
<path d="M1048.82 1202.08C796.32 1103.64 782.739 911.974 797.112 806.46C807.849 728.211 840.654 644.202 887.277 576.274C929.772 514.375 978.58 473.69 1014.67 470.039C1037.35 467.817 1054.36 480.363 1063.48 506.436C1069.55 523.823 1076.94 531.73 1085.64 530.356C1109.98 526.557 1141.35 446.706 1169.59 316.815C1180.39 267.081 1189.81 213.735 1197.55 159.427L1195.79 160.063C1167.89 354.11 1121.09 516.132 1087.62 528.153C1086.91 528.469 1086.19 528.732 1085.44 528.94C1077.65 530.14 1070.82 522.464 1065.06 506.06C1055.69 479.178 1038.22 466.212 1014.58 468.585C978.021 472.247 928.743 513.259 885.989 575.525C839.244 643.653 806.29 727.794 795.561 806.392C784.222 889.595 796.358 964.535 831.672 1029.09C873.264 1105.19 946.146 1164 1048.29 1203.76C1119.77 1231.63 1171.85 1269.98 1209.34 1314.06L1210.72 1313.56C1170.1 1265.44 1116.06 1228.31 1048.82 1202.08Z" fill="#A6BFF5"/>
</g>
</g>
<defs>
<clipPath id="clip0_211_648">
<rect width="1743.19" height="1089.95" fill="white" transform="translate(0 590.979) rotate(-19.8172)"/>
</clipPath>
</defs>
</svg>
