<svg width="32" height="32" viewBox="0 0 32 32" fill="none" xmlns="http://www.w3.org/2000/svg">
<path fill-rule="evenodd" clip-rule="evenodd" d="M16 32C24.8366 32 32 24.8366 32 16C32 7.16344 24.8366 0 16 0C7.16344 0 0 7.16344 0 16C0 24.8366 7.16344 32 16 32ZM18.5 9.33333C19.75 9.55 20.95 9.925 22.0583 10.4417C22.075 10.4417 22.0833 10.45 22.0917 10.4583C24.0667 13.3667 25.0417 16.6417 24.675 20.4167C24.675 20.4333 24.6667 20.45 24.65 20.4583C23.15 21.5583 21.7083 22.225 20.275 22.6667C20.25 22.675 20.225 22.6667 20.2 22.6583C19.875 22.2 19.575 21.7167 19.3083 21.2083C19.3 21.1833 19.3083 21.1417 19.3417 21.1333C19.8167 20.95 20.275 20.7417 20.7083 20.4833C20.75 20.4667 20.75 20.4167 20.7167 20.3917C20.6708 20.3542 20.625 20.3187 20.5792 20.2833C20.5333 20.2479 20.4875 20.2125 20.4417 20.175C20.425 20.1583 20.4 20.1583 20.3833 20.1667C17.55 21.475 14.4583 21.475 11.5917 20.1667C11.575 20.1583 11.55 20.1583 11.5333 20.175C11.4875 20.2083 11.4417 20.2437 11.3958 20.2792C11.35 20.3146 11.3042 20.35 11.2583 20.3833C11.2333 20.4083 11.2333 20.4583 11.2667 20.475C11.7083 20.725 12.1583 20.9417 12.6333 21.125C12.6667 21.1333 12.6833 21.1667 12.6667 21.2C12.4083 21.7083 12.1083 22.1917 11.775 22.65C11.7667 22.6667 11.7417 22.675 11.7167 22.6667C10.2917 22.225 8.85 21.5583 7.35 20.4583C7.33333 20.45 7.325 20.4333 7.325 20.4167C7.01667 17.15 7.64167 13.85 9.90833 10.4583C9.91667 10.45 9.925 10.4417 9.93333 10.4417C11.05 9.925 12.2417 9.55 13.4917 9.33333C13.5167 9.33333 13.5417 9.34167 13.55 9.35833C13.7083 9.63333 13.8833 9.98333 14 10.2667C15.3258 10.0667 16.6742 10.0667 18 10.2667C18.1167 9.99167 18.2917 9.63333 18.4417 9.35833C18.449 9.35016 18.458 9.34368 18.4681 9.33936C18.4781 9.33504 18.489 9.33298 18.5 9.33333ZM11.525 16.6583C11.525 17.6333 12.2417 18.425 13.1 18.425C13.975 18.425 14.675 17.6333 14.675 16.6583C14.6833 15.6917 13.9833 14.8917 13.1 14.8917C12.225 14.8917 11.525 15.6833 11.525 16.6583ZM17.3333 16.6583C17.3333 17.6333 18.05 18.425 18.9083 18.425C19.7917 18.425 20.4833 17.6333 20.4833 16.6583C20.4917 15.6917 19.7917 14.8917 18.9083 14.8917C18.0333 14.8917 17.3333 15.6833 17.3333 16.6583Z" fill="white"/>
</svg>
