<svg width="104" height="105" viewBox="0 0 104 105" fill="none" xmlns="http://www.w3.org/2000/svg">
<circle cx="52" cy="52.5" r="52" fill="url(#paint0_linear_158_304)"/>
<path d="M69.25 59.6875V55.375C69.25 53.85 68.6442 52.3875 67.5659 51.3091C66.4875 50.2308 65.025 49.625 63.5 49.625C61.975 49.625 60.5125 50.2308 59.4341 51.3091C58.3558 52.3875 57.75 53.85 57.75 55.375V59.6875C56.9877 59.6883 56.2569 59.9914 55.7179 60.5304C55.1789 61.0694 54.8758 61.8002 54.875 62.5625V69.75C54.8758 70.5123 55.1789 71.2431 55.7179 71.7821C56.2569 72.3211 56.9877 72.6242 57.75 72.625H69.25C70.0123 72.6242 70.7431 72.3211 71.2821 71.7821C71.8211 71.2431 72.1242 70.5123 72.125 69.75V62.5625C72.1242 61.8002 71.8211 61.0694 71.2821 60.5304C70.7431 59.9914 70.0123 59.6883 69.25 59.6875ZM60.625 55.375C60.625 54.6125 60.9279 53.8812 61.4671 53.3421C62.0062 52.8029 62.7375 52.5 63.5 52.5C64.2625 52.5 64.9938 52.8029 65.5329 53.3421C66.0721 53.8812 66.375 54.6125 66.375 55.375V59.6875H60.625V55.375ZM57.75 69.75V62.5625H69.25V69.75H57.75Z" fill="white"/>
<path d="M62.7798 42.5597L53.0163 32.7962C52.7468 32.5266 52.3812 32.3751 52 32.375H37.625C36.8632 32.3773 36.1333 32.6809 35.5946 33.2196C35.0559 33.7583 34.7523 34.4882 34.75 35.25V69.75C34.7523 70.5118 35.0559 71.2417 35.5946 71.7804C36.1333 72.3191 36.8632 72.6227 37.625 72.625H49.125V69.75H37.625V35.25H49.125V43.875C49.1258 44.6373 49.4289 45.3681 49.9679 45.9071C50.5069 46.4461 51.2377 46.7492 52 46.75H61.0447C61.53 46.7496 62.0043 46.6054 62.4077 46.3355C62.8111 46.0657 63.1254 45.6824 63.3111 45.234C63.4968 44.7857 63.5454 44.2923 63.4508 43.8163C63.3563 43.3403 63.1228 42.9031 62.7798 42.5597ZM52 43.875V35.8451L60.0284 43.875H52Z" fill="white"/>
<defs>
<linearGradient id="paint0_linear_158_304" x1="0" y1="0.5" x2="123.63" y2="35.8543" gradientUnits="userSpaceOnUse">
<stop stop-color="#2457CE"/>
<stop offset="0.442708" stop-color="#5383EC"/>
<stop offset="1" stop-color="#A2C8FF"/>
</linearGradient>
</defs>
</svg>
