<svg width="104" height="105" viewBox="0 0 104 105" fill="none" xmlns="http://www.w3.org/2000/svg">
<circle cx="52" cy="52.5" r="52" fill="url(#paint0_linear_158_311)"/>
<path d="M63.5 44.8332H61.5833V40.9998C61.5833 35.6332 57.3666 31.4165 52 31.4165C46.6333 31.4165 42.4166 35.6332 42.4166 40.9998V44.8332H40.5C38.3916 44.8332 36.6666 46.5582 36.6666 48.6665V67.8332C36.6666 69.9415 38.3916 71.6665 40.5 71.6665H63.5C65.6083 71.6665 67.3333 69.9415 67.3333 67.8332V48.6665C67.3333 46.5582 65.6083 44.8332 63.5 44.8332ZM46.25 40.9998C46.25 37.7415 48.7416 35.2498 52 35.2498C55.2583 35.2498 57.75 37.7415 57.75 40.9998V44.8332H46.25V40.9998ZM63.5 67.8332H40.5V48.6665H63.5V67.8332ZM50.0833 53.4582C50.0833 54.9915 48.7416 56.3332 47.2083 56.3332C45.675 56.3332 44.3333 54.9915 44.3333 53.4582C44.3333 51.9248 45.675 50.5832 47.2083 50.5832C48.7416 50.5832 50.0833 51.9248 50.0833 53.4582ZM59.6666 63.0415C59.6666 64.5748 58.325 65.9165 56.7916 65.9165C55.2583 65.9165 53.9166 64.5748 53.9166 63.0415C53.9166 61.5082 55.2583 60.1665 56.7916 60.1665C58.325 60.1665 59.6666 61.5082 59.6666 63.0415ZM60.05 52.8832L46.4416 66.4915L43.7583 63.8082L57.3666 50.1998L60.05 52.8832Z" fill="white"/>
<defs>
<linearGradient id="paint0_linear_158_311" x1="0" y1="0.5" x2="123.63" y2="35.8543" gradientUnits="userSpaceOnUse">
<stop stop-color="#2457CE"/>
<stop offset="0.442708" stop-color="#5383EC"/>
<stop offset="1" stop-color="#A2C8FF"/>
</linearGradient>
</defs>
</svg>
