<svg width="126" height="26" viewBox="0 0 126 26" fill="none" xmlns="http://www.w3.org/2000/svg">
<path d="M0 25.2549V0.5H2.14384L15.4287 15.2059V0.745097H20.2787V25.5H18.0997L4.85001 10.8291V25.2549H0Z" fill="#292929"/>
<path d="M38.6944 25.5C32.4034 25.5 26.1476 20.598 26.1476 13.035C26.1476 6.45238 31.4896 0.5 38.6944 0.5C45.161 0.5 51.2411 5.71709 51.2411 13.035C51.2411 19.5126 46.0045 25.5 38.6944 25.5ZM38.6944 5.36695C34.477 5.36695 31.0328 8.79832 31.0328 13.035C31.0328 17.2367 34.5121 20.6331 38.6944 20.6331C42.9118 20.6331 46.3208 17.2017 46.3208 13.035C46.3208 8.79832 42.8415 5.36695 38.6944 5.36695Z" fill="#292929"/>
<path d="M72.8899 5.61204H61.9598V10.549H69.9377V15.451H61.9598V20.388H72.8899V25.2549H57.0746V0.745097H72.8899V5.61204Z" fill="#292929"/>
<path d="M95.3884 0.745097V5.61204H88.6406V25.2549H83.7554V5.61204H76.9373V0.745097H95.3884Z" fill="#292929"/>
<path d="M107.196 25.5C105.052 25.5 103.013 24.8697 101.221 23.7493H101.256C99.9908 22.979 98.9364 21.8585 98.5498 21.4384L102.205 18.077C102.873 18.9174 105.298 20.6331 107.196 20.6331C108.777 20.6331 110.605 19.9678 110.605 18.042C110.605 17.2717 109.726 16.2913 106.317 14.9608C102.346 13.4902 99.4285 11.5994 99.4285 7.64286C99.4285 3.58123 102.592 0.5 107.301 0.5C109.831 0.5 113.205 1.90056 114.822 3.30112L111.8 7.08263C111.8 7.08263 109.585 5.36695 107.477 5.36695C105.544 5.36695 104.349 6.17227 104.349 7.60784C104.349 8.93838 106.071 9.67367 108.039 10.374C113.697 12.4748 115.525 14.6807 115.525 18.077C115.525 22.2087 112.01 25.5 107.196 25.5Z" fill="#292929"/>
<path d="M126 25.2549H121.15V0.745097H126V25.2549Z" fill="#292929"/>
</svg>
