<svg width="126" height="25" viewBox="0 0 126 25" fill="none" xmlns="http://www.w3.org/2000/svg">
<path d="M0 24.7549V0H2.14384L15.4287 14.7059V0.245097H20.2787V25H18.0997L4.85001 10.3291V24.7549H0Z" fill="white"/>
<path d="M38.6944 25C32.4034 25 26.1476 20.098 26.1476 12.535C26.1476 5.95238 31.4896 0 38.6944 0C45.161 0 51.2411 5.21709 51.2411 12.535C51.2411 19.0126 46.0045 25 38.6944 25ZM38.6944 4.86695C34.477 4.86695 31.0328 8.29832 31.0328 12.535C31.0328 16.7367 34.5121 20.1331 38.6944 20.1331C42.9118 20.1331 46.3208 16.7017 46.3208 12.535C46.3208 8.29832 42.8415 4.86695 38.6944 4.86695Z" fill="white"/>
<path d="M72.8899 5.11204H61.9598V10.049H69.9377V14.951H61.9598V19.888H72.8899V24.7549H57.0746V0.245097H72.8899V5.11204Z" fill="white"/>
<path d="M95.3884 0.245097V5.11204H88.6406V24.7549H83.7554V5.11204H76.9373V0.245097H95.3884Z" fill="white"/>
<path d="M107.196 25C105.052 25 103.013 24.3697 101.221 23.2493H101.256C99.9908 22.479 98.9364 21.3585 98.5498 20.9384L102.205 17.577C102.873 18.4174 105.298 20.1331 107.196 20.1331C108.777 20.1331 110.605 19.4678 110.605 17.542C110.605 16.7717 109.726 15.7913 106.317 14.4608C102.346 12.9902 99.4285 11.0994 99.4285 7.14286C99.4285 3.08123 102.592 0 107.301 0C109.831 0 113.205 1.40056 114.822 2.80112L111.8 6.58263C111.8 6.58263 109.585 4.86695 107.477 4.86695C105.544 4.86695 104.349 5.67227 104.349 7.10784C104.349 8.43838 106.071 9.17367 108.039 9.87395C113.697 11.9748 115.525 14.1807 115.525 17.577C115.525 21.7087 112.01 25 107.196 25Z" fill="white"/>
<path d="M126 24.7549H121.15V0.245097H126V24.7549Z" fill="white"/>
</svg>
