<svg width="104" height="105" viewBox="0 0 104 105" fill="none" xmlns="http://www.w3.org/2000/svg">
<circle cx="52" cy="52.5" r="52" fill="url(#paint0_linear_158_298)"/>
<path d="M57.874 57.8428L59.7926 61.9684C59.7926 61.9684 68.4173 63.7998 68.4173 68.1557C68.4173 71.2505 64.5801 71.2505 64.5801 71.2505H54.3611L49.3298 68.4554" stroke="white" stroke-width="3" stroke-linecap="round" stroke-linejoin="round"/>
<path d="M46.376 57.8428L44.4597 61.9684C44.4597 61.9684 35.8328 63.7998 35.8328 68.1557C35.8328 71.2505 39.6699 71.2505 39.6699 71.2505H44.2987L49.3299 68.4554L55.4792 64.5422" stroke="white" stroke-width="3" stroke-linecap="round" stroke-linejoin="round"/>
<path d="M32 59.904C32 59.904 36.792 58.8731 39.6676 57.8423C42.541 43.4015 51.1635 44.4323 52.125 44.4323C53.0843 44.4323 61.709 43.4015 64.5824 57.8423C67.458 58.8709 72.25 59.904 72.25 59.904M52.125 39.9444C53.3111 39.9444 54.4486 39.4733 55.2873 38.6346C56.126 37.7959 56.5972 36.6583 56.5972 35.4722C56.5972 34.2861 56.126 33.1486 55.2873 32.3099C54.4486 31.4712 53.3111 31 52.125 31C50.9389 31 49.8014 31.4712 48.9627 32.3099C48.124 33.1486 47.6528 34.2861 47.6528 35.4722C47.6528 36.6583 48.124 37.7959 48.9627 38.6346C49.8014 39.4733 50.9389 39.9444 52.125 39.9444Z" stroke="white" stroke-width="3" stroke-linecap="round" stroke-linejoin="round"/>
<defs>
<linearGradient id="paint0_linear_158_298" x1="0" y1="0.5" x2="123.63" y2="35.8543" gradientUnits="userSpaceOnUse">
<stop stop-color="#2457CE"/>
<stop offset="0.442708" stop-color="#5383EC"/>
<stop offset="1" stop-color="#A2C8FF"/>
</linearGradient>
</defs>
</svg>
