<svg width="32" height="32" viewBox="0 0 32 32" fill="none" xmlns="http://www.w3.org/2000/svg">
<path fill-rule="evenodd" clip-rule="evenodd" d="M16 32C24.8366 32 32 24.8366 32 16C32 7.16344 24.8366 0 16 0C7.16344 0 0 7.16344 0 16C0 24.8366 7.16344 32 16 32ZM12.512 20.5C15.005 20.5 17.025 18.485 17.025 16C17.0242 15.4082 16.9068 14.8223 16.6796 14.2759C16.4524 13.7294 16.1197 13.2331 15.7006 12.8152C15.2815 12.3973 14.7842 12.0661 14.2371 11.8404C13.69 11.6148 13.1038 11.4991 12.512 11.5C10.02 11.5 8 13.514 8 16C8.00079 16.5917 8.11812 17.1775 8.34529 17.7239C8.57247 18.2703 8.90504 18.7666 9.32402 19.1845C9.743 19.6023 10.2402 19.9336 10.7872 20.1593C11.3342 20.385 11.9203 20.5008 12.512 20.5ZM19.719 20.236C20.965 20.236 21.975 18.34 21.975 16C21.975 13.661 20.965 11.764 19.719 11.764C18.473 11.764 17.463 13.66 17.463 16C17.463 18.339 18.473 20.236 19.719 20.236ZM23.206 19.795C23.645 19.795 24 18.096 24 16C24 13.904 23.645 12.205 23.207 12.205C22.768 12.205 22.413 13.904 22.413 16C22.413 18.095 22.768 19.795 23.206 19.795Z" fill="white"/>
</svg>
