<svg width="42" height="42" viewBox="0 0 42 42" fill="none" xmlns="http://www.w3.org/2000/svg">
<path fill-rule="evenodd" clip-rule="evenodd" d="M21 42C32.598 42 42 32.598 42 21C42 9.40202 32.598 0 21 0C9.40202 0 0 9.40202 0 21C0 32.598 9.40202 42 21 42ZM16.422 26.9062C19.6941 26.9062 22.3453 24.2616 22.3453 21C22.3443 20.2232 22.1902 19.4543 21.892 18.7371C21.5937 18.0198 21.1571 17.3684 20.6071 16.8199C20.057 16.2715 19.4043 15.8367 18.6862 15.5405C17.9682 15.2444 17.1988 15.0925 16.422 15.0938C13.1512 15.0938 10.5 17.7371 10.5 21C10.501 21.7767 10.655 22.5455 10.9532 23.2626C11.2514 23.9798 11.6879 24.6312 12.2378 25.1796C12.7877 25.7281 13.4402 26.1628 14.1582 26.4591C14.8761 26.7553 15.6453 26.9073 16.422 26.9062ZM25.8812 26.5597C27.5166 26.5597 28.8422 24.0712 28.8422 21C28.8422 17.9301 27.5166 15.4403 25.8812 15.4403C24.2458 15.4403 22.9202 17.9287 22.9202 21C22.9202 24.0699 24.2458 26.5597 25.8812 26.5597ZM30.4579 25.9809C31.0341 25.9809 31.5 23.751 31.5 21C31.5 18.249 31.0341 16.0191 30.4592 16.0191C29.883 16.0191 29.4171 18.249 29.4171 21C29.4171 23.7497 29.883 25.9809 30.4579 25.9809Z" fill="#2457CE"/>
</svg>
