<svg width="632" height="937" viewBox="0 0 632 937" fill="none" xmlns="http://www.w3.org/2000/svg">
<g opacity="0.4" clip-path="url(#clip0_211_720)">
<mask id="mask0_211_720" style="mask-type:luminance" maskUnits="userSpaceOnUse" x="-533" y="0" width="1165" height="937">
<path d="M-318.911 -8.14113e-05L631.243 342.399L417.154 936.494L-533 594.095L-318.911 -8.14113e-05Z" fill="white"/>
</mask>
<g mask="url(#mask0_211_720)">
<path d="M-129.798 703.217C-127.137 676.959 -105.832 653.699 -66.3597 634.129C-21.2111 611.705 47.6144 594.23 138.256 582.212C352.077 553.821 404.846 509.307 411.519 477.01C416.576 452.409 396.574 425.31 355.151 400.653C286.367 359.694 168.256 333.688 133.605 362.843C120.009 374.274 101.571 373.346 80.1803 360.103C52.3821 342.873 23.0867 306.142 3.53926 264.192C-18.5746 216.781 -25.6384 169.758 -16.4361 131.953C-14.744 124.94 -12.4075 118.099 -9.45637 111.515L-8.57347 111.834C-11.5299 118.399 -13.8685 125.225 -15.5588 132.224C-36.0988 216.59 27.6476 326.452 80.6648 359.325C101.583 372.307 119.632 373.368 132.906 362.138C148.851 348.719 184.377 345.826 230.385 354.172C274.189 362.155 320.978 379.22 355.563 399.826C397.31 424.713 417.452 452.18 412.318 477.185C405.616 509.812 352.642 554.705 138.24 583.136C-75.3918 611.505 -124.931 664.168 -128.87 703.347C-130.16 716.491 -126.482 730.064 -118.954 743.21L-120.579 742.625C-127.281 730.457 -131.201 717.114 -129.798 703.217Z" fill="#B2C7F6"/>
<path d="M79.1628 359.215C98.561 370.878 115.257 371.292 127.723 360.543C161.011 331.395 270.158 355.35 338.442 394.677C384.628 421.277 407.119 450.907 401.797 478.134C395.295 511.4 343.401 557.136 133.118 585.963C-76.6168 614.715 -125.017 668.56 -128.728 708.615C-129.588 720.108 -127.496 731.628 -122.651 742.082L-123.835 741.656C-128.452 731.309 -130.421 719.976 -129.566 708.676C-125.867 668.276 -77.3438 614.09 133.043 585.165C342.717 556.391 394.414 511.014 400.861 478.023C406.156 451.126 383.791 421.838 337.97 395.482C300.856 374.736 260.569 360.264 218.736 352.651C176.109 345.114 143.228 348.28 128.361 361.226C115.642 372.361 98.4674 371.955 78.6566 360.053C51.119 343.484 21.6104 306.087 1.67191 262.453C-20.804 213.279 -28.0967 164.563 -18.8728 125.314C-17.6389 120.053 -16.062 114.879 -14.1519 109.823L-13.2891 110.134C-15.1614 115.158 -16.717 120.294 -17.9465 125.512C-38.5923 213.128 26.6869 327.671 79.1628 359.215Z" fill="#ABC2F6"/>
<path d="M128.09 587.961C333.72 558.773 384.286 512.445 390.6 478.817C395.94 450.031 370.433 417.636 320.617 389.909C285.299 370.52 247.04 357.055 207.363 350.049C167.268 343.289 137.398 346.655 123.288 359.512C111.373 370.369 95.3471 370.423 76.9446 359.708C49.6619 343.753 20.0773 305.875 -0.163 260.499C-22.9608 209.575 -30.4678 159.127 -21.2168 118.482C-20.4607 115.125 -19.548 111.712 -18.4659 108.269L-17.5831 108.587C-18.6073 111.87 -19.5255 115.236 -20.2905 118.68C-40.5543 208.066 24.4391 327.995 77.4435 358.89C95.5482 369.361 111.1 369.363 122.706 358.735C137.022 345.749 167.192 342.241 207.57 349.035C247.352 356.064 285.71 369.573 321.118 389.023C344.372 401.94 363.067 416.434 375.186 430.871C388.895 447.31 394.414 463.452 391.574 479.009C385.257 513.022 334.467 559.655 128.29 588.918C-77.8882 618.181 -125.028 673.183 -128.429 714.076C-129.108 723.284 -127.914 732.533 -124.918 741.265L-126.042 740.86C-128.881 732.25 -129.991 723.164 -129.307 714.122C-125.873 672.697 -78.5027 617.369 128.09 587.961Z" fill="#C3D4F8"/>
<path d="M123.241 590.909C324.934 561.322 374.402 514.077 380.492 479.687C386.002 448.355 357.814 413.52 303.147 384.158C238.962 349.687 147.315 330.27 118.35 357.8C107.163 368.398 92.2152 368.795 75.0404 359.204C48.0168 343.976 18.4774 305.343 -2.00224 258.43C-24.7426 206.529 -32.6151 153.068 -23.5596 111.582C-23.2177 110.004 -22.8557 108.433 -22.4392 106.837L-21.5362 107.162C-21.9238 108.678 -22.2986 110.222 -22.6333 111.779C-31.6221 153.018 -23.8064 206.322 -1.17596 258.025C19.2869 304.796 48.6617 343.256 75.492 358.391C92.2454 367.83 106.836 367.418 117.692 357.109C131.124 344.372 159.074 340.609 196.33 346.504C233.845 352.924 270.076 365.36 303.626 383.332C358.706 412.934 387.027 448.089 381.446 479.872C375.355 514.579 325.648 562.17 123.441 591.865C-78.7666 621.561 -124.99 677.732 -128.06 719.72C-128.557 726.788 -127.958 733.89 -126.283 740.773L-127.347 740.39C-128.917 733.631 -129.467 726.675 -128.978 719.752C-125.933 677.393 -79.6565 620.696 123.241 590.909Z" fill="#5383EC"/>
<path d="M118.479 593.933C316.35 563.877 364.755 515.682 370.614 480.551C376.172 446.944 344.37 408.675 285.647 378.237C224.264 346.432 140.986 328.896 113.481 356.023C102.948 366.38 89.0202 367.281 72.9448 358.539C46.2692 343.982 16.8265 304.703 -3.94545 256.21C-26.6547 203.028 -34.6896 148.193 -26.051 105.535L-25.148 105.861C-33.6541 148.339 -25.7002 202.895 -3.07906 255.819C17.6303 304.108 46.8941 343.254 73.4036 357.707C89.0191 366.214 102.641 365.407 112.796 355.345C140.632 327.93 224.322 345.455 286.086 377.397C313.192 391.452 335.433 407.745 350.382 424.518C367.434 443.637 374.559 462.557 371.555 480.708C365.595 516.12 317.058 564.744 118.618 594.868C-79.8213 624.991 -125.046 682.544 -127.794 725.464C-128.104 730.434 -127.888 735.423 -127.15 740.348L-128.153 739.986C-128.848 735.162 -129.048 730.279 -128.751 725.414C-125.988 682.136 -80.8477 624.191 118.479 593.933Z" fill="#ABC2F6"/>
<path d="M71.1234 356.862C85.6996 364.542 98.4657 363.404 108.042 353.564C119.743 341.541 143.416 337.189 174.737 341.308C203.752 345.096 238.017 356.083 268.742 371.419C297.561 385.819 321.636 403 338.086 421.017C356.897 441.608 364.913 461.894 361.846 481.541C356.258 517.745 308.69 567.331 113.956 597.928C-81.2855 628.614 -125.131 687.435 -127.526 731.389C-127.689 734.335 -127.671 737.288 -127.471 740.232L-128.434 739.885C-128.612 737.04 -128.628 734.186 -128.483 731.339C-126.113 687.013 -82.1168 627.838 113.817 596.993C307.975 566.484 355.358 517.285 360.925 481.391C363.924 462.059 356.003 442.012 337.403 421.655C321.011 403.727 297.1 386.719 268.324 372.266C209.72 343.005 134.005 328.263 108.735 354.222C98.8128 364.391 85.6606 365.594 70.6919 357.682C44.3772 343.822 15.0479 304.039 -5.85808 253.843C-27.7762 201.421 -36.102 147.457 -29.3417 104.349L-28.4388 104.675C-35.1412 147.622 -26.7214 201.325 -4.97892 253.479C15.5253 302.714 45.409 343.286 71.1234 356.862Z" fill="#A7C0F5"/>
<path d="M109.24 600.13C299.807 569.142 346.143 518.886 351.433 482.189C358.179 435.47 304.137 391.727 251.303 366.337C221.811 352.171 190.923 342.696 164.333 339.668C135.716 336.41 114.903 340.817 103.949 352.338C94.612 362.333 82.2424 363.817 68.2198 356.678C19.0403 331.652 -44.2779 203.3 -32.472 103.221L-31.549 103.554C-43.2102 203.231 19.8257 330.982 68.6786 355.845C82.4877 362.885 94.1468 361.485 103.297 351.695C127.672 325.641 196.333 338.884 251.641 365.461C281.774 379.926 308.139 398.363 325.888 417.37C346.182 439.131 355.299 461.582 352.361 482.319C347.003 519.332 300.509 569.962 109.351 601.145C-82.5163 632.344 -125.255 692.561 -127.312 737.59C-127.348 738.507 -127.364 739.431 -127.379 740.356L-128.323 740.016C-128.316 739.179 -128.296 738.37 -128.249 737.547C-126.128 692.088 -83.2857 631.522 109.24 600.13Z" fill="#A4BDF5"/>
<path d="M104.757 603.323C291.834 571.826 337.111 520.485 342.123 482.985C348.911 432.312 288.564 385.367 234.751 360.554C174.674 332.803 119.01 328.666 99.3995 350.495C90.5518 360.325 78.9173 362.098 65.8023 355.648C40.7658 343.337 11.0369 301.392 -9.74446 248.836C-29.8065 198.059 -38.7143 145.835 -35.1206 102.267L-34.1976 102.6C-37.739 145.96 -28.8319 197.934 -8.83796 248.46C11.8608 300.804 41.3321 342.52 66.2154 354.753C79.1643 361.098 90.0938 359.457 98.7544 349.831C121.956 324.012 185.763 336.822 235.204 359.674C266.735 374.348 294.702 393.499 313.955 413.682C335.967 436.902 346.045 460.901 343.043 483.135C337.983 520.958 292.622 572.723 104.909 604.285C-79.2134 635.258 -123.23 694.743 -126.825 740.578L-127.748 740.246C-123.997 694.103 -79.6168 634.364 104.757 603.323Z" fill="#BED0F8"/>
<path d="M100.374 606.552C284.077 574.542 328.28 522.089 332.996 483.711C339.326 432.487 280.324 382.125 219.08 354.906C172.412 334.234 115.967 324.213 94.9948 348.499C86.6296 358.186 75.6501 360.217 63.2365 354.338C38.5697 342.636 9.17098 300.153 -11.6273 246.071C-30.8557 196.252 -39.9141 144.949 -37.6289 101.363L-36.7059 101.696C-38.926 145.101 -29.9213 196.112 -10.7698 245.767C9.96593 299.645 39.1673 341.922 63.7482 353.547C75.8882 359.305 86.1828 357.413 94.3536 347.951C115.638 323.3 172.57 333.293 219.544 354.121C281.136 381.443 340.421 432.156 334.059 483.844C329.202 522.489 284.926 575.393 100.641 607.51C-72.6681 637.73 -119.374 694.862 -125.818 740.805L-126.721 740.48C-120.248 694.207 -73.2337 636.846 100.374 606.552Z" fill="#B5CAF7"/>
<path d="M96.0411 609.957C276.477 577.451 319.638 523.737 324.038 484.474C330.221 429.569 266.186 376.123 204.066 349.7C151.949 327.54 107.38 326.335 90.5396 346.644C82.5622 356.199 72.212 358.434 60.527 353.112C36.2886 342.109 7.20883 298.992 -13.6137 243.404C-31.843 194.399 -41.0591 144.037 -39.9364 100.532L-38.9532 100.886C-40.0309 144.204 -30.9157 194.28 -12.6525 243.002C8.02718 298.357 36.9312 341.207 60.9417 352.15C72.3731 357.358 82.0931 355.236 89.8142 345.952C106.933 325.312 151.93 326.399 204.447 348.704C266.861 375.255 331.218 429.066 324.997 484.457C320.528 524.035 277.244 578.09 96.2527 610.691C-67.0393 640.167 -115.696 695.099 -124.766 741.093L-125.669 740.768C-116.473 694.614 -67.5351 639.467 96.0411 609.957Z" fill="#8DADF2"/>
<path d="M91.8587 613.258C269.152 580.096 311.228 525.243 315.285 485.108C318.669 451.874 297.411 422.282 279.006 403.333C256.105 379.748 223.656 358.438 190.08 344.66C141.722 324.966 101.962 324.949 86.2368 344.617C78.6095 354.207 69.0724 356.577 57.8568 351.65C34.0701 341.219 5.28599 297.596 -15.4604 240.539C-32.9966 192.441 -42.1425 143.08 -42.0434 99.7722L-41.1003 100.112C-41.1399 143.192 -32.0091 192.343 -14.6069 240.121C6.0168 296.952 34.671 340.369 58.2169 350.714C68.9653 355.427 78.1492 353.157 85.5845 343.974C101.469 323.864 141.655 323.83 190.42 343.716C224.146 357.458 256.672 378.932 279.679 402.6C306.306 430 318.959 458.556 316.249 485.137C312.143 525.663 269.895 580.931 92.0453 614.188C-61.858 642.964 -111.949 695.837 -123.357 741.714L-124.24 741.396C-112.683 695.232 -62.4035 642.087 91.8587 613.258Z" fill="#BED0F8"/>
<path d="M87.7407 616.696C261.986 582.935 303.007 526.793 306.731 485.631C309.902 450.598 287.479 419.519 268.246 399.66C242.277 373.639 211.206 353.276 176.986 339.851C132.117 322.366 96.6239 323.343 81.9977 342.477C74.7236 351.968 65.6681 354.511 55.0552 350.051C31.7603 340.205 3.31364 296.023 -17.404 237.502C-34.048 190.452 -43.1494 142.037 -43.9495 99.0855L-42.9663 99.4398C-42.1428 142.263 -33.0405 190.361 -16.4719 237.18C4.08686 295.576 32.3595 339.423 55.4209 349.162C65.5723 353.456 74.2745 351.012 81.2289 341.905C96.1692 322.34 132.054 321.346 177.324 338.975C211.676 352.431 242.864 372.868 268.917 398.994C288.362 419.021 310.858 450.398 307.673 485.721C303.928 527.194 262.735 583.749 87.847 617.597C-57.269 645.706 -108.223 696.635 -121.812 742.271L-122.615 741.982C-108.932 696.085 -57.7615 644.871 87.7407 616.696Z" fill="#93B1F3"/>
<path d="M83.6883 620.203C255.007 585.818 294.954 528.314 298.319 486.138C301.235 449.357 277.914 416.934 257.875 396.104C231.594 369.397 199.861 348.678 164.842 335.361C123.853 320.069 91.3407 321.961 77.8403 340.299C70.9323 349.717 62.3584 352.434 52.2695 348.344C29.4263 339.069 1.43744 294.372 -19.2715 234.38C-35.1397 188.448 -44.1926 141.094 -45.7154 98.4492L-44.7522 98.7963C-43.1772 141.233 -34.1578 188.303 -18.3883 234.131C2.14491 293.856 29.9966 338.367 52.6062 347.536C62.1806 351.417 70.4342 348.834 77.0699 339.794C90.8225 321.071 123.763 319.061 165.126 334.511C200.28 347.846 232.143 368.612 258.54 395.391C278.74 416.279 302.209 448.982 299.25 486.133C295.864 528.62 255.765 586.545 83.8637 621.038C-52.9916 648.495 -104.428 697.617 -119.917 742.863L-120.82 742.538C-105.219 697.105 -53.5604 647.746 83.6883 620.203Z" fill="#ACC3F6"/>
<path d="M79.7291 623.766C248.223 588.726 287.104 529.84 290.116 486.629C292.67 448.085 268.573 414.293 247.89 392.732C222.481 366.293 187.597 343.561 154.368 331.587L153.545 331.29C115.503 317.763 86.4013 320.317 73.7199 338.269C67.1234 347.641 58.9636 350.53 49.3659 346.776C27.0218 338.066 -0.689879 292.789 -21.1766 231.425C-35.7987 188.269 -44.5977 143.352 -47.3406 97.8634L-46.3775 98.2105C-43.5765 143.45 -34.7978 188.118 -20.2701 231.049C0.155742 292.141 27.6299 337.197 49.7332 345.82C58.8566 349.38 66.6559 346.611 72.9657 337.657C85.9265 319.307 115.401 316.66 153.899 330.306C189.611 343.649 221.924 364.735 248.52 392.052C269.375 413.766 293.675 447.812 290.983 486.738C288.004 530.301 248.993 589.547 79.9068 624.783C-49.2054 651.515 -100.735 698.88 -117.956 743.774L-118.859 743.449C-101.543 698.293 -49.7525 650.706 79.7291 623.766Z" fill="#8FAEF3"/>
<path d="M75.8485 627.426C241.627 591.679 279.451 531.324 281.991 486.968C283.783 455.633 268.228 420.974 238.182 389.347C211.864 361.719 176.379 338.452 143.179 327.214C108.28 315.409 81.5308 318.607 69.7336 335.994C63.5281 345.098 55.7736 348.246 46.7841 345.007L46.5033 344.905C24.6253 336.727 -2.66146 290.899 -23.0207 228.175C-36.9211 185.776 -45.5871 141.834 -48.8256 97.3283L-47.8624 97.6753C-44.5933 141.968 -35.9431 185.696 -22.1031 227.893C-1.832 290.358 25.2445 335.952 46.8689 344.016L47.1298 344.11C55.6377 347.176 62.9481 344.254 68.9503 335.462C80.9926 317.71 108.156 314.367 143.477 326.324C176.797 337.605 212.47 360.917 238.885 388.716C269.117 420.522 284.759 455.441 282.94 487.038C280.44 531.725 242.424 592.488 76.0624 628.342C-45.6234 654.598 -97.0899 700.216 -115.773 744.448L-116.676 744.122C-97.9261 699.642 -46.2708 653.752 75.8485 627.426Z" fill="#A0BBF5"/>
<path d="M72.061 631.141C235.219 594.677 271.974 532.757 274.05 487.236C275.549 454.639 259.519 418.719 228.89 386.067C201.997 357.392 166.338 334.04 133.569 323.434C101.487 313.12 76.7826 316.873 65.8276 333.747C59.8228 342.924 52.2963 346.131 43.6608 343.042C22.2907 335.341 -4.56555 289.01 -24.7589 225.008C-38.0073 183.373 -46.5378 140.379 -50.19 96.8365L-49.267 97.1691C-40.3083 210.718 8.9041 329.519 43.8386 342.108C52.0455 345.065 59.1425 342.043 64.9039 333.165C76.1312 315.913 101.203 312.02 133.726 322.492C166.678 333.097 202.468 356.586 229.453 385.385C260.246 418.21 276.363 454.456 274.886 487.243C272.762 533.087 235.902 595.422 72.1634 631.927C-42.5445 657.567 -93.5984 701.474 -113.717 745.098L-114.62 744.772C-94.2918 701.133 -43.0876 656.872 72.061 631.141Z" fill="#5383EC"/>
<path d="M68.319 634.919C229.093 597.709 264.647 534.154 266.272 487.427C267.444 453.601 251.024 416.498 219.893 382.848C192.531 353.209 156.924 329.65 124.716 319.813C94.7117 310.656 72.454 314.792 62.0507 331.456C56.2666 340.712 49.1302 343.97 40.8526 341.145L40.5316 341.03C19.6832 333.517 -6.60367 286.802 -26.5156 221.767C-39.1157 180.942 -47.4728 138.924 -51.4543 96.3811L-50.4711 96.7354C-46.5196 139.045 -38.225 180.834 -25.7183 221.442C-5.96763 286.169 20.1492 332.664 40.7367 340.083L41.0377 340.191C48.8465 342.869 55.6152 339.752 61.1326 330.921C71.8155 313.859 94.4208 309.576 124.874 318.872C157.31 328.769 193.054 352.513 220.564 382.182C251.792 416.003 268.34 453.38 267.176 487.435C265.549 534.479 229.749 598.467 68.4856 635.841C-39.5486 660.892 -90.0528 703.274 -111.194 746.211L-112.097 745.886C-90.8889 702.7 -40.2033 660.067 68.319 634.919Z" fill="#6B94EF"/>
<path d="M64.6833 638.78C222.988 600.748 257.536 535.515 258.641 487.467C260.446 408.598 175.59 333.405 116.295 316.256C88.5365 308.226 67.8745 312.779 58.1353 329.047C52.5117 338.361 45.7654 341.668 37.8329 339.082L37.2911 338.887C16.9645 331.562 -8.83335 284.433 -28.4052 218.455C-40.3292 178.482 -48.4364 137.468 -52.618 95.9616L-51.6347 96.3159C-47.4446 137.605 -39.3757 178.406 -27.5349 218.179C-7.94366 283.915 17.5436 330.772 37.5693 337.989L38.091 338.177C45.5475 340.637 51.9823 337.376 57.2829 328.581C67.3251 311.787 88.3186 307.195 116.473 315.322C176.009 332.558 261.266 408.145 259.437 487.459C258.331 535.825 223.622 601.566 64.7985 639.592C-37.0028 664.146 -86.7315 704.879 -108.788 746.897L-109.711 746.564C-87.449 704.416 -37.5973 663.342 64.6833 638.78Z" fill="#94B2F3"/>
<path d="M61.1061 642.73C217.137 603.834 250.569 536.792 251.14 487.395C251.557 451.256 234.397 411.867 202.829 376.472C175.288 345.567 139.182 321.193 108.639 312.839C82.8733 305.823 63.6538 310.714 54.4822 326.665C49.1573 335.905 42.6156 339.399 35.0154 337.023L34.293 336.763C14.4881 329.626 -10.6803 282.135 -30.0599 215.182C-41.3909 176.074 -49.3012 136.052 -53.7015 95.5711L-52.7182 95.9255C-48.318 136.205 -40.4347 176.026 -29.1566 214.941C-9.85797 281.614 15.06 328.857 34.5913 335.872L35.2936 336.125C42.405 338.348 48.599 335 53.6572 326.186C63.0609 309.842 82.6827 304.779 108.877 311.927C139.608 320.325 175.88 344.805 203.533 375.841C235.258 411.428 252.501 451.029 252.091 487.397C251.527 537.092 217.969 604.609 61.3473 643.633C-34.5607 667.498 -83.2564 706.811 -106.137 748.033L-106.98 747.73C-101.75 738.338 -95.5357 729.53 -88.4425 721.454C-57.3813 686.219 -7.08665 659.708 61.1061 642.73Z" fill="#A9C1F6"/>
<path d="M57.6018 646.729C211.509 606.931 243.786 538 243.791 487.151C243.783 449.928 226.418 409.536 194.702 373.293C167.004 341.629 131.251 317.155 101.42 309.467C77.4558 303.304 59.4965 308.535 50.7778 324.173C45.648 333.438 39.347 337.019 32.079 334.854L31.2162 334.543C11.9129 327.587 -12.7005 279.751 -31.7948 211.881C-42.5355 173.666 -50.1967 134.651 -54.7048 95.2097L-53.7015 95.5712C-49.1701 134.818 -41.5158 173.641 -30.8112 211.668C-11.818 279.252 12.5651 326.846 31.5674 333.694L32.4101 333.998C39.2295 336.024 45.1426 332.576 50.0186 323.763C58.8964 307.684 77.2307 302.292 101.631 308.568C131.677 316.288 167.589 340.887 195.418 372.69C227.191 409.089 244.747 449.709 244.723 487.146C244.736 538.32 212.313 607.72 57.843 647.633C-32.1821 670.964 -79.9563 708.726 -103.352 748.924L-104.174 748.627C-99.864 741.297 -94.9584 734.333 -89.5074 727.807C-59.3295 691.437 -9.79876 664.151 57.6018 646.729Z" fill="#B2C7F6"/>
<path d="M54.1762 650.825C206.042 610.087 237.254 539.139 236.541 486.761C235.468 401.66 151.082 319.879 94.632 306.159C78.829 302.324 57.747 301.939 47.2685 321.706C42.361 330.983 36.3137 334.679 29.3049 332.674C28.9701 332.577 28.6417 332.459 28.3216 332.32C9.5401 325.552 -14.5385 277.365 -33.349 208.644C-43.5012 171.329 -50.9071 133.319 -55.5074 94.9203L-54.5041 95.2819C-49.8863 133.5 -42.492 171.33 -32.38 208.472C-13.3083 278.103 11.0408 326.546 29.7235 331.827C36.2435 333.678 41.9158 330.142 46.5967 321.305C55.0032 305.464 72.1977 299.776 95.0378 305.284C151.787 318.93 236.644 401.29 237.66 486.801C238.298 539.515 207.034 610.921 54.598 651.793C-30.2626 674.445 -76.7397 710.747 -100.739 749.978L-101.502 749.704C-98.271 744.439 -94.7395 739.366 -90.9249 734.508C-61.3228 696.843 -12.5069 668.709 54.1762 650.825Z" fill="#759CF0"/>
<path d="M50.8451 654.909C200.818 613.195 230.754 540.063 229.567 486.108C228.644 446.832 210.779 404.49 179.265 366.869C151.425 333.838 116.605 309.292 88.2756 302.848C73.4597 299.482 53.7583 299.482 43.8554 319.161C39.1156 328.476 33.3019 332.278 26.5523 330.435C8.14567 325.458 -16.0097 276.54 -34.8721 205.51C-44.5381 169.069 -51.7273 132.016 -56.3904 94.6024L-55.3871 94.9639C-50.7522 132.164 -43.6166 169.008 -34.029 205.247C-15.6018 274.464 7.69337 322.687 25.6121 329.144C25.959 329.292 26.314 329.42 26.6756 329.527C32.8762 331.195 38.3751 327.574 42.881 318.719C50.8845 302.801 66.7248 297.032 88.4389 301.954C116.936 308.436 152.023 333.123 179.818 366.342C211.543 404.13 229.403 446.674 230.341 486.16C231.641 540.496 201.544 614.137 51.0229 655.926C-28.3995 678.02 -73.5795 712.862 -97.9301 750.991L-98.5722 750.76C-96.5388 747.591 -94.3988 744.484 -92.1523 741.438C-63.3267 702.403 -15.2313 673.375 50.8451 654.909Z" fill="#91B0F3"/>
<path d="M23.9192 327.173C29.9135 328.721 35.1588 324.986 39.4969 316.093C47.1657 300.349 62.0339 294.321 82.4671 298.645C110.203 304.535 144.662 329.201 172.415 363.039C203.924 401.43 221.952 444.828 223.42 485.298C224.727 522.059 212.498 555.053 187.07 583.336C157.62 616.113 110.741 642.018 47.7963 660.161C-26.7001 681.671 -70.5156 715.054 -95.0246 751.924L-95.6868 751.686C-94.979 750.603 -94.2585 749.547 -93.5106 748.478C-65.3756 708.152 -17.9188 678.19 47.4748 659.229C195.741 616.4 224.448 541.079 222.432 485.396C219.182 395.769 135.183 310.838 82.2547 299.612C62.292 295.367 47.7986 301.235 40.3292 316.552C35.7572 325.905 30.157 329.806 23.6594 328.145L22.4956 327.726C4.71732 321.319 -18.2749 272.571 -36.4826 202.366C-45.6204 166.81 -52.5439 130.721 -57.2131 94.3057L-56.2098 94.6673C-51.5611 130.877 -44.6618 166.762 -35.5521 202.112C-17.0239 273.566 6.2773 322.653 23.9192 327.173Z" fill="#BFD1F8"/>
<path d="M44.3195 663.58C190.844 619.671 218.316 541.863 215.49 484.278C211.134 391.803 128.184 306.478 76.5469 296.262C57.7519 292.551 44.0701 298.621 36.9829 313.758C32.5714 323.169 27.1646 327.163 20.8934 325.629C20.4749 325.513 20.0658 325.365 19.6694 325.188C2.4128 318.969 -20.0624 270.044 -37.9366 199.166C-46.6354 164.533 -53.3328 129.428 -57.9957 94.0237L-57.0125 94.378C-52.377 129.637 -45.719 164.599 -37.0712 199.092C-19.249 269.611 2.94132 318.32 19.7965 324.394C20.1833 324.558 20.5785 324.7 20.9804 324.821C26.7484 326.242 31.8003 322.415 35.998 313.472C43.2701 297.947 57.3212 291.67 76.6356 295.387C103.555 300.711 137.441 325.396 165.011 359.804C196.157 398.699 214.408 442.926 216.386 484.306C218.529 521.253 206.07 557.565 181.696 585.414C152.902 619.266 106.721 645.877 44.4716 664.542C-25.2939 685.444 -67.5369 717.42 -92.2042 753.031L-92.8263 752.807C-65.0027 712.527 -18.9146 682.526 44.3195 663.58Z" fill="#B8CCF7"/>
<path d="M41.1829 668.007C186.185 622.913 212.27 542.474 208.767 482.99C206.245 440.915 187.935 396.099 157.261 356.966C130.083 322.223 97.0032 297.692 71.162 292.961C53.4217 289.721 40.4566 296.004 33.6246 311.187C29.3737 320.656 24.2005 324.757 18.0881 323.348C17.6359 323.22 17.1934 323.061 16.7637 322.871C-0.191858 316.76 -21.5693 268.753 -39.3875 196.398C-47.6514 162.552 -54.1107 128.29 -58.738 93.7563L-57.7347 94.1179C-53.1136 128.45 -46.6812 162.512 -38.4642 196.164C-20.5226 268.994 1.80304 318.523 18.3422 322.328C23.9112 323.609 28.7624 319.71 32.7996 310.709C39.8108 295.09 53.109 288.701 71.2724 292.026C97.3962 296.79 130.615 321.439 157.957 356.355C188.761 395.693 207.116 440.639 209.653 482.923C212.457 520.641 200.659 557.999 176.699 587.265C148.559 622.26 103.025 649.716 41.384 668.896C-23.7982 689.158 -64.5892 719.685 -89.065 754.072L-89.6068 753.877C-62.2103 715.348 -18.2821 686.497 41.1829 668.007Z" fill="#9DB8F4"/>
<path d="M38.0846 672.515C181.747 626.168 206.536 542.971 202.073 481.371C198.993 438.392 180.58 393.04 150.288 353.478C123.397 318.317 91.0243 293.836 66.0138 289.632C49.1859 286.879 36.8334 293.224 30.4293 308.29C26.3117 317.829 21.2644 322.02 15.3984 320.746C14.9396 320.615 14.4903 320.454 14.054 320.261C-2.39997 314.332 -23.1689 266.271 -40.7075 193.518C-48.4395 161.247 -54.7458 127.221 -59.4114 93.4229L-58.4081 93.7845C-53.7867 127.453 -47.481 161.229 -39.8517 193.282C-22.6849 264.676 -1.61455 313.662 14.2976 319.396C14.719 319.548 15.1404 319.7 15.5417 319.845C20.8843 320.999 25.6297 317.016 29.4863 307.95C36.157 292.458 48.8075 285.79 66.0969 288.709C91.4229 292.982 123.934 317.58 150.969 352.907C181.441 392.602 199.955 438.24 203.026 481.306C205.945 521.71 195.445 557.958 171.844 589.099C144.341 625.344 99.4257 653.727 38.3731 673.413C-22.6794 693.1 -61.2479 722.681 -85.2887 755.546L-86.5328 755.098C-59.5071 718.228 -17.6915 690.52 38.0846 672.515Z" fill="#D7E2FB"/>
<path d="M35.0648 677.12C177.431 629.398 200.875 543.267 195.434 479.409C191.723 435.727 173.318 389.788 143.453 349.858C116.92 314.395 85.348 290.021 61.1184 286.166C45.1879 283.692 33.4758 290.335 27.2757 305.339C23.2912 314.948 18.4101 319.245 12.7576 318.07C-11.1995 313.27 -43.8972 209.856 -60.1628 93.2428L-59.1194 93.6188C-54.5088 126.625 -48.4477 159.633 -41.1214 190.829C-24.2767 262.424 -3.7112 311.364 11.6191 316.889C12.0222 317.068 12.438 317.218 12.8631 317.337C18.0324 318.406 22.5442 314.316 26.3149 305.174C32.7215 289.723 44.7757 282.885 61.2039 285.426C85.7049 289.22 117.496 313.741 144.2 349.356C174.112 389.348 192.652 435.54 196.365 479.405C199.906 521.167 190.044 558.665 167.051 590.888C140.204 628.457 95.8996 657.786 35.3316 678.078C-21.3857 697.059 -58.4146 725.199 -82.1842 756.62L-83.3881 756.186C-56.8386 721.14 -17.1299 694.623 35.0648 677.12Z" fill="#ACC3F6"/>
<path d="M32.1037 681.814C173.386 632.635 195.368 543.324 188.885 477.072C184.61 433.322 165.607 385.581 136.749 346.127C110.607 310.396 79.8285 286.15 56.3949 282.854C41.2855 280.743 30.0694 287.52 24.119 302.523C20.2605 312.223 15.5327 316.598 10.0246 315.588C-5.55565 312.582 -25.9961 264.05 -43.263 188.719C-50.2781 158.044 -56.1845 125.613 -60.7647 93.026L-59.7012 93.4092C-43.6252 206.71 -13.3364 306.24 8.85636 314.237C9.27955 314.425 9.71537 314.582 10.1606 314.708C15.1437 315.664 19.5295 311.484 23.167 302.27C29.3039 286.813 40.8018 279.82 56.4491 282.012C80.178 285.369 111.163 309.735 137.442 345.651C166.405 385.256 185.448 433.261 189.829 477.095C194.044 520.324 184.795 559.201 162.43 592.511C136.27 631.508 92.5142 661.896 32.4035 682.807C-20.2226 701.13 -55.6229 727.77 -79.0483 757.795L-80.1519 757.398C-54.2317 724.098 -16.6501 698.766 32.1037 681.814Z" fill="#8FAEF3"/>
<path d="M29.2011 686.597C176.934 633.234 188.57 530.667 182.361 474.29C177.473 429.911 158.44 381.75 130.191 342.244C104.572 306.384 74.5239 282.31 51.9371 279.433C37.4826 277.581 26.8083 284.553 21.1003 299.575C17.3879 309.374 12.8061 313.846 7.50753 312.821C-14.4735 308.892 -44.9067 209.197 -61.447 92.7801L-60.3835 93.1633C-55.8672 125.047 -50.1707 156.676 -43.4699 186.399C-27.1401 258.92 -8.2445 306.328 6.24299 311.549C6.66218 311.746 7.09882 311.903 7.54725 312.019C12.357 312.891 16.5967 308.612 20.1283 299.315C26.0027 283.832 37.019 276.665 51.9584 278.556C74.8004 281.48 105.047 305.694 130.856 341.781C159.236 381.493 178.347 429.75 183.265 474.298C188.182 518.847 179.671 559.327 157.929 593.929C132.426 634.5 89.2234 665.995 29.4809 687.582C-19.242 705.203 -52.9822 730.445 -75.898 758.93L-76.9213 758.562C-51.7068 727.094 -16.1792 702.995 29.2011 686.597Z" fill="#B7CBF7"/>
<path d="M26.3643 691.449C173.21 636.269 183.122 529.68 175.875 471.023C170.353 426.075 151.307 377.638 123.624 338.131C98.4315 302.221 69.3832 278.394 47.6029 275.92C33.7962 274.347 23.5834 281.486 18.1105 296.547C14.5442 306.444 10.0483 310.993 4.87405 310.126C4.41491 309.997 3.96565 309.835 3.52968 309.642C-10.7772 304.486 -29.3317 257.2 -45.3405 184.795C-51.8087 155.496 -57.3985 124.201 -61.9527 92.4844L-60.9895 92.8315C-56.4706 124.331 -50.9432 155.422 -44.5046 184.552C-28.5897 256.651 -10.3385 303.646 3.7075 308.708C4.13787 308.861 4.57922 308.983 5.02784 309.07C9.6843 309.863 13.8197 305.434 17.2108 296.087C22.8099 280.549 33.4049 273.231 47.7094 274.87C69.712 277.356 99.1199 301.38 124.455 337.523C152.21 377.146 171.313 425.741 176.879 470.818C182.607 517.269 174.806 559.048 153.693 594.988C128.878 637.236 86.1782 669.978 26.7493 692.268C-18.2452 709.168 -50.1802 732.861 -72.555 759.908L-73.5382 759.554C-51.14 732.379 -18.9778 708.496 26.3643 691.449Z" fill="#B2C7F6"/>
<path d="M23.5845 696.458C169.874 639.422 177.743 528.376 169.415 467.244C163.195 421.908 144.188 373.235 117.176 333.879C92.5555 298.017 64.2769 274.444 43.3651 272.329C30.2261 271.042 20.3745 278.311 15.0895 293.417C11.5729 303.49 7.29208 308.071 2.25111 307.275C-11.8508 305.074 -30.0253 258.81 -46.39 183.555C-52.6473 154.74 -58.1048 123.833 -62.5908 92.3678L-61.5674 92.7366C-45.4027 205.162 -18.2895 299.034 1.10127 305.999C1.51075 306.182 1.93331 306.335 2.36543 306.455C6.87583 307.15 10.8363 302.703 14.1705 293.199C19.6018 277.624 29.7224 270.112 43.4193 271.487C64.6009 273.608 93.1515 297.37 117.922 333.445C145.005 372.917 164.098 421.666 170.314 467.204C176.883 515.41 169.852 558.828 149.392 596.227C125.295 640.322 83.0687 674.391 23.8915 697.43C-17.5223 713.579 -47.701 735.796 -69.4185 761.333L-70.2211 761.044C-46.6859 733.168 -15.3772 711.653 23.5845 696.458Z" fill="#A6BFF5"/>
</g>
</g>
<defs>
<clipPath id="clip0_211_720">
<rect width="1009.97" height="631.493" fill="white" transform="matrix(-0.940779 -0.339021 -0.339021 0.940779 631.243 342.399)"/>
</clipPath>
</defs>
</svg>
