<svg width="350" height="511" viewBox="0 0 350 511" fill="none" xmlns="http://www.w3.org/2000/svg">
<g opacity="0.4" clip-path="url(#clip0_374_250)">
<mask id="mask0_374_250" style="mask-type:luminance" maskUnits="userSpaceOnUse" x="0" y="0" width="635" height="511">
<path d="M517.707 -5.53281e-05L0 186.562L116.65 510.264L634.357 323.702L517.707 -5.53281e-05Z" fill="white"/>
</mask>
<g mask="url(#mask0_374_250)">
<path d="M414.666 383.159C413.216 368.852 401.608 356.179 380.1 345.516C355.5 333.298 318 323.776 268.612 317.228C152.108 301.758 123.356 277.504 119.72 259.907C116.965 246.503 127.864 231.737 150.433 218.302C187.912 195.985 252.266 181.816 271.147 197.701C278.555 203.93 288.6 203.424 300.256 196.208C315.402 186.82 331.364 166.807 342.015 143.95C354.064 118.117 357.913 92.4955 352.899 71.8971C351.977 68.076 350.704 64.3481 349.096 60.7612L348.615 60.9345C350.225 64.5117 351.5 68.2312 352.421 72.0447C363.612 118.013 328.879 177.873 299.992 195.784C288.594 202.857 278.759 203.436 271.527 197.317C262.839 190.005 243.482 188.429 218.414 192.977C194.547 197.326 169.053 206.624 150.209 217.852C127.462 231.412 116.488 246.378 119.285 260.002C122.937 277.779 151.8 302.24 268.621 317.731C385.022 333.188 412.014 361.883 414.16 383.23C414.863 390.392 412.859 397.787 408.757 404.95L409.643 404.631C413.294 398.001 415.43 390.731 414.666 383.159Z" fill="#B2C7F6"/>
<path d="M300.81 195.724C290.24 202.078 281.144 202.304 274.351 196.447C256.213 180.566 196.743 193.618 159.537 215.046C134.372 229.54 122.118 245.684 125.018 260.519C128.56 278.644 156.836 303.564 271.412 319.271C385.689 334.937 412.061 364.275 414.083 386.1C414.551 392.362 413.411 398.639 410.771 404.335L411.416 404.103C413.932 398.465 415.005 392.29 414.539 386.133C412.524 364.121 386.085 334.597 271.453 318.836C157.208 303.158 129.04 278.434 125.527 260.459C122.643 245.803 134.828 229.845 159.794 215.485C180.017 204.181 201.968 196.295 224.761 192.147C247.987 188.041 265.903 189.766 274.004 196.82C280.933 202.887 290.291 202.666 301.086 196.181C316.09 187.153 332.168 166.776 343.032 143.002C355.278 116.208 359.252 89.6645 354.226 68.2795C353.554 65.4128 352.695 62.5933 351.654 59.8389L351.184 60.0084C352.204 62.7455 353.051 65.544 353.721 68.3872C364.971 116.126 329.402 178.537 300.81 195.724Z" fill="#ABC2F6"/>
<path d="M274.151 320.36C162.111 304.456 134.559 279.214 131.118 260.891C128.209 245.206 142.107 227.556 169.25 212.448C188.494 201.884 209.339 194.547 230.958 190.73C252.805 187.046 269.08 188.881 276.768 195.885C283.26 201.801 291.992 201.83 302.019 195.993C316.884 187.299 333.004 166.66 344.032 141.937C356.454 114.19 360.544 86.7026 355.503 64.5566C355.091 62.7278 354.594 60.8679 354.005 58.9918L353.523 59.1652C354.082 60.9537 354.582 62.7878 354.999 64.6643C366.04 113.368 330.627 178.713 301.747 195.547C291.882 201.252 283.408 201.253 277.084 195.462C269.285 188.387 252.846 186.475 230.845 190.177C209.169 194.007 188.269 201.367 168.977 211.965C156.307 219.003 146.12 226.9 139.517 234.767C132.047 243.724 129.04 252.519 130.588 260.995C134.03 279.528 161.703 304.937 274.042 320.881C386.382 336.825 412.067 366.794 413.919 389.075C414.29 394.092 413.639 399.132 412.007 403.89L412.619 403.669C414.166 398.978 414.771 394.027 414.398 389.101C412.527 366.529 386.717 336.383 274.151 320.36Z" fill="#C3D4F8"/>
<path d="M276.793 321.966C166.898 305.845 139.944 280.103 136.626 261.365C133.624 244.293 148.982 225.313 178.769 209.314C213.741 190.533 263.676 179.953 279.458 194.953C285.554 200.727 293.698 200.944 303.056 195.718C317.78 187.421 333.875 166.371 345.034 140.81C357.424 112.531 361.714 83.4016 356.78 60.7971C356.593 59.9374 356.396 59.0816 356.169 58.2118L355.677 58.3891C355.889 59.2151 356.093 60.056 356.275 60.9048C361.173 83.3741 356.914 112.418 344.584 140.589C333.434 166.073 317.429 187.029 302.81 195.275C293.682 200.418 285.732 200.194 279.816 194.577C272.498 187.636 257.269 185.586 236.969 188.798C216.529 192.296 196.788 199.072 178.508 208.865C148.496 224.994 133.065 244.148 136.106 261.466C139.425 280.377 166.508 306.307 276.684 322.487C386.86 338.667 412.046 369.273 413.718 392.151C413.989 396.002 413.663 399.871 412.75 403.622L413.33 403.413C414.185 399.731 414.485 395.94 414.219 392.168C412.56 369.088 387.345 338.196 276.793 321.966Z" fill="#5383EC"/>
<path d="M279.388 323.614C171.575 307.237 145.2 280.977 142.008 261.836C138.98 243.525 156.307 222.673 188.304 206.088C221.749 188.759 267.125 179.204 282.111 193.985C287.85 199.628 295.439 200.119 304.198 195.356C318.732 187.424 334.775 166.022 346.093 139.6C358.466 110.623 362.844 80.7451 358.137 57.5026L357.645 57.6799C362.28 80.8248 357.946 110.551 345.621 139.387C334.337 165.698 318.392 187.028 303.948 194.902C295.44 199.538 288.018 199.098 282.484 193.615C267.318 178.678 221.718 188.227 188.065 205.631C173.296 213.289 161.177 222.166 153.032 231.306C143.741 241.722 139.859 252.032 141.496 261.921C144.743 281.216 171.189 307.71 279.312 324.123C387.435 340.536 412.076 371.895 413.574 395.28C413.742 397.989 413.625 400.707 413.223 403.39L413.769 403.193C414.148 400.565 414.257 397.904 414.095 395.253C412.589 371.673 387.994 340.1 279.388 323.614Z" fill="#ABC2F6"/>
<path d="M305.19 194.442C297.248 198.626 290.292 198.006 285.074 192.645C278.699 186.094 265.8 183.723 248.735 185.967C232.925 188.031 214.256 194.018 197.515 202.374C181.812 210.22 168.695 219.581 159.731 229.398C149.482 240.618 145.114 251.67 146.786 262.376C149.83 282.102 175.749 309.119 281.852 325.791C388.233 342.511 412.123 374.56 413.428 398.509C413.516 400.114 413.506 401.723 413.398 403.327L413.922 403.138C414.019 401.588 414.028 400.033 413.949 398.482C412.657 374.33 388.686 342.088 281.928 325.281C176.138 308.658 150.32 281.851 147.287 262.294C145.653 251.76 149.969 240.838 160.104 229.746C169.035 219.977 182.063 210.71 197.743 202.835C229.674 186.892 270.928 178.859 284.697 193.003C290.103 198.544 297.269 199.2 305.425 194.889C319.763 187.337 335.744 165.661 347.135 138.31C359.077 109.748 363.614 80.3443 359.93 56.8566L359.438 57.0339C363.09 80.4341 358.503 109.695 346.656 138.112C335.484 164.939 319.201 187.045 305.19 194.442Z" fill="#A7C0F5"/>
<path d="M284.422 326.99C180.588 310.106 155.341 282.723 152.459 262.728C148.783 237.273 178.229 213.439 207.017 199.604C223.086 191.886 239.915 186.723 254.404 185.074C269.996 183.298 281.336 185.7 287.304 191.977C292.392 197.423 299.132 198.232 306.772 194.341C333.569 180.706 368.068 110.771 361.636 56.2418L361.133 56.423C367.487 110.733 333.141 180.341 306.522 193.888C298.998 197.724 292.646 196.961 287.66 191.627C274.379 177.43 236.968 184.646 206.832 199.127C190.414 207.008 176.048 217.054 166.377 227.411C155.32 239.267 150.353 251.5 151.954 262.799C154.873 282.966 180.206 310.553 284.361 327.543C388.903 344.543 412.19 377.353 413.311 401.888C413.331 402.387 413.339 402.891 413.348 403.394L413.862 403.209C413.858 402.753 413.847 402.312 413.822 401.864C412.666 377.095 389.323 344.095 284.422 326.99Z" fill="#A4BDF5"/>
<path d="M286.864 328.73C184.932 311.569 160.263 283.594 157.532 263.162C153.833 235.552 186.714 209.973 216.035 196.453C248.769 181.333 279.099 179.079 289.784 190.973C294.604 196.329 300.944 197.295 308.09 193.78C321.731 187.072 337.929 164.218 349.252 135.582C360.184 107.915 365.037 79.4605 363.079 55.7218L362.576 55.903C364.506 79.5284 359.653 107.847 348.759 135.377C337.48 163.898 321.423 186.628 307.865 193.293C300.809 196.75 294.854 195.856 290.135 190.611C277.493 176.543 242.727 183.523 215.788 195.974C198.608 203.969 183.37 214.404 172.88 225.401C160.886 238.053 155.395 251.129 157.03 263.244C159.787 283.852 184.503 312.057 286.782 329.254C387.104 346.13 411.087 378.541 413.046 403.516L413.548 403.335C411.505 378.193 387.323 345.643 286.864 328.73Z" fill="#BED0F8"/>
<path d="M289.253 330.489C189.159 313.049 165.074 284.468 162.505 263.557C159.056 235.647 191.204 208.207 224.574 193.376C250.001 182.112 280.757 176.652 292.184 189.885C296.741 195.163 302.724 196.27 309.488 193.067C322.928 186.691 338.946 163.543 350.278 134.076C360.755 106.931 365.691 78.9779 364.446 55.2294L363.943 55.4106C365.152 79.0607 360.246 106.855 349.811 133.91C338.513 163.266 322.602 186.301 309.209 192.636C302.594 195.773 296.985 194.742 292.533 189.586C280.936 176.155 249.915 181.6 224.321 192.949C190.761 207.835 158.459 235.467 161.925 263.63C164.572 284.686 188.696 313.512 289.107 331.011C383.537 347.478 408.986 378.607 412.497 403.639L412.989 403.462C409.462 378.25 383.846 346.996 289.253 330.489Z" fill="#B5CAF7"/>
<path d="M291.614 332.345C193.3 314.633 169.783 285.367 167.386 263.973C164.017 234.057 198.907 204.937 232.755 190.54C261.151 178.465 285.435 177.809 294.611 188.875C298.958 194.081 304.597 195.298 310.964 192.399C324.171 186.404 340.015 162.91 351.361 132.623C361.293 105.921 366.315 78.4812 365.703 54.7763L365.167 54.9694C365.754 78.5718 360.788 105.856 350.837 132.404C339.569 162.564 323.82 185.912 310.738 191.874C304.509 194.712 299.213 193.556 295.006 188.497C285.679 177.251 261.162 177.844 232.547 189.997C198.539 204.464 163.473 233.784 166.863 263.964C169.298 285.529 192.882 314.982 291.498 332.745C380.47 348.805 406.982 378.736 411.924 403.797L412.416 403.619C407.405 378.472 380.741 348.424 291.614 332.345Z" fill="#8DADF2"/>
<path d="M293.892 334.144C197.291 316.075 174.365 286.187 172.155 264.319C170.311 246.211 181.894 230.087 191.922 219.763C204.4 206.912 222.08 195.301 240.375 187.793C266.723 177.063 288.387 177.054 296.955 187.77C301.111 192.995 306.308 194.286 312.419 191.602C325.379 185.918 341.063 162.15 352.367 131.061C361.922 104.855 366.905 77.9594 366.851 54.3625L366.337 54.5477C366.359 78.0203 361.384 104.801 351.902 130.834C340.665 161.799 325.052 185.456 312.223 191.092C306.366 193.66 301.362 192.423 297.311 187.42C288.656 176.463 266.76 176.444 240.19 187.279C221.814 194.766 204.091 206.467 191.556 219.363C177.047 234.292 170.153 249.852 171.629 264.335C173.867 286.416 196.887 316.529 293.791 334.65C377.647 350.329 404.94 379.138 411.156 404.135L411.637 403.962C405.34 378.808 377.945 349.851 293.892 334.144Z" fill="#BED0F8"/>
<path d="M296.136 336.017C201.196 317.621 178.845 287.032 176.816 264.604C175.088 245.515 187.305 228.582 197.785 217.761C211.935 203.583 228.864 192.488 247.51 185.173C271.957 175.646 291.296 176.179 299.265 186.604C303.229 191.775 308.163 193.161 313.945 190.731C326.638 185.366 342.138 161.293 353.426 129.407C362.495 103.771 367.454 77.391 367.89 53.9883L367.354 54.1813C366.905 77.5145 361.946 103.721 352.918 129.232C341.716 161.049 326.311 184.94 313.746 190.247C308.215 192.586 303.473 191.254 299.684 186.293C291.544 175.632 271.991 175.09 247.325 184.696C228.608 192.028 211.615 203.163 197.419 217.398C186.825 228.31 174.567 245.406 176.302 264.653C178.343 287.25 200.788 318.065 296.078 336.507C375.147 351.823 402.91 379.573 410.314 404.438L410.752 404.281C403.296 379.273 375.415 351.368 296.136 336.017Z" fill="#93B1F3"/>
<path d="M298.344 337.928C204.998 319.192 183.232 287.861 181.399 264.88C179.81 244.839 192.517 227.173 203.436 215.823C217.755 201.272 235.045 189.983 254.126 182.727C276.459 174.395 294.175 175.426 301.53 185.417C305.294 190.549 309.966 192.029 315.463 189.801C327.91 184.747 343.16 160.393 354.443 127.706C363.089 102.679 368.022 76.8772 368.852 53.6416L368.327 53.8307C367.469 76.953 362.554 102.6 353.962 127.57C342.774 160.112 327.599 184.365 315.28 189.36C310.063 191.475 305.566 190.068 301.95 185.142C294.457 174.941 276.509 173.845 253.972 182.264C234.817 189.529 217.456 200.844 203.074 215.435C192.067 226.816 179.28 244.635 180.892 264.877C182.737 288.027 204.585 319.588 298.249 338.382C372.816 353.343 400.842 380.108 409.282 404.761L409.774 404.584C401.273 379.829 373.126 352.935 298.344 337.928Z" fill="#ACC3F6"/>
<path d="M300.501 339.869C208.695 320.776 187.51 288.692 185.869 265.148C184.477 244.146 197.607 225.734 208.876 213.986C222.721 199.581 241.728 187.195 259.833 180.67L260.282 180.509C281.01 173.138 296.866 174.53 303.776 184.311C307.37 189.418 311.816 190.992 317.045 188.946C329.22 184.201 344.319 159.53 355.481 126.096C363.449 102.581 368.243 78.1073 369.737 53.3224L369.213 53.5115C367.686 78.1611 362.903 102.499 354.988 125.89C343.858 159.177 328.888 183.727 316.845 188.425C311.874 190.365 307.625 188.856 304.187 183.978C297.125 173.979 281.065 172.537 260.088 179.973C240.631 187.242 223.024 198.732 208.533 213.616C197.17 225.447 183.929 243.997 185.396 265.207C187.019 288.943 208.275 321.224 300.405 340.423C370.753 354.988 398.83 380.796 408.213 405.257L408.705 405.08C399.271 380.476 371.051 354.547 300.501 339.869Z" fill="#8FAEF3"/>
<path d="M302.616 341.863C212.289 322.386 191.68 289.5 190.296 265.332C189.319 248.259 197.794 229.374 214.166 212.142C228.506 197.088 247.84 184.411 265.93 178.288C284.945 171.856 299.52 173.598 305.948 183.072C309.329 188.032 313.554 189.747 318.452 187.982L318.605 187.927C330.526 183.471 345.393 158.501 356.486 124.325C364.06 101.223 368.782 77.2807 370.546 53.0309L370.022 53.22C368.24 77.3535 363.527 101.179 355.986 124.171C344.941 158.206 330.188 183.049 318.406 187.443L318.264 187.494C313.628 189.165 309.645 187.572 306.374 182.782C299.813 173.11 285.012 171.288 265.767 177.803C247.612 183.95 228.175 196.651 213.783 211.798C197.311 229.128 188.787 248.154 189.778 265.37C191.141 289.719 211.855 322.826 302.499 342.362C368.802 356.668 396.844 381.524 407.024 405.624L407.516 405.447C397.3 381.211 369.154 356.207 302.616 341.863Z" fill="#A0BBF5"/>
<path d="M304.679 343.887C215.78 324.019 195.754 290.281 194.623 265.478C193.806 247.717 202.54 228.146 219.229 210.355C233.882 194.731 253.311 182.007 271.166 176.228C288.646 170.608 302.107 172.654 308.076 181.847C311.348 186.847 315.449 188.595 320.154 186.912C331.798 182.716 346.431 157.472 357.433 122.599C364.652 99.9137 369.3 76.488 371.29 52.7629L370.787 52.9441C365.906 114.813 339.091 179.544 320.057 186.403C315.585 188.014 311.718 186.368 308.579 181.53C302.462 172.13 288.801 170.009 271.08 175.715C253.126 181.493 233.625 194.292 218.922 209.983C202.144 227.869 193.362 247.618 194.167 265.482C195.324 290.461 215.408 324.425 304.624 344.315C367.124 358.286 394.942 382.209 405.903 405.978L406.395 405.801C395.319 382.024 367.42 357.907 304.679 343.887Z" fill="#5383EC"/>
<path d="M306.718 345.946C219.118 325.671 199.746 291.042 198.86 265.583C198.222 247.152 207.168 226.935 224.131 208.601C239.04 192.452 258.44 179.615 275.989 174.255C292.338 169.266 304.465 171.52 310.134 180.599C313.285 185.643 317.174 187.417 321.684 185.879L321.859 185.815C333.218 181.722 347.541 156.269 358.39 120.833C365.256 98.5889 369.809 75.695 371.979 52.5148L371.443 52.7078C369.29 75.7608 364.77 98.5302 357.956 120.656C347.194 155.924 332.964 181.257 321.747 185.3L321.583 185.359C317.328 186.818 313.64 185.119 310.634 180.308C304.813 171.011 292.496 168.677 275.903 173.742C258.23 179.135 238.755 192.073 223.765 208.238C206.75 226.666 197.734 247.031 198.368 265.587C199.254 291.22 218.76 326.084 306.627 346.448C365.492 360.098 393.01 383.19 404.529 406.585L405.021 406.408C393.465 382.877 365.848 359.648 306.718 345.946Z" fill="#6B94EF"/>
<path d="M308.699 348.049C222.445 327.327 203.621 291.784 203.019 265.604C202.035 222.631 248.27 181.661 280.578 172.317C295.703 167.942 306.961 170.422 312.267 179.286C315.331 184.361 319.007 186.163 323.329 184.754L323.624 184.648C334.7 180.657 348.756 154.978 359.42 119.029C365.917 97.2489 370.334 74.9013 372.613 52.2862L372.077 52.4792C369.794 74.9761 365.398 97.2073 358.946 118.878C348.271 154.695 334.384 180.227 323.473 184.159L323.189 184.261C319.126 185.601 315.62 183.825 312.732 179.033C307.26 169.882 295.821 167.38 280.481 171.808C248.042 181.2 201.588 222.384 202.585 265.6C203.187 291.953 222.099 327.773 308.637 348.492C364.105 361.87 391.2 384.064 403.218 406.958L403.721 406.777C391.591 383.812 364.429 361.432 308.699 348.049Z" fill="#94B2F3"/>
<path d="M310.648 350.202C225.632 329.008 207.417 292.48 207.106 265.565C206.878 245.874 216.228 224.412 233.428 205.127C248.434 188.288 268.107 175.007 284.749 170.456C298.788 166.632 309.26 169.297 314.258 177.988C317.159 183.023 320.723 184.927 324.864 183.632L325.258 183.491C336.049 179.602 349.762 153.726 360.322 117.246C366.496 95.9365 370.806 74.1304 373.203 52.0735L372.667 52.2666C370.27 74.2134 365.975 95.9104 359.829 117.114C349.314 153.442 335.737 179.183 325.095 183.005L324.713 183.143C320.838 184.354 317.463 182.53 314.707 177.728C309.583 168.822 298.892 166.064 284.62 169.959C267.875 174.534 248.112 187.873 233.045 204.783C215.759 224.173 206.364 245.75 206.587 265.566C206.895 292.643 225.179 329.431 310.517 350.694C362.774 363.697 389.307 385.117 401.773 407.578L402.233 407.412C399.383 402.295 395.997 397.496 392.132 393.096C375.208 373.898 347.804 359.452 310.648 350.202Z" fill="#A9C1F6"/>
<path d="M312.558 352.381C228.699 330.696 211.112 293.138 211.109 265.432C211.114 245.151 220.576 223.142 237.857 203.395C252.948 186.142 272.429 172.807 288.683 168.618C301.74 165.26 311.525 168.11 316.276 176.631C319.071 181.679 322.504 183.63 326.464 182.45L326.934 182.281C337.452 178.491 350.863 152.427 361.267 115.447C367.119 94.6247 371.293 73.3666 373.75 51.8765L373.203 52.0735C370.734 73.4579 366.564 94.6108 360.731 115.331C350.382 152.155 337.097 178.087 326.743 181.819L326.284 181.984C322.568 183.088 319.346 181.209 316.69 176.408C311.852 167.646 301.863 164.709 288.568 168.128C272.197 172.335 252.63 185.738 237.466 203.066C220.154 222.898 210.589 245.031 210.602 265.429C210.595 293.312 228.261 331.126 312.426 352.873C361.478 365.585 387.509 386.161 400.256 408.063L400.704 407.901C398.355 403.907 395.683 400.113 392.713 396.557C376.27 376.741 349.282 361.873 312.558 352.381Z" fill="#B2C7F6"/>
<path d="M314.424 354.612C231.678 332.416 214.671 293.758 215.06 265.219C215.645 218.851 261.623 174.291 292.381 166.816C300.992 164.726 312.479 164.517 318.188 175.287C320.862 180.342 324.157 182.355 327.976 181.263C328.158 181.21 328.337 181.145 328.512 181.07C338.745 177.382 351.865 151.127 362.114 113.683C367.645 93.3514 371.681 72.6413 374.187 51.7189L373.64 51.9159C371.124 72.7396 367.095 93.3519 361.586 113.589C351.194 151.529 337.927 177.924 327.748 180.801C324.195 181.81 321.105 179.883 318.554 175.068C313.974 166.437 304.605 163.338 292.16 166.339C261.24 173.774 215.004 218.65 214.45 265.241C214.103 293.963 231.137 332.87 314.194 355.14C360.432 367.482 385.756 387.262 398.832 408.638L399.248 408.488C397.488 405.62 395.563 402.855 393.485 400.209C377.356 379.686 350.758 364.357 314.424 354.612Z" fill="#759CF0"/>
<path d="M316.239 356.838C234.524 334.109 218.213 294.262 218.86 264.863C219.363 243.463 229.097 220.393 246.267 199.894C261.437 181.897 280.409 168.523 295.845 165.011C303.917 163.178 314.652 163.177 320.048 173.9C322.63 178.975 325.798 181.047 329.476 180.043C339.505 177.331 352.666 150.677 362.944 111.975C368.21 92.1201 372.127 71.9307 374.668 51.5456L374.122 51.7426C371.596 72.0114 367.708 92.0867 362.484 111.832C352.444 149.546 339.751 175.821 329.988 179.339C329.799 179.42 329.605 179.49 329.408 179.548C326.03 180.457 323.034 178.484 320.579 173.659C316.218 164.986 307.587 161.843 295.756 164.524C280.228 168.056 261.111 181.507 245.966 199.607C228.68 220.197 218.949 243.378 218.438 264.892C217.73 294.498 234.128 334.622 316.142 357.392C359.417 369.43 384.034 388.414 397.302 409.189L397.652 409.063C396.544 407.337 395.378 405.644 394.154 403.984C378.448 382.716 352.242 366.899 316.239 356.838Z" fill="#91B0F3"/>
<path d="M330.91 178.265C327.644 179.109 324.786 177.074 322.422 172.228C318.244 163.65 310.143 160.366 299.01 162.722C283.897 165.931 265.121 179.37 250 197.808C232.832 218.725 223.009 242.372 222.209 264.423C221.497 284.452 228.16 302.43 242.015 317.84C258.061 335.699 283.604 349.814 317.9 359.699C358.491 371.419 382.365 389.609 395.719 409.698L396.079 409.568C395.694 408.978 395.301 408.403 394.894 407.82C379.564 385.848 353.706 369.523 318.076 359.191C237.29 335.855 221.649 294.815 222.747 264.476C224.518 215.641 270.286 169.365 299.125 163.248C310.002 160.935 317.899 164.133 321.969 172.478C324.46 177.574 327.511 179.7 331.052 178.795L331.686 178.567C341.373 175.076 353.9 148.515 363.821 110.263C368.8 90.8893 372.572 71.2253 375.116 51.384L374.57 51.581C372.037 71.3105 368.278 90.8627 363.314 110.124C353.219 149.057 340.523 175.802 330.91 178.265Z" fill="#BFD1F8"/>
<path d="M319.795 361.562C239.958 337.637 224.99 295.243 226.53 263.867C228.903 213.48 274.1 166.99 302.235 161.423C312.476 159.401 319.931 162.708 323.792 170.956C326.196 176.084 329.142 178.26 332.559 177.424C332.787 177.361 333.01 177.28 333.226 177.184C342.628 173.795 354.874 147.138 364.613 108.519C369.353 89.6487 373.002 70.5208 375.543 51.2303L375.007 51.4234C372.481 70.6347 368.854 89.6845 364.142 108.479C354.431 146.902 342.34 173.442 333.156 176.751C332.946 176.84 332.73 176.918 332.511 176.984C329.369 177.758 326.616 175.673 324.329 170.8C320.367 162.341 312.711 158.921 302.187 160.946C287.519 163.847 269.056 177.297 254.034 196.045C237.064 217.237 227.12 241.335 226.042 263.882C224.874 284.013 231.662 303.798 244.943 318.972C260.632 337.417 285.795 351.916 319.712 362.087C357.725 373.475 380.741 390.898 394.182 410.301L394.521 410.179C379.361 388.232 354.249 371.885 319.795 361.562Z" fill="#B8CCF7"/>
<path d="M321.504 363.974C242.497 339.404 228.284 295.576 230.193 263.165C231.567 240.239 241.544 215.821 258.257 194.499C273.065 175.568 291.089 162.202 305.169 159.625C314.835 157.859 321.9 161.282 325.622 169.555C327.938 174.714 330.757 176.949 334.088 176.181C334.334 176.112 334.575 176.025 334.809 175.921C344.048 172.592 355.695 146.434 365.404 107.011C369.907 88.5689 373.426 69.9006 375.947 51.0846L375.401 51.2816C372.883 69.9878 369.378 88.5475 364.901 106.883C355.125 146.566 342.961 173.552 333.949 175.626C330.915 176.324 328.271 174.199 326.072 169.295C322.252 160.785 315.006 157.303 305.109 159.115C290.875 161.711 272.776 175.141 257.878 194.166C241.094 215.6 231.093 240.089 229.711 263.128C228.182 283.68 234.611 304.035 247.666 319.981C262.999 339.048 287.808 354.008 321.394 364.459C356.91 375.499 379.136 392.132 392.472 410.868L392.767 410.762C377.839 389.769 353.904 374.049 321.504 363.974Z" fill="#9DB8F4"/>
<path d="M323.192 366.431C244.915 341.177 231.408 295.846 233.84 262.283C235.519 238.865 245.551 214.154 262.056 192.598C276.708 173.44 294.347 160.101 307.974 157.81C317.143 156.31 323.874 159.767 327.363 167.976C329.607 173.174 332.357 175.458 335.553 174.763C335.803 174.692 336.048 174.604 336.285 174.499C345.251 171.269 356.567 145.082 366.123 105.441C370.336 87.8576 373.772 69.3181 376.314 50.9029L375.768 51.0999C373.25 69.4446 369.814 87.8481 365.657 105.313C356.303 144.213 344.823 170.904 336.153 174.028C335.923 174.111 335.694 174.194 335.475 174.272C332.564 174.901 329.978 172.731 327.877 167.791C324.242 159.35 317.349 155.717 307.929 157.308C294.13 159.636 276.416 173.039 261.685 192.287C245.082 213.915 234.995 238.782 233.321 262.247C231.73 284.262 237.452 304.012 250.311 320.98C265.296 340.729 289.769 356.193 323.035 366.92C356.3 377.646 377.315 393.764 390.414 411.671L391.092 411.427C376.366 391.338 353.582 376.241 323.192 366.431Z" fill="#D7E2FB"/>
<path d="M324.837 368.94C247.267 342.938 234.493 296.008 237.458 261.214C239.479 237.413 249.508 212.382 265.78 190.626C280.237 171.303 297.44 158.023 310.642 155.922C319.322 154.574 325.703 158.194 329.081 166.369C331.252 171.605 333.912 173.946 336.992 173.306C350.045 170.69 367.861 114.343 376.724 50.8049L376.155 51.0098C373.643 68.994 370.34 86.9787 366.349 103.976C357.17 142.986 345.965 169.652 337.612 172.662C337.392 172.76 337.166 172.842 336.934 172.906C334.118 173.489 331.659 171.26 329.605 166.279C326.114 157.86 319.546 154.135 310.595 155.519C297.245 157.586 279.923 170.947 265.373 190.352C249.075 212.143 238.973 237.311 236.95 261.211C235.021 283.966 240.395 304.398 252.923 321.955C267.551 342.425 291.691 358.405 324.692 369.462C355.595 379.804 375.771 395.136 388.722 412.256L389.378 412.02C374.912 392.925 353.276 378.477 324.837 368.94Z" fill="#ACC3F6"/>
<path d="M326.451 371.497C249.471 344.701 237.494 296.038 241.026 259.94C243.356 236.102 253.709 210.09 269.433 188.593C283.677 169.124 300.447 155.913 313.215 154.117C321.448 152.967 327.559 156.66 330.801 164.834C332.904 170.12 335.48 172.503 338.481 171.953C346.97 170.315 358.107 143.872 367.516 102.826C371.338 86.1125 374.556 68.4423 377.052 50.6865L376.472 50.8953C367.713 112.629 351.21 166.86 339.117 171.217C338.887 171.319 338.649 171.405 338.407 171.473C335.692 171.994 333.302 169.717 331.32 164.697C327.976 156.275 321.711 152.464 313.186 153.658C300.257 155.487 283.374 168.764 269.055 188.333C253.275 209.912 242.899 236.069 240.511 259.953C238.215 283.507 243.255 304.689 255.44 322.839C269.694 344.087 293.535 360.644 326.287 372.038C354.962 382.022 374.25 396.537 387.014 412.897L387.615 412.68C373.492 394.536 353.015 380.733 326.451 371.497Z" fill="#8FAEF3"/>
<path d="M328.032 374.103C247.538 345.027 241.197 289.142 244.581 258.424C247.244 234.244 257.614 208.003 273.006 186.477C286.965 166.938 303.337 153.821 315.644 152.253C323.52 151.244 329.336 155.043 332.446 163.228C334.469 168.567 336.965 171.004 339.852 170.446C351.829 168.305 368.411 113.984 377.423 50.5526L376.844 50.7614C374.383 68.1339 371.279 85.3673 367.628 101.562C358.731 141.077 348.435 166.908 340.541 169.752C340.313 169.86 340.075 169.945 339.831 170.008C337.21 170.483 334.9 168.152 332.976 163.087C329.775 154.65 323.773 150.745 315.633 151.776C303.187 153.369 286.706 166.562 272.644 186.224C257.181 207.862 246.768 234.156 244.088 258.429C241.409 282.702 246.046 304.758 257.893 323.611C271.788 345.717 295.328 362.878 327.88 374.64C354.427 384.241 372.811 397.994 385.297 413.515L385.855 413.314C372.116 396.169 352.758 383.038 328.032 374.103Z" fill="#B7CBF7"/>
<path d="M329.578 376.747C249.567 346.681 244.166 288.604 248.115 256.644C251.123 232.154 261.501 205.762 276.584 184.236C290.311 164.67 306.138 151.687 318.006 150.34C325.529 149.482 331.093 153.372 334.075 161.578C336.018 166.971 338.468 169.449 341.287 168.977C341.537 168.907 341.782 168.819 342.02 168.713C349.815 165.904 359.925 140.14 368.647 100.688C372.172 84.7246 375.218 67.6727 377.699 50.3916L377.174 50.5807C374.712 67.7437 371.7 84.6844 368.192 100.556C359.521 139.841 349.576 165.446 341.923 168.204C341.688 168.288 341.448 168.354 341.203 168.402C338.666 168.834 336.413 166.421 334.565 161.328C331.515 152.862 325.742 148.874 317.948 149.767C305.959 151.122 289.936 164.212 276.131 183.905C261.009 205.494 250.6 231.972 247.568 256.533C244.447 281.842 248.697 304.606 260.201 324.189C273.722 347.208 296.987 365.048 329.368 377.193C353.884 386.402 371.284 399.311 383.476 414.048L384.011 413.855C371.807 399.048 354.283 386.035 329.578 376.747Z" fill="#B2C7F6"/>
<path d="M331.093 379.476C251.384 348.399 247.097 287.894 251.634 254.585C255.024 229.883 265.38 203.363 280.098 181.92C293.513 162.379 308.921 149.535 320.315 148.383C327.474 147.682 332.842 151.642 335.721 159.873C337.637 165.361 339.97 167.858 342.716 167.424C350.4 166.225 360.303 141.017 369.219 100.013C372.629 84.3127 375.602 67.4722 378.047 50.3281L377.489 50.529C368.681 111.786 353.908 162.934 343.343 166.729C343.12 166.828 342.89 166.911 342.654 166.977C340.197 167.356 338.039 164.933 336.222 159.754C333.263 151.268 327.748 147.175 320.285 147.924C308.744 149.08 293.188 162.027 279.691 181.683C264.934 203.19 254.532 229.752 251.145 254.564C247.565 280.829 251.396 304.486 262.544 324.864C275.674 348.89 298.682 367.453 330.925 380.006C353.49 388.805 369.934 400.91 381.767 414.825L382.204 414.667C369.381 399.478 352.321 387.756 331.093 379.476Z" fill="#A6BFF5"/>
</g>
</g>
<defs>
<clipPath id="clip0_374_250">
<rect width="550.296" height="344.079" fill="white" transform="translate(0 186.562) rotate(-19.8172)"/>
</clipPath>
</defs>
</svg>
