<svg width="17" height="13" viewBox="0 0 17 13" fill="none" xmlns="http://www.w3.org/2000/svg">
<path d="M16.2 1.52941C15.611 1.79706 14.9762 1.97294 14.3185 2.05706C14.9915 1.65176 15.5116 1.00941 15.7564 0.237059C15.1216 0.619412 14.4179 0.887059 13.6761 1.04C13.0718 0.382353 12.2229 0 11.2592 0C9.4619 0 7.99345 1.46824 7.99345 3.28059C7.99345 3.54059 8.02404 3.79294 8.07758 4.03C5.35483 3.89235 2.93035 2.58471 1.31659 0.604118C1.0336 1.08588 0.872992 1.65176 0.872992 2.24824C0.872992 3.38765 1.44661 4.39706 2.33379 4.97059C1.79077 4.97059 1.28599 4.81765 0.842399 4.58824V4.61118C0.842399 6.20176 1.97433 7.53235 3.47337 7.83059C2.99209 7.96228 2.48683 7.9806 1.99727 7.88412C2.205 8.53601 2.61183 9.10643 3.16058 9.51518C3.70932 9.92393 4.37238 10.1505 5.05655 10.1629C3.8968 11.0809 2.45922 11.5771 0.980066 11.57C0.720028 11.57 0.459989 11.5547 0.199951 11.5241C1.65311 12.4571 3.3816 13 5.23246 13C11.2592 13 14.5709 7.99882 14.5709 3.66294C14.5709 3.51765 14.5709 3.38 14.5632 3.23471C15.2057 2.77588 15.7564 2.19471 16.2 1.52941Z" fill="#4894E2"/>
</svg>
