<svg width="104" height="104" viewBox="0 0 104 104" fill="none" xmlns="http://www.w3.org/2000/svg">
<circle cx="52" cy="52" r="52" fill="url(#paint0_linear_312_360)"/>
<path d="M63.75 71.3333C62.1528 71.3333 60.7951 70.7743 59.6771 69.6562C58.559 68.5382 58 67.1806 58 65.5833C58 65.3597 58.016 65.1278 58.0479 64.8876C58.0799 64.6474 58.1278 64.4321 58.1917 64.2417L44.6792 56.3833C44.1361 56.8625 43.5292 57.2382 42.8583 57.5103C42.1875 57.7825 41.4847 57.9179 40.75 57.9167C39.1528 57.9167 37.7951 57.3576 36.6771 56.2396C35.559 55.1215 35 53.7639 35 52.1667C35 50.5694 35.559 49.2118 36.6771 48.0938C37.7951 46.9757 39.1528 46.4167 40.75 46.4167C41.4847 46.4167 42.1875 46.5528 42.8583 46.8249C43.5292 47.0971 44.1361 47.4721 44.6792 47.95L58.1917 40.0917C58.1278 39.9 58.0799 39.6847 58.0479 39.4457C58.016 39.2068 58 38.9749 58 38.75C58 37.1528 58.559 35.7951 59.6771 34.6771C60.7951 33.559 62.1528 33 63.75 33C65.3472 33 66.7049 33.559 67.8229 34.6771C68.941 35.7951 69.5 37.1528 69.5 38.75C69.5 40.3472 68.941 41.7049 67.8229 42.8229C66.7049 43.941 65.3472 44.5 63.75 44.5C63.0153 44.5 62.3125 44.3646 61.6417 44.0937C60.9708 43.8228 60.3639 43.4471 59.8208 42.9667L46.3083 50.825C46.3722 51.0167 46.4201 51.2326 46.4521 51.4728C46.484 51.7131 46.5 51.9443 46.5 52.1667C46.5 52.3903 46.484 52.6222 46.4521 52.8624C46.4201 53.1026 46.3722 53.3179 46.3083 53.5083L59.8208 61.3667C60.3639 60.8875 60.9708 60.5125 61.6417 60.2416C62.3125 59.9707 63.0153 59.8346 63.75 59.8333C65.3472 59.8333 66.7049 60.3924 67.8229 61.5104C68.941 62.6285 69.5 63.9861 69.5 65.5833C69.5 67.1806 68.941 68.5382 67.8229 69.6562C66.7049 70.7743 65.3472 71.3333 63.75 71.3333Z" fill="white"/>
<defs>
<linearGradient id="paint0_linear_312_360" x1="0" y1="0" x2="123.63" y2="35.3543" gradientUnits="userSpaceOnUse">
<stop stop-color="#2457CE"/>
<stop offset="0.442708" stop-color="#5383EC"/>
<stop offset="1" stop-color="#A2C8FF"/>
</linearGradient>
</defs>
</svg>
