<svg width="42" height="42" viewBox="0 0 42 42" fill="none" xmlns="http://www.w3.org/2000/svg">
<g clip-path="url(#clip0_91_752)">
<path d="M21 0C32.61 0 42 9.39 42 21C42 32.61 32.61 42 21 42C9.39 42 0 32.61 0 21C0 9.39 9.39 0 21 0ZM17.16 32.07C26.46 32.07 31.56 24.36 31.56 17.67V17.01C32.55 16.29 33.42 15.39 34.08 14.37C33.18 14.76 32.19 15.03 31.17 15.18C32.22 14.55 33.03 13.56 33.39 12.39C32.4 12.96 31.32 13.38 30.18 13.62C29.25 12.63 27.93 12.03 26.49 12.03C23.7 12.03 21.42 14.31 21.42 17.1C21.42 17.49 21.45 17.88 21.57 18.24C17.37 18.03 13.62 16.02 11.13 12.96C10.71 13.71 10.44 14.58 10.44 15.51C10.44 17.25 11.34 18.81 12.69 19.71C11.85 19.71 11.07 19.47 10.41 19.08V19.14C10.41 21.6 12.15 23.64 14.46 24.12C14.04 24.24 13.59 24.3 13.14 24.3C12.81 24.3 12.51 24.27 12.18 24.21C12.81 26.22 14.7 27.69 16.89 27.72C15.15 29.07 12.96 29.88 10.59 29.88C10.17 29.88 9.78 29.88 9.39 29.82C11.61 31.26 14.28 32.1 17.13 32.1" fill="#2457CE"/>
</g>
<defs>
<clipPath id="clip0_91_752">
<rect width="42" height="42" fill="white"/>
</clipPath>
</defs>
</svg>
