<svg width="322" height="466" viewBox="0 0 322 466" fill="none" xmlns="http://www.w3.org/2000/svg">
<g opacity="0.4" clip-path="url(#clip0_365_391)">
<mask id="mask0_365_391" style="mask-type:luminance" maskUnits="userSpaceOnUse" x="0" y="0" width="579" height="466">
<path d="M472.231 0.000198232L0 170.174L106.403 465.442L578.634 295.268L472.231 0.000198232Z" fill="white"/>
</mask>
<g mask="url(#mask0_365_391)">
<path d="M378.241 349.503C376.919 336.453 366.33 324.892 346.712 315.166C324.273 304.021 290.066 295.336 245.017 289.363C138.747 275.252 112.521 253.129 109.204 237.077C106.691 224.85 116.632 211.382 137.219 199.127C171.405 178.77 230.107 165.845 247.329 180.336C254.086 186.017 263.25 185.555 273.881 178.974C287.697 170.41 302.257 152.155 311.972 131.306C322.963 107.742 326.473 84.3713 321.9 65.5823C321.059 62.0968 319.898 58.6964 318.431 55.4245L317.992 55.5827C319.461 58.8456 320.624 62.2384 321.464 65.7169C331.672 107.647 299.99 162.249 273.64 178.587C263.244 185.039 254.273 185.566 247.676 179.985C239.751 173.316 222.095 171.878 199.228 176.026C177.458 179.994 154.204 188.475 137.015 198.716C116.266 211.085 106.255 224.737 108.807 237.164C112.138 253.38 138.466 275.692 245.025 289.822C351.201 303.922 375.822 330.095 377.78 349.568C378.421 356.1 376.593 362.846 372.852 369.38L373.659 369.089C376.99 363.041 378.939 356.41 378.241 349.503Z" fill="#B2C7F6"/>
<path d="M274.387 178.532C264.746 184.328 256.448 184.534 250.252 179.192C233.707 164.705 179.461 176.611 145.524 196.156C122.569 209.377 111.391 224.103 114.036 237.635C117.267 254.168 143.059 276.899 247.571 291.226C351.81 305.516 375.865 332.278 377.709 352.185C378.137 357.897 377.097 363.623 374.689 368.819L375.277 368.607C377.572 363.464 378.551 357.831 378.126 352.216C376.287 332.137 352.171 305.206 247.608 290.83C143.399 276.529 117.705 253.977 114.501 237.58C111.87 224.212 122.985 209.656 145.758 196.557C164.204 186.246 184.227 179.053 205.018 175.269C226.204 171.524 242.546 173.097 249.935 179.531C256.256 185.065 264.792 184.864 274.638 178.948C288.324 170.713 302.99 152.127 312.9 130.441C324.071 106.001 327.695 81.7887 323.111 62.2821C322.497 59.6673 321.714 57.0954 320.764 54.583L320.336 54.7376C321.266 57.2343 322.039 59.7869 322.65 62.3804C332.911 105.926 300.467 162.854 274.387 178.532Z" fill="#ABC2F6"/>
<path d="M250.07 292.22C147.871 277.713 122.739 254.688 119.601 237.975C116.947 223.668 129.624 207.568 154.383 193.787C171.936 184.151 190.951 177.459 210.67 173.977C230.598 170.617 245.444 172.29 252.456 178.68C258.378 184.076 266.343 184.102 275.489 178.777C289.049 170.847 303.752 152.022 313.812 129.47C325.143 104.161 328.874 79.0873 324.276 58.8867C323.9 57.2185 323.446 55.522 322.909 53.8108L322.47 53.9689C322.979 55.6003 323.435 57.2733 323.815 58.985C333.887 103.411 301.585 163.016 275.241 178.371C266.243 183.575 258.514 183.576 252.745 178.294C245.631 171.839 230.636 170.096 210.568 173.473C190.796 176.966 171.732 183.68 154.134 193.347C142.576 199.766 133.285 206.97 127.262 214.145C120.448 222.316 117.705 230.339 119.117 238.07C122.257 254.975 147.499 278.152 249.97 292.696C352.442 307.239 375.87 334.576 377.561 354.9C377.898 359.476 377.305 364.073 375.816 368.413L376.374 368.212C377.786 363.933 378.337 359.416 377.997 354.923C376.29 334.334 352.747 306.836 250.07 292.22Z" fill="#C3D4F8"/>
<path d="M252.479 293.685C152.237 278.98 127.651 255.499 124.624 238.407C121.886 222.835 135.895 205.522 163.065 190.928C194.966 173.797 240.515 164.146 254.91 177.829C260.47 183.096 267.899 183.293 276.435 178.526C289.866 170.958 304.547 151.757 314.726 128.441C326.028 102.646 329.941 76.076 325.44 55.457C325.27 54.6728 325.09 53.8922 324.883 53.0988L324.434 53.2606C324.627 54.014 324.813 54.7811 324.98 55.5553C329.447 76.0509 325.563 102.543 314.315 128.24C304.145 151.485 289.546 170.6 276.211 178.122C267.884 182.814 260.633 182.609 255.237 177.485C248.561 171.155 234.67 169.284 216.154 172.215C197.509 175.405 179.502 181.586 162.827 190.518C135.452 205.23 121.376 222.703 124.151 238.499C127.178 255.749 151.882 279.401 252.38 294.16C352.878 308.919 375.851 336.837 377.377 357.705C377.624 361.217 377.327 364.747 376.494 368.168L377.023 367.978C377.803 364.618 378.076 361.161 377.833 357.721C376.32 336.668 353.32 308.489 252.479 293.685Z" fill="#5383EC"/>
<path d="M254.846 295.188C156.503 280.25 132.446 256.297 129.534 238.836C126.772 222.134 142.577 203.114 171.763 187.986C202.27 172.179 243.66 163.464 257.33 176.946C262.565 182.093 269.487 182.541 277.477 178.196C290.735 170.961 305.368 151.439 315.692 127.338C326.978 100.906 330.972 73.6531 326.678 52.4523L326.229 52.614C330.457 73.7259 326.504 100.841 315.261 127.144C304.968 151.144 290.424 170.6 277.249 177.782C269.488 182.011 262.718 181.61 257.671 176.609C243.836 162.983 202.242 171.693 171.545 187.569C158.073 194.554 147.019 202.652 139.589 210.988C131.114 220.49 127.573 229.894 129.067 238.915C132.029 256.515 156.152 280.681 254.777 295.653C353.402 310.624 375.879 339.228 377.245 360.559C377.399 363.03 377.292 365.509 376.925 367.957L377.424 367.777C377.769 365.38 377.868 362.953 377.721 360.535C376.347 339.026 353.912 310.226 254.846 295.188Z" fill="#ABC2F6"/>
<path d="M278.382 177.363C271.138 181.179 264.793 180.614 260.033 175.723C254.218 169.748 242.452 167.585 226.886 169.632C212.465 171.515 195.435 176.976 180.165 184.598C165.842 191.754 153.877 200.293 145.7 209.248C136.351 219.482 132.367 229.564 133.892 239.329C136.669 257.322 160.311 281.967 257.094 297.174C354.13 312.425 375.922 341.659 377.112 363.504C377.193 364.969 377.184 366.436 377.084 367.899L377.563 367.727C377.651 366.313 377.66 364.895 377.588 363.48C376.409 341.449 354.543 312.039 257.163 296.709C160.666 281.546 137.116 257.094 134.35 239.254C132.859 229.646 136.796 219.683 146.04 209.565C154.187 200.655 166.071 192.202 180.373 185.019C209.499 170.476 247.13 163.149 259.689 176.05C264.62 181.104 271.157 181.702 278.597 177.77C291.675 170.882 306.252 151.11 316.642 126.162C327.536 100.108 331.674 73.2873 328.314 51.8628L327.865 52.0245C331.196 73.3692 327.011 100.06 316.205 125.981C306.015 150.451 291.162 170.615 278.382 177.363Z" fill="#A7C0F5"/>
<path d="M259.438 298.268C164.725 282.867 141.696 257.889 139.067 239.651C135.714 216.431 162.573 194.691 188.832 182.071C203.49 175.031 218.841 170.322 232.057 168.817C246.279 167.198 256.624 169.388 262.067 175.114C266.708 180.081 272.856 180.819 279.825 177.271C304.268 164.833 335.737 101.041 329.87 51.3019L329.411 51.4672C335.207 101.007 303.877 164.5 279.597 176.857C272.734 180.356 266.939 179.66 262.392 174.794C250.277 161.845 216.153 168.427 188.664 181.636C173.688 188.825 160.584 197.989 151.763 207.435C141.677 218.25 137.145 229.409 138.606 239.715C141.269 258.111 164.377 283.274 259.383 298.772C354.742 314.278 375.983 344.206 377.006 366.586C377.023 367.042 377.031 367.501 377.039 367.961L377.508 367.792C377.504 367.376 377.495 366.973 377.471 366.565C376.417 343.971 355.124 313.87 259.438 298.268Z" fill="#A4BDF5"/>
<path d="M261.666 299.855C168.688 284.201 146.185 258.684 143.694 240.046C140.32 214.862 170.313 191.53 197.059 179.197C226.917 165.405 254.583 163.349 264.329 174.198C268.726 179.084 274.509 179.965 281.027 176.759C293.47 170.641 308.245 149.794 318.574 123.673C328.545 98.4367 332.972 72.4813 331.186 50.8278L330.727 50.9931C332.487 72.5432 328.06 98.3745 318.123 123.486C307.836 149.502 293.189 170.235 280.822 176.315C274.386 179.468 268.954 178.652 264.649 173.868C253.118 161.036 221.406 167.403 196.833 178.76C181.162 186.053 167.262 195.571 157.694 205.602C146.754 217.143 141.745 229.07 143.237 240.121C145.752 258.919 168.296 284.646 261.59 300.333C353.1 315.727 374.977 345.291 376.763 368.071L377.222 367.906C375.358 344.973 353.301 315.283 261.666 299.855Z" fill="#BED0F8"/>
<path d="M263.844 301.459C172.543 285.551 150.574 259.481 148.23 240.407C145.084 214.948 174.409 189.918 204.847 176.39C228.041 166.116 256.095 161.135 266.518 173.206C270.676 178.02 276.132 179.03 282.302 176.108C294.562 170.292 309.173 149.178 319.51 122.299C329.066 97.5384 333.568 72.0407 332.433 50.3783L331.974 50.5436C333.077 72.1162 328.602 97.469 319.083 122.148C308.778 148.925 294.265 169.937 282.048 175.715C276.014 178.577 270.898 177.636 266.837 172.933C256.258 160.682 227.963 165.648 204.616 176C174.005 189.579 144.54 214.784 147.702 240.473C150.116 259.68 172.121 285.973 263.712 301.935C349.847 316.955 373.06 345.35 376.263 368.184L376.712 368.022C373.495 345.024 350.128 316.516 263.844 301.459Z" fill="#B5CAF7"/>
<path d="M265.998 303.152C176.321 286.996 154.869 260.3 152.682 240.786C149.609 213.498 181.435 186.935 212.309 173.803C238.211 162.789 260.362 162.191 268.732 172.284C272.697 177.033 277.841 178.144 283.649 175.499C295.695 170.03 310.148 148.601 320.497 120.974C329.557 96.6178 334.137 71.5879 333.579 49.9653L333.091 50.1413C333.626 71.6706 329.096 96.5584 320.019 120.774C309.741 148.285 295.376 169.582 283.443 175.021C277.761 177.609 272.93 176.554 269.093 171.94C260.585 161.682 238.221 162.222 212.12 173.308C181.1 186.504 149.114 213.248 152.206 240.778C154.427 260.448 175.94 287.314 265.893 303.517C347.05 318.166 371.232 345.468 375.74 368.327L376.189 368.166C371.619 345.227 347.296 317.818 265.998 303.152Z" fill="#8DADF2"/>
<path d="M268.077 304.793C179.961 288.311 159.049 261.049 157.033 241.101C155.351 224.584 165.916 209.877 175.063 200.459C186.445 188.737 202.573 178.146 219.26 171.298C243.294 161.51 263.055 161.502 270.871 171.277C274.662 176.043 279.402 177.221 284.976 174.773C296.798 169.588 311.104 147.907 321.415 119.55C330.13 95.6447 334.676 71.112 334.627 49.5879L334.158 49.7568C334.178 71.1676 329.64 95.5961 320.991 119.342C310.74 147.587 296.499 169.166 284.797 174.307C279.455 176.649 274.89 175.521 271.195 170.957C263.3 160.963 243.328 160.946 219.091 170.829C202.33 177.659 186.164 188.331 174.729 200.095C161.496 213.713 155.207 227.905 156.553 241.116C158.595 261.257 179.592 288.726 267.984 305.255C344.475 319.557 369.37 345.835 375.04 368.636L375.479 368.478C369.735 345.534 344.746 319.121 268.077 304.793Z" fill="#BED0F8"/>
<path d="M270.123 306.501C183.523 289.721 163.135 261.819 161.284 241.361C159.708 223.949 170.852 208.503 180.411 198.633C193.318 185.701 208.761 175.58 225.768 168.908C248.068 160.218 265.708 160.703 272.978 170.213C276.593 174.93 281.094 176.194 286.368 173.977C297.946 169.084 312.084 147.125 322.381 118.04C330.653 94.6558 335.176 70.5933 335.574 49.2463L335.085 49.4224C334.676 70.7059 330.152 94.6107 321.918 117.88C311.7 146.903 297.648 168.695 286.187 173.536C281.141 175.669 276.816 174.455 273.36 169.929C265.934 160.205 248.1 159.711 225.6 168.472C208.527 175.16 193.027 185.317 180.078 198.302C170.414 208.255 159.233 223.85 160.816 241.406C162.677 262.018 183.15 290.126 270.071 306.949C342.194 320.919 367.518 346.231 374.272 368.913L374.671 368.769C367.871 345.958 342.439 320.504 270.123 306.501Z" fill="#93B1F3"/>
<path d="M272.137 308.244C186.991 291.155 167.137 262.575 165.465 241.613C164.016 223.333 175.606 207.219 185.566 196.866C198.628 183.593 214.399 173.295 231.804 166.677C252.175 159.076 268.334 160.017 275.044 169.131C278.477 173.811 282.738 175.162 287.753 173.129C299.106 168.519 313.016 146.305 323.309 116.488C331.195 93.6601 335.695 70.1249 336.452 48.9303L335.973 49.1028C335.19 70.194 330.707 93.588 322.87 116.365C312.665 146.048 298.822 168.171 287.585 172.727C282.827 174.656 278.725 173.373 275.427 168.88C268.592 159.574 252.22 158.575 231.663 166.254C214.191 172.882 198.355 183.202 185.236 196.512C175.196 206.893 163.532 223.147 165.002 241.611C166.685 262.727 186.614 291.516 272.05 308.659C340.068 322.306 365.632 346.719 373.33 369.207L373.779 369.045C366.025 346.465 340.351 321.933 272.137 308.244Z" fill="#ACC3F6"/>
<path d="M274.105 310.015C190.363 292.6 171.039 263.333 169.542 241.857C168.273 222.701 180.249 205.906 190.529 195.19C203.157 182.05 220.495 170.752 237.009 164.8L237.418 164.653C256.326 157.93 270.789 159.199 277.092 168.122C280.37 172.779 284.426 174.215 289.196 172.35C300.301 168.021 314.074 145.517 324.256 115.02C331.523 93.5706 335.896 71.2466 337.259 48.6388L336.781 48.8113C335.389 71.2957 331.026 93.4958 323.805 114.832C313.654 145.195 299.999 167.589 289.013 171.874C284.479 173.644 280.603 172.267 277.467 167.818C271.025 158.697 256.376 157.382 237.242 164.164C219.493 170.795 203.433 181.275 190.215 194.852C179.85 205.644 167.773 222.565 169.111 241.911C170.592 263.562 189.98 293.008 274.017 310.52C338.186 323.806 363.796 347.347 372.355 369.659L372.804 369.498C364.198 347.055 338.458 323.404 274.105 310.015Z" fill="#8FAEF3"/>
<path d="M276.034 311.834C193.641 294.067 174.843 264.071 173.58 242.025C172.689 226.452 180.42 209.226 195.353 193.508C208.434 179.776 226.07 168.213 242.57 162.627C259.915 156.76 273.21 158.35 279.073 166.991C282.157 171.516 286.011 173.08 290.479 171.47L290.619 171.42C301.492 167.355 315.054 144.578 325.172 113.404C332.081 92.3316 336.388 70.4925 337.997 48.3728L337.519 48.5453C335.894 70.5589 331.595 92.2919 324.716 113.264C314.641 144.31 301.184 166.97 290.437 170.978L290.307 171.025C286.079 172.549 282.445 171.096 279.462 166.726C273.477 157.904 259.977 156.242 242.422 162.185C225.862 167.792 208.132 179.377 195.004 193.194C179.979 209.002 172.204 226.356 173.108 242.06C174.351 264.27 193.245 294.469 275.928 312.289C336.406 325.338 361.985 348.011 371.27 369.994L371.719 369.832C362.401 347.726 336.728 324.918 276.034 311.834Z" fill="#A0BBF5"/>
<path d="M277.916 313.68C196.826 295.557 178.559 264.783 177.527 242.159C176.782 225.958 184.749 208.106 199.972 191.877C213.338 177.626 231.06 166.02 247.347 160.748C263.291 155.622 275.57 157.488 281.014 165.874C283.999 170.435 287.739 172.029 292.031 170.494C302.652 166.666 316 143.64 326.036 111.83C332.621 91.1375 336.86 69.7696 338.676 48.1285L338.217 48.2938C333.764 104.728 309.306 163.773 291.943 170.029C287.864 171.499 284.337 169.997 281.473 165.585C275.893 157.011 263.432 155.076 247.268 160.281C230.891 165.551 213.103 177.225 199.692 191.539C184.387 207.853 176.377 225.867 177.111 242.162C178.167 264.947 196.486 295.928 277.865 314.071C334.876 326.814 360.25 348.636 370.249 370.317L370.697 370.156C360.594 348.467 335.146 326.469 277.916 313.68Z" fill="#5383EC"/>
<path d="M279.776 315.558C199.871 297.065 182.2 265.478 181.392 242.254C180.81 225.442 188.971 207.002 204.443 190.278C218.042 175.547 235.739 163.838 251.746 158.949C266.659 154.398 277.721 156.454 282.891 164.736C285.766 169.336 289.313 170.955 293.427 169.551L293.586 169.494C303.948 165.76 317.013 142.542 326.909 110.22C333.172 89.9294 337.325 69.0464 339.304 47.9024L338.815 48.0785C336.851 69.1065 332.729 89.8758 326.513 110.058C316.697 142.228 303.717 165.336 293.485 169.023L293.335 169.077C289.454 170.408 286.09 168.859 283.348 164.47C278.038 155.99 266.803 153.861 251.668 158.481C235.547 163.4 217.782 175.201 204.11 189.947C188.589 206.756 180.365 225.332 180.943 242.258C181.752 265.639 199.544 297.441 279.693 316.016C333.387 328.467 358.487 349.531 368.995 370.871L369.443 370.709C358.903 349.246 333.712 328.057 279.776 315.558Z" fill="#6B94EF"/>
<path d="M281.583 317.477C202.905 298.575 185.734 266.154 185.185 242.274C184.288 203.075 226.462 165.704 255.932 157.181C269.728 153.19 279.997 155.453 284.837 163.538C287.632 168.167 290.985 169.811 294.928 168.526L295.197 168.429C305.299 164.788 318.121 141.365 327.848 108.574C333.775 88.7069 337.804 68.3224 339.882 47.6938L339.394 47.8699C337.311 68.3906 333.301 88.669 327.416 108.436C317.679 141.107 305.012 164.396 295.059 167.982L294.8 168.076C291.094 169.299 287.895 167.678 285.261 163.307C280.27 154.96 269.836 152.678 255.844 156.717C226.254 165.283 183.88 202.85 184.79 242.27C185.339 266.308 202.59 298.982 281.526 317.881C332.121 330.084 356.837 350.328 367.799 371.211L368.258 371.046C357.193 350.098 332.417 329.684 281.583 317.477Z" fill="#94B2F3"/>
<path d="M283.361 319.44C205.813 300.108 189.197 266.789 188.913 242.238C188.706 224.276 197.234 204.7 212.924 187.108C226.612 171.749 244.557 159.634 259.737 155.483C272.542 151.996 282.095 154.426 286.653 162.354C289.299 166.946 292.551 168.683 296.328 167.502L296.687 167.373C306.53 163.826 319.039 140.222 328.671 106.947C334.302 87.5096 338.234 67.6189 340.421 47.4995L339.932 47.6756C337.745 67.6947 333.827 87.4858 328.222 106.827C318.63 139.964 306.246 163.444 296.539 166.93L296.19 167.056C292.655 168.161 289.577 166.497 287.063 162.116C282.389 153.993 272.637 151.477 259.619 155.03C244.345 159.203 226.317 171.37 212.574 186.795C196.807 204.482 188.237 224.163 188.44 242.239C188.721 266.937 205.399 300.494 283.241 319.889C330.908 331.75 355.11 351.289 366.481 371.776L366.9 371.625C364.301 366.958 361.213 362.58 357.687 358.566C342.25 341.054 317.253 327.878 283.361 319.44Z" fill="#A9C1F6"/>
<path d="M285.103 321.428C208.61 301.648 192.568 267.389 192.565 242.116C192.569 223.617 201.2 203.541 216.963 185.529C230.729 169.791 248.498 157.628 263.325 153.807C275.235 150.743 284.161 153.344 288.494 161.116C291.044 165.72 294.175 167.5 297.788 166.424L298.216 166.27C307.81 162.812 320.043 139.038 329.533 105.306C334.871 86.313 338.679 66.9222 340.919 47.3198L340.421 47.4995C338.169 67.0056 334.364 86.3004 329.044 105.2C319.605 138.79 307.486 162.444 298.042 165.848L297.623 165.999C294.234 167.006 291.295 165.292 288.871 160.912C284.459 152.92 275.347 150.241 263.22 153.36C248.287 157.197 230.438 169.423 216.607 185.229C200.816 203.319 192.091 223.507 192.103 242.114C192.096 267.548 208.21 302.04 284.983 321.877C329.726 333.472 353.47 352.241 365.097 372.219L365.506 372.071C363.364 368.428 360.926 364.967 358.217 361.724C343.218 343.648 318.601 330.086 285.103 321.428Z" fill="#B2C7F6"/>
<path d="M286.805 323.463C211.327 303.216 195.814 267.955 196.169 241.923C196.702 199.627 238.642 158.981 266.698 152.163C274.553 150.257 285.03 150.066 290.238 159.89C292.677 164.501 295.683 166.337 299.166 165.341C299.333 165.293 299.496 165.234 299.655 165.165C308.989 161.801 320.957 137.852 330.305 103.697C335.351 85.1516 339.032 66.2606 341.318 47.1761L340.82 47.3558C338.525 66.3503 334.85 85.152 329.824 103.612C320.345 138.219 308.244 162.295 298.958 164.92C295.718 165.84 292.899 164.083 290.572 159.69C286.394 151.817 277.848 148.99 266.497 151.728C238.292 158.51 196.118 199.443 195.613 241.943C195.296 268.142 210.834 303.631 286.595 323.944C328.772 335.203 351.871 353.245 363.799 372.743L364.178 372.606C362.572 369.99 360.817 367.469 358.921 365.054C344.209 346.334 319.947 332.352 286.805 323.463Z" fill="#759CF0"/>
<path d="M288.461 325.493C213.923 304.761 199.045 268.414 199.635 241.598C200.094 222.078 208.973 201.034 224.635 182.336C238.472 165.919 255.777 153.72 269.857 150.517C277.221 148.844 287.013 148.844 291.935 158.625C294.29 163.254 297.18 165.144 300.534 164.228C309.682 161.754 321.688 137.442 331.062 102.14C335.867 84.0286 339.44 65.6127 341.757 47.0181L341.258 47.1978C338.955 65.6863 335.409 83.9981 330.643 102.009C321.485 136.41 309.907 160.377 301.002 163.586C300.829 163.66 300.653 163.724 300.473 163.777C297.391 164.606 294.658 162.806 292.419 158.405C288.441 150.494 280.568 147.627 269.776 150.073C255.613 153.294 238.175 165.564 224.361 182.074C208.593 200.855 199.716 222 199.25 241.624C198.604 268.629 213.562 305.229 288.372 325.999C327.846 336.979 350.3 354.296 362.403 373.246L362.722 373.131C361.711 371.557 360.647 370.012 359.531 368.498C345.205 349.098 321.301 334.671 288.461 325.493Z" fill="#91B0F3"/>
<path d="M301.843 162.607C298.864 163.376 296.257 161.52 294.101 157.1C290.289 149.275 282.9 146.279 272.744 148.428C258.959 151.356 241.833 163.615 228.04 180.433C212.38 199.513 203.42 221.082 202.69 241.196C202.04 259.466 208.119 275.864 220.756 289.921C235.393 306.211 258.692 319.086 289.976 328.103C327.001 338.794 348.777 355.386 360.959 373.71L361.288 373.592C360.936 373.053 360.578 372.529 360.206 371.997C346.223 351.955 322.637 337.064 290.136 327.64C216.447 306.354 202.179 268.919 203.181 241.244C204.797 196.699 246.544 154.488 272.85 148.909C282.771 146.799 289.975 149.715 293.687 157.328C295.959 161.976 298.743 163.916 301.972 163.09L302.55 162.882C311.386 159.697 322.814 135.469 331.863 100.577C336.404 82.9059 339.845 64.9692 342.166 46.8707L341.667 47.0504C339.357 65.0469 335.928 82.8816 331.4 100.451C322.192 135.964 310.611 160.36 301.843 162.607Z" fill="#BFD1F8"/>
<path d="M291.704 329.803C218.88 307.979 205.227 269.309 206.632 240.689C208.796 194.728 250.023 152.322 275.687 147.244C285.028 145.4 291.828 148.416 295.35 155.94C297.543 160.617 300.23 162.602 303.347 161.839C303.555 161.782 303.758 161.708 303.955 161.62C312.532 158.529 323.702 134.213 332.586 98.9868C336.909 81.7742 340.238 64.3266 342.555 46.7306L342.066 46.9066C339.762 64.4304 336.453 81.8069 332.155 98.9502C323.298 133.998 312.269 158.207 303.892 161.226C303.7 161.307 303.503 161.378 303.303 161.438C300.437 162.144 297.926 160.242 295.84 155.797C292.225 148.082 285.242 144.962 275.643 146.809C262.263 149.455 245.422 161.724 231.719 178.825C216.24 198.155 207.169 220.137 206.186 240.703C205.121 259.065 211.313 277.113 223.427 290.954C237.738 307.778 260.69 321.004 291.628 330.281C326.302 340.669 347.297 356.562 359.557 374.26L359.866 374.149C346.038 354.13 323.131 339.219 291.704 329.803Z" fill="#B8CCF7"/>
<path d="M293.263 332.003C221.196 309.591 208.232 269.612 209.973 240.048C211.226 219.137 220.326 196.863 235.572 177.414C249.079 160.147 265.52 147.954 278.363 145.603C287.18 143.993 293.624 147.115 297.019 154.662C299.132 159.368 301.703 161.406 304.741 160.706C304.966 160.642 305.186 160.563 305.399 160.468C313.826 157.432 324.451 133.572 333.307 97.611C337.414 80.7893 340.624 63.7608 342.924 46.5976L342.425 46.7773C340.129 63.8403 336.932 80.7697 332.848 97.4946C323.931 133.691 312.835 158.308 304.615 160.199C301.847 160.836 299.436 158.898 297.429 154.424C293.945 146.662 287.335 143.486 278.308 145.138C265.325 147.506 248.815 159.757 235.226 177.11C219.916 196.662 210.793 219 209.533 240.015C208.139 258.762 214.002 277.328 225.911 291.874C239.897 309.266 262.527 322.912 293.163 332.445C325.559 342.515 345.832 357.687 357.997 374.778L358.266 374.681C344.65 355.532 322.817 341.192 293.263 332.003Z" fill="#9DB8F4"/>
<path d="M294.803 334.244C223.402 311.209 211.081 269.859 213.3 239.244C214.831 217.883 223.982 195.343 239.037 175.68C252.402 158.205 268.491 146.038 280.922 143.949C289.285 142.58 295.425 145.734 298.607 153.222C300.654 157.963 303.162 160.046 306.078 159.412C306.306 159.348 306.529 159.267 306.746 159.172C314.924 156.225 325.246 132.338 333.963 96.1797C337.806 80.1406 340.94 63.2295 343.259 46.4319L342.76 46.6116C340.463 63.3449 337.329 80.1319 333.537 96.0625C325.005 131.546 314.533 155.892 306.625 158.742C306.415 158.817 306.206 158.893 306.007 158.965C303.351 159.538 300.993 157.559 299.076 153.053C295.761 145.353 289.473 142.039 280.88 143.49C268.293 145.614 252.135 157.839 238.698 175.397C223.554 195.125 214.353 217.807 212.826 239.212C211.375 259.293 216.594 277.308 228.324 292.785C241.993 310.799 264.316 324.905 294.659 334.69C325.003 344.474 344.171 359.176 356.12 375.51L356.738 375.288C343.306 356.963 322.524 343.192 294.803 334.244Z" fill="#D7E2FB"/>
<path d="M296.303 336.532C225.547 312.814 213.895 270.006 216.599 238.269C218.443 216.559 227.591 193.727 242.434 173.881C255.621 156.256 271.312 144.142 283.355 142.226C291.272 140.996 297.093 144.298 300.175 151.755C302.155 156.531 304.581 158.667 307.39 158.083C319.297 155.697 335.548 104.3 343.632 46.3425L343.113 46.5294C340.822 62.9338 337.81 79.3388 334.168 94.8431C325.796 130.426 315.575 154.75 307.956 157.496C307.756 157.585 307.549 157.659 307.338 157.718C304.769 158.25 302.526 156.217 300.652 151.673C297.468 143.994 291.477 140.596 283.312 141.858C271.135 143.744 255.335 155.931 242.063 173.632C227.197 193.508 217.982 216.466 216.136 238.267C214.376 259.023 219.278 277.659 230.706 293.674C244.049 312.347 266.068 326.923 296.171 337.008C324.36 346.442 342.763 360.428 354.577 376.044L355.175 375.828C341.98 358.41 322.244 345.231 296.303 336.532Z" fill="#ACC3F6"/>
<path d="M297.775 338.865C227.557 314.423 216.632 270.035 219.854 237.108C221.979 215.364 231.423 191.636 245.766 172.027C258.758 154.269 274.056 142.218 285.702 140.58C293.212 139.531 298.786 142.899 301.744 150.356C303.661 155.177 306.011 157.351 308.749 156.849C316.492 155.355 326.651 131.235 335.233 93.7946C338.719 78.5489 341.655 62.4309 343.931 46.2348L343.403 46.4253C335.413 102.737 320.359 152.203 309.329 156.178C309.119 156.271 308.902 156.349 308.681 156.412C306.204 156.887 304.025 154.809 302.217 150.23C299.167 142.548 293.452 139.072 285.675 140.162C273.882 141.83 258.482 153.94 245.421 171.791C231.027 191.474 221.562 215.333 219.385 237.119C217.29 258.604 221.887 277.926 233.002 294.481C246.004 313.863 267.751 328.966 297.626 339.359C323.782 348.465 341.376 361.705 353.018 376.628L353.567 376.431C340.684 359.88 322.006 347.29 297.775 338.865Z" fill="#8FAEF3"/>
<path d="M299.218 341.242C225.794 314.72 220.011 263.745 223.097 235.725C225.526 213.668 234.985 189.732 249.025 170.097C261.758 152.275 276.692 140.31 287.918 138.88C295.102 137.959 300.407 141.425 303.244 148.891C305.089 153.761 307.366 155.984 310 155.474C320.924 153.521 336.05 103.972 344.27 46.1126L343.742 46.3031C341.497 62.1496 338.666 77.8692 335.336 92.6415C327.22 128.685 317.828 152.247 310.628 154.842C310.42 154.94 310.203 155.018 309.98 155.075C307.589 155.509 305.482 153.382 303.727 148.762C300.807 141.066 295.332 137.504 287.907 138.444C276.555 139.897 261.522 151.932 248.695 169.867C234.59 189.604 225.091 213.588 222.647 235.729C220.203 257.87 224.434 277.989 235.239 295.186C247.914 315.35 269.386 331.003 299.079 341.732C323.294 350.49 340.063 363.035 351.453 377.192L351.961 377.009C339.429 361.37 321.772 349.392 299.218 341.242Z" fill="#B7CBF7"/>
<path d="M300.628 343.654C227.645 316.229 222.718 263.254 226.32 234.101C229.064 211.762 238.53 187.688 252.289 168.053C264.81 150.206 279.247 138.364 290.072 137.134C296.934 136.352 302.01 139.9 304.73 147.386C306.502 152.304 308.737 154.565 311.308 154.135C311.537 154.07 311.76 153.99 311.977 153.894C319.087 151.331 328.309 127.83 336.265 91.8444C339.48 77.2829 342.258 61.7288 344.522 45.9658L344.043 46.1383C341.797 61.7936 339.05 77.2462 335.85 91.7236C327.94 127.558 318.869 150.914 311.888 153.43C311.674 153.506 311.455 153.566 311.232 153.61C308.918 154.004 306.862 151.803 305.177 147.157C302.394 139.435 297.128 135.798 290.019 136.612C279.084 137.848 264.468 149.788 251.876 167.751C238.082 187.444 228.588 211.596 225.821 233.999C222.974 257.086 226.851 277.85 237.345 295.712C249.678 316.71 270.9 332.983 300.436 344.061C322.799 352.461 338.671 364.236 349.791 377.678L350.28 377.502C339.148 363.996 323.163 352.126 300.628 343.654Z" fill="#B2C7F6"/>
<path d="M302.009 346.143C229.302 317.796 225.392 262.606 229.531 232.222C232.622 209.69 242.069 185.5 255.494 165.94C267.73 148.116 281.785 136.4 292.178 135.349C298.708 134.709 303.605 138.322 306.231 145.83C307.979 150.836 310.107 153.113 312.612 152.718C319.621 151.624 328.653 128.63 336.787 91.2277C339.897 76.9069 342.609 61.5456 344.839 45.9075L344.33 46.0907C336.296 101.967 322.821 148.622 313.183 152.083C312.98 152.174 312.77 152.25 312.555 152.31C310.313 152.655 308.345 150.445 306.688 145.722C303.989 137.981 298.959 134.247 292.151 134.931C281.624 135.985 267.434 147.794 255.123 165.724C241.662 185.342 232.173 209.57 229.084 232.203C225.819 256.161 229.313 277.74 239.482 296.328C251.459 318.243 272.445 335.176 301.857 346.626C322.439 354.652 337.438 365.694 348.232 378.386L348.631 378.243C336.934 364.388 321.373 353.695 302.009 346.143Z" fill="#A6BFF5"/>
</g>
</g>
<defs>
<clipPath id="clip0_365_391">
<rect width="501.957" height="313.855" fill="white" transform="translate(0 170.174) rotate(-19.8172)"/>
</clipPath>
</defs>
</svg>
