<svg width="472" height="740" viewBox="0 0 472 740" fill="none" xmlns="http://www.w3.org/2000/svg">
<g opacity="0.4" clip-path="url(#clip0_211_756)">
<mask id="mask0_211_756" style="mask-type:luminance" maskUnits="userSpaceOnUse" x="-448" y="0" width="920" height="740">
<path d="M-278.981 -0.000218822L471.144 270.316L302.125 739.341L-448 469.024L-278.981 -0.000218822Z" fill="white"/>
</mask>
<g mask="url(#mask0_211_756)">
<path d="M-129.681 555.174C-127.58 534.444 -110.761 516.081 -79.598 500.63C-43.9541 482.927 10.382 469.131 81.9412 459.643C250.748 437.229 292.408 402.087 297.677 376.589C301.669 357.167 285.877 335.772 253.175 316.306C198.872 283.97 105.626 263.439 78.2692 286.457C67.5355 295.481 52.9796 294.748 36.0921 284.293C14.146 270.691 -8.98204 241.692 -24.4143 208.574C-41.8727 171.144 -47.4495 134.02 -40.1844 104.174C-38.8486 98.6375 -37.0039 93.2361 -34.6741 88.0389L-33.9771 88.2901C-36.3111 93.4732 -38.1574 98.8624 -39.4918 104.388C-55.7077 170.993 -5.38132 257.727 36.4745 283.679C52.9888 293.928 67.2386 294.765 77.7181 285.9C90.3063 275.306 118.353 273.022 154.676 279.611C189.258 285.913 226.196 299.386 253.5 315.653C286.459 335.302 302.36 356.986 298.307 376.726C293.016 402.485 251.195 437.927 81.9289 460.373C-86.7286 482.769 -125.839 524.346 -128.949 555.277C-129.967 565.653 -127.063 576.369 -121.12 586.748L-122.403 586.285C-127.694 576.679 -130.789 566.145 -129.681 555.174Z" fill="#B2C7F6"/>
<path d="M35.2889 283.592C50.6034 292.799 63.7842 293.127 73.6259 284.64C99.9064 261.629 186.075 280.54 239.984 311.588C276.447 332.589 294.203 355.981 290.001 377.476C284.868 403.739 243.899 439.846 77.8852 462.604C-87.6955 485.304 -125.907 527.813 -128.836 559.436C-129.515 568.508 -127.863 577.604 -124.039 585.857L-124.973 585.52C-128.618 577.352 -130.173 568.404 -129.498 559.484C-126.578 527.589 -88.2695 484.81 77.8259 461.974C243.359 439.258 284.172 403.434 289.263 377.389C293.442 356.154 275.786 333.031 239.612 312.224C210.31 295.845 178.505 284.42 145.479 278.41C111.826 272.46 85.867 274.959 74.1295 285.18C64.0886 293.97 50.5295 293.65 34.8893 284.254C13.149 271.173 -10.1474 241.649 -25.8884 207.201C-43.6326 168.379 -49.39 129.919 -42.108 98.9329C-41.1339 94.7793 -39.8889 90.694 -38.381 86.7031L-37.6997 86.9486C-39.178 90.9145 -40.406 94.9693 -41.3767 99.089C-57.6761 168.26 -6.13964 258.689 35.2889 283.592Z" fill="#ABC2F6"/>
<path d="M73.9158 464.182C236.256 441.139 276.176 404.564 281.162 378.015C285.377 355.289 265.24 329.714 225.912 307.825C198.028 292.518 167.824 281.887 136.5 276.356C104.845 271.019 81.2639 273.677 70.1247 283.826C60.7177 292.398 48.0658 292.44 33.5375 283.982C11.9985 271.385 -11.3579 241.481 -27.3371 205.658C-45.3355 165.455 -51.2621 125.627 -43.9587 93.539C-43.3617 90.8891 -42.6412 88.1942 -41.7869 85.476L-41.0899 85.7271C-41.8985 88.3186 -42.6234 90.9761 -43.2274 93.6951C-59.2251 164.264 -7.91435 258.945 33.9314 283.336C48.2247 291.602 60.5025 291.604 69.6655 283.213C80.967 272.961 104.786 270.192 136.663 275.555C168.07 281.105 198.353 291.77 226.307 307.125C244.665 317.322 259.425 328.765 268.992 340.163C279.815 353.142 284.172 365.885 281.93 378.167C276.943 405.019 236.846 441.835 74.0732 464.937C-88.6994 488.04 -125.915 531.463 -128.6 563.747C-129.137 571.016 -128.194 578.319 -125.829 585.212L-126.716 584.893C-128.957 578.095 -129.833 570.921 -129.293 563.784C-126.582 531.079 -89.1846 487.399 73.9158 464.182Z" fill="#C3D4F8"/>
<path d="M70.0881 466.509C229.319 443.151 268.374 405.852 273.182 378.702C277.532 353.966 255.278 326.465 212.119 303.284C161.446 276.07 89.0936 260.741 66.2265 282.475C57.3944 290.842 45.5936 291.155 32.0345 283.583C10.6999 271.562 -12.6207 241.062 -28.789 204.025C-46.742 163.05 -52.9571 120.844 -45.808 88.0914C-45.5381 86.8457 -45.2523 85.6057 -44.9234 84.3455L-44.2106 84.6023C-44.5166 85.7992 -44.8125 87.0176 -45.0767 88.2475C-52.1731 120.804 -46.0029 162.887 -28.1366 203.705C-11.9817 240.629 11.2091 270.993 32.391 282.942C45.6174 290.394 57.1362 290.068 65.7071 281.93C76.3113 271.874 98.3771 268.903 127.79 273.557C157.407 278.626 186.011 288.444 212.497 302.632C255.982 326.002 278.341 353.756 273.934 378.848C269.126 406.249 229.884 443.82 70.2456 467.264C-89.3927 490.708 -125.885 535.055 -128.308 568.203C-128.701 573.783 -128.228 579.389 -126.906 584.824L-127.746 584.521C-128.985 579.185 -129.419 573.693 -129.034 568.228C-126.63 534.786 -90.0952 490.025 70.0881 466.509Z" fill="#5383EC"/>
<path d="M66.328 468.897C222.543 445.168 260.758 407.119 265.383 379.384C269.771 352.852 244.664 322.64 198.303 298.609C149.843 273.5 84.0967 259.656 62.3825 281.072C54.0664 289.249 43.0709 289.96 30.3798 283.058C9.32003 271.566 -13.9243 240.556 -30.3233 202.272C-48.2517 160.286 -54.5951 116.995 -47.7751 83.3177L-47.0622 83.5746C-53.7776 117.11 -47.4982 160.181 -29.6393 201.964C-13.2897 240.086 9.81337 270.992 30.742 282.401C43.0701 289.118 53.824 288.481 61.8416 280.537C83.8169 258.893 149.889 272.729 198.65 297.946C220.049 309.042 237.608 321.906 249.41 335.147C262.872 350.241 268.497 365.178 266.125 379.508C261.42 407.465 223.101 445.853 66.438 469.635C-90.2255 493.416 -125.93 538.852 -128.099 572.737C-128.343 576.661 -128.173 580.6 -127.59 584.488L-128.383 584.202C-128.931 580.393 -129.089 576.539 -128.854 572.698C-126.673 538.531 -91.0358 492.784 66.328 468.897Z" fill="#ABC2F6"/>
<path d="M28.9419 281.735C40.4495 287.798 50.528 286.899 58.0885 279.131C67.3261 269.639 86.0154 266.203 110.743 269.456C133.649 272.446 160.701 281.12 184.958 293.227C207.709 304.595 226.716 318.16 239.703 332.384C254.554 348.64 260.882 364.655 258.46 380.166C254.049 408.748 216.495 447.895 62.7574 472.051C-91.3815 496.277 -125.996 542.714 -127.887 577.415C-128.016 579.741 -128.001 582.073 -127.844 584.397L-128.604 584.123C-128.744 581.876 -128.757 579.624 -128.643 577.376C-126.771 542.381 -92.0377 495.664 62.6474 471.313C215.931 447.226 253.339 408.385 257.734 380.048C260.101 364.785 253.848 348.959 239.164 332.888C226.222 318.734 207.345 305.306 184.627 293.896C138.361 270.795 78.5852 259.157 58.6352 279.65C50.8021 287.679 40.4187 288.628 28.6013 282.382C7.82642 271.44 -15.3284 240.032 -31.8332 200.403C-49.1371 159.018 -55.7101 116.414 -50.373 82.3819L-49.6601 82.6387C-54.9516 116.544 -48.3043 158.942 -31.1391 200.116C-14.9515 238.986 8.64102 271.017 28.9419 281.735Z" fill="#A7C0F5"/>
<path d="M59.0343 473.789C209.482 449.325 246.064 409.649 250.24 380.677C255.566 343.794 212.901 309.26 171.189 289.215C147.906 278.031 123.521 270.551 102.528 268.161C79.9365 265.588 63.5046 269.068 54.8572 278.163C47.4855 286.054 37.72 287.226 26.6495 281.589C-12.1766 261.832 -62.1649 160.501 -52.8444 81.4913L-52.1157 81.7539C-61.3219 160.446 -11.5566 261.303 27.0116 280.932C37.9136 286.49 47.1183 285.384 54.3422 277.655C73.5856 257.086 127.792 267.542 171.457 288.523C195.245 299.943 216.06 314.499 230.073 329.504C246.094 346.684 253.292 364.409 250.972 380.78C246.742 410.001 210.036 449.973 59.1214 474.59C-92.3532 499.222 -126.095 546.761 -127.719 582.311C-127.747 583.035 -127.759 583.764 -127.772 584.494L-128.516 584.226C-128.511 583.565 -128.495 582.926 -128.458 582.277C-126.784 546.388 -92.9607 498.573 59.0343 473.789Z" fill="#A4BDF5"/>
<path d="M55.495 476.31C203.188 451.444 238.933 410.911 242.89 381.306C248.249 341.301 200.606 304.238 158.122 284.649C110.693 262.741 66.747 259.474 51.2652 276.708C44.2802 284.469 35.0951 285.868 24.7411 280.776C4.97528 271.057 -18.495 237.942 -34.9014 196.45C-50.7399 156.363 -57.7724 115.134 -54.9353 80.7377L-54.2066 81.0003C-57.0025 115.232 -49.9705 156.264 -34.1857 196.153C-17.8446 237.478 5.42239 270.412 25.0672 280.07C35.29 285.079 43.9186 283.783 50.7559 276.184C69.0733 255.8 119.447 265.913 158.48 283.954C183.373 295.539 205.452 310.658 220.652 326.593C238.03 344.924 245.987 363.871 243.617 381.424C239.622 411.285 203.81 452.152 55.6151 477.069C-89.7456 501.522 -124.496 548.484 -127.334 584.67L-128.062 584.407C-125.101 547.979 -90.064 500.816 55.495 476.31Z" fill="#BED0F8"/>
<path d="M52.0348 478.859C197.064 453.588 231.962 412.177 235.685 381.879C240.682 341.439 194.101 301.679 145.75 280.191C108.907 263.87 64.3448 255.959 47.7879 275.132C41.1838 282.78 32.5157 284.384 22.7154 279.742C3.24159 270.504 -19.968 236.964 -36.3878 194.268C-51.5682 154.937 -58.7196 114.434 -56.9155 80.0243L-56.1868 80.2869C-57.9395 114.554 -50.8305 154.826 -35.7109 194.028C-19.3405 236.563 3.71338 269.94 23.1194 279.117C32.7037 283.664 40.8311 282.17 47.2817 274.699C64.0853 255.239 109.032 263.127 146.117 279.571C194.742 301.141 241.546 341.177 236.524 381.984C232.689 412.493 197.735 454.26 52.2455 479.615C-84.5781 503.474 -121.451 548.578 -126.539 584.849L-127.252 584.592C-122.142 548.061 -85.0246 502.776 52.0348 478.859Z" fill="#B5CAF7"/>
<path d="M48.6138 481.547C191.063 455.885 225.139 413.479 228.612 382.481C233.494 339.135 182.939 296.941 133.897 276.08C92.7519 258.585 57.5659 257.634 44.2705 273.668C37.9725 281.211 29.8013 282.975 20.5763 278.774C1.44057 270.087 -21.5173 236.047 -37.9561 192.162C-52.3478 153.474 -59.6237 113.714 -58.7373 79.3675L-57.9611 79.6472C-58.8119 113.846 -51.6157 153.379 -37.1974 191.845C-20.8712 235.546 1.94789 269.375 20.9036 278.014C29.9284 282.126 37.6021 280.451 43.6978 273.121C57.2126 256.826 92.7365 257.684 134.198 275.294C183.472 296.255 234.281 338.738 229.369 382.468C225.841 413.714 191.669 456.389 48.7808 482.127C-80.1344 505.397 -118.547 548.765 -125.708 585.076L-126.421 584.82C-119.161 548.382 -80.5259 504.844 48.6138 481.547Z" fill="#8DADF2"/>
<path d="M45.3119 484.154C185.281 457.973 218.499 414.667 221.702 382.982C224.373 356.745 207.591 333.382 193.061 318.423C174.981 299.803 149.363 282.979 122.855 272.101C84.678 256.553 53.2884 256.54 40.8736 272.068C34.8519 279.639 27.3226 281.509 18.4682 277.62C-0.310905 269.385 -23.0353 234.945 -39.4141 189.9C-53.2585 151.928 -60.479 112.959 -60.4008 78.7681L-59.6562 79.0364C-59.6875 113.047 -52.4789 151.851 -38.7402 189.57C-22.4584 234.437 0.163468 268.714 18.7524 276.881C27.2381 280.601 34.4885 278.809 40.3586 271.56C52.899 255.684 84.6252 255.657 123.124 271.356C149.749 282.205 175.428 299.158 193.591 317.844C214.613 339.476 224.602 362.02 222.463 383.005C219.221 414.999 185.867 458.632 45.4592 484.887C-76.044 507.606 -115.589 549.347 -124.596 585.567L-125.293 585.316C-116.169 548.87 -76.4746 506.913 45.3119 484.154Z" fill="#BED0F8"/>
<path d="M42.0608 486.868C179.623 460.214 212.009 415.891 214.949 383.395C217.452 355.737 199.75 331.201 184.566 315.522C164.064 294.98 139.534 278.904 112.518 268.304C77.0948 254.501 49.074 255.272 37.5269 270.378C31.7842 277.87 24.6351 279.878 16.2564 276.357C-2.13436 268.584 -24.5924 233.704 -40.9485 187.503C-54.0885 150.357 -61.2738 112.135 -61.9055 78.2258L-61.1293 78.5055C-60.4792 112.314 -53.2931 150.286 -40.2126 187.249C-23.9819 233.351 -1.66132 267.967 16.5451 275.656C24.5594 279.045 31.4296 277.116 36.92 269.927C48.715 254.48 77.0452 253.695 112.785 267.613C139.905 278.236 164.527 294.371 185.095 314.997C200.447 330.807 218.207 355.579 215.693 383.466C212.736 416.207 180.215 460.857 42.1448 487.578C-72.421 509.771 -112.648 549.977 -123.376 586.006L-124.01 585.778C-113.208 549.543 -72.8098 509.111 42.0608 486.868Z" fill="#93B1F3"/>
<path d="M38.8616 489.636C174.114 462.49 205.651 417.092 208.307 383.795C210.61 354.757 192.198 329.16 176.378 312.715C155.63 291.631 130.577 275.273 102.931 264.76C70.5711 252.687 44.903 254.181 34.2448 268.658C28.7911 276.093 22.0221 278.238 14.0572 275.01C-3.97695 267.687 -26.0736 232.4 -42.4228 185.037C-54.9504 148.775 -62.0974 111.39 -63.2996 77.7232L-62.5393 77.9973C-61.2958 111.5 -54.1752 148.661 -41.7255 184.841C-25.515 231.992 -3.52675 267.133 14.323 274.371C21.8818 277.435 28.3978 275.397 33.6366 268.26C44.4939 253.478 70.4998 251.891 103.155 264.089C130.908 274.616 156.063 291.011 176.903 312.152C192.85 328.643 211.379 354.461 209.042 383.791C206.37 417.333 174.712 463.064 39.0001 490.295C-69.044 511.972 -109.652 550.753 -121.88 586.474L-122.593 586.217C-110.276 550.349 -69.4931 511.381 38.8616 489.636Z" fill="#ACC3F6"/>
<path d="M35.736 492.449C168.758 464.786 199.454 418.297 201.831 384.183C203.848 353.753 184.824 327.075 168.495 310.053C148.435 289.18 120.895 271.234 94.6614 261.78L94.0119 261.546C63.9783 250.866 41.0035 252.883 30.9919 267.056C25.784 274.455 19.3421 276.735 11.7649 273.772C-5.87528 266.896 -27.753 231.15 -43.9268 182.705C-55.4707 148.634 -62.4173 113.173 -64.5827 77.2609L-63.8223 77.5349C-61.611 113.251 -54.6804 148.515 -43.2112 182.408C-27.0854 230.638 -5.3952 266.209 12.0549 273.017C19.2576 275.827 25.4149 273.641 30.3964 266.573C40.6287 252.085 63.8982 249.996 94.2917 260.769C122.485 271.303 147.996 287.95 168.993 309.516C185.457 326.659 204.641 353.537 202.516 384.269C200.164 418.66 169.366 465.434 35.8763 493.252C-66.0549 514.356 -106.736 551.75 -120.332 587.193L-121.045 586.936C-107.375 551.287 -66.4868 513.717 35.736 492.449Z" fill="#8FAEF3"/>
<path d="M32.6722 495.338C163.551 467.117 193.412 419.468 195.417 384.45C196.832 359.712 184.552 332.349 160.831 307.381C140.053 285.569 112.038 267.201 85.8282 258.328C58.2758 249.008 37.1583 251.533 27.8447 265.26C22.9456 272.447 16.8236 274.932 9.72661 272.375L9.50486 272.295C-7.7673 265.838 -29.3096 229.658 -45.3828 180.139C-56.3568 146.666 -63.1984 111.975 -65.7551 76.8386L-64.9947 77.1126C-62.4138 112.081 -55.5847 146.603 -44.6583 179.917C-28.6547 229.231 -7.2784 265.226 9.79353 271.593L9.99948 271.668C16.7163 274.088 22.4877 271.781 27.2263 264.84C36.7334 250.825 58.1786 248.186 86.0637 257.625C112.369 266.532 140.532 284.936 161.386 306.883C185.253 331.993 197.603 359.56 196.167 384.505C194.192 419.785 164.18 467.756 32.8411 496.062C-63.227 516.79 -103.859 552.805 -118.608 587.725L-119.321 587.468C-104.519 552.352 -63.7382 516.123 32.6722 495.338Z" fill="#A0BBF5"/>
<path d="M29.6821 498.272C158.492 469.484 187.509 420.6 189.148 384.662C190.331 358.928 177.676 330.57 153.495 304.791C132.263 282.153 104.112 263.718 78.2409 255.344C52.9132 247.201 33.4097 250.165 24.761 263.486C20.0204 270.731 14.0783 273.263 7.26077 270.824C-9.61038 264.744 -30.8128 228.167 -46.755 177.639C-57.2143 144.769 -63.949 110.827 -66.8323 76.4506L-66.1036 76.7132C-59.0309 166.357 -20.1788 260.148 7.40115 270.087C13.8803 272.422 19.4832 270.036 24.0318 263.026C32.8954 249.407 52.6892 246.333 78.3655 254.601C104.38 262.973 132.636 281.517 153.939 304.253C178.25 330.168 190.974 358.783 189.808 384.667C188.131 420.86 159.031 470.073 29.7629 498.892C-60.7963 519.135 -101.102 553.798 -116.985 588.238L-117.698 587.981C-101.65 553.529 -61.2251 518.586 29.6821 498.272Z" fill="#5383EC"/>
<path d="M26.7281 501.254C153.655 471.877 181.724 421.702 183.008 384.813C183.933 358.108 170.97 328.815 146.392 302.249C124.79 278.851 96.68 260.251 71.2525 252.485C47.5645 245.256 29.9926 248.521 21.7794 261.677C17.213 268.984 11.579 271.556 5.04399 269.326L4.79052 269.235C-11.6688 263.304 -32.4217 226.423 -48.1417 175.08C-58.0892 142.849 -64.687 109.677 -67.8303 76.0905L-67.054 76.3703C-63.9345 109.773 -57.386 142.764 -47.5123 174.823C-31.9195 225.924 -11.3009 262.631 4.95247 268.488L5.19007 268.573C11.355 270.687 16.6987 268.226 21.0546 261.255C29.4884 247.784 47.3348 244.403 71.3771 251.742C96.9845 259.555 125.203 278.301 146.922 301.724C171.576 328.425 184.64 357.933 183.721 384.819C182.437 421.959 154.174 472.476 26.8596 501.982C-58.431 521.759 -98.3029 555.218 -114.993 589.117L-115.706 588.86C-98.963 554.766 -58.9478 521.108 26.7281 501.254Z" fill="#6B94EF"/>
<path d="M23.8577 504.302C148.835 474.277 176.11 422.777 176.983 384.844C178.408 322.579 111.416 263.216 64.6037 249.677C42.6892 243.338 26.3771 246.932 18.6881 259.775C14.2484 267.129 8.92241 269.74 2.65986 267.698L2.23211 267.544C-13.8153 261.761 -34.1821 224.554 -49.6337 172.465C-59.0473 140.908 -65.4477 108.528 -68.749 75.7598L-67.9728 76.0395C-64.6648 108.636 -58.2946 140.848 -48.9466 172.248C-33.4797 224.144 -13.3581 261.138 2.45174 266.835L2.86363 266.983C8.7504 268.926 13.8305 266.351 18.0152 259.408C25.9433 246.149 42.5172 242.524 64.7441 248.94C111.747 262.547 179.055 322.221 177.611 384.838C176.738 423.022 149.336 474.923 23.9486 504.944C-56.4212 524.328 -95.6809 556.486 -113.094 589.658L-113.823 589.396C-96.2473 556.121 -56.8905 523.694 23.8577 504.302Z" fill="#94B2F3"/>
<path d="M21.0332 507.421C144.216 476.713 170.61 423.786 171.06 384.787C171.39 356.256 157.843 325.16 132.921 297.216C111.178 272.817 82.6728 253.574 58.5593 246.98C38.218 241.44 23.0446 245.301 15.8039 257.894C11.6 265.189 6.43549 267.948 0.435251 266.072L-0.135064 265.867C-15.7706 260.232 -35.6404 222.739 -50.9401 169.882C-59.8857 139.006 -66.1308 107.41 -69.6047 75.4514L-68.8284 75.7312C-65.3546 107.531 -59.1308 138.968 -50.227 169.691C-34.9912 222.328 -15.319 259.625 0.100417 265.164L0.65487 265.364C6.26922 267.118 11.1592 264.475 15.1526 257.516C22.5766 244.613 38.0676 240.616 58.7472 246.26C83.009 252.89 111.645 272.216 133.476 296.718C158.522 324.813 172.135 356.077 171.812 384.789C171.366 424.022 144.873 477.326 21.2237 508.134C-54.4935 526.975 -92.9376 558.012 -111.001 590.555L-111.667 590.316C-107.538 582.901 -102.632 575.948 -97.0319 569.572C-72.5098 541.755 -32.8033 520.824 21.0332 507.421Z" fill="#A9C1F6"/>
<path d="M18.2668 510.578C139.773 479.159 165.255 424.739 165.259 384.595C165.253 355.208 151.543 323.319 126.504 294.707C104.637 269.708 76.4115 250.387 52.8605 244.317C33.9411 239.451 19.7626 243.581 12.8794 255.927C8.82948 263.242 3.85504 266.069 -1.88291 264.359L-2.56408 264.114C-17.8036 258.622 -37.2353 220.857 -52.3098 167.275C-60.7893 137.105 -66.8377 106.304 -70.3967 75.1659L-69.6047 75.4513C-66.0272 106.436 -59.9843 137.085 -51.5333 167.107C-36.5386 220.463 -17.2887 258.038 -2.28683 263.444L-1.62147 263.684C3.76225 265.284 8.43053 262.561 12.28 255.604C19.2888 242.909 33.7633 238.653 53.0268 243.607C76.7477 249.702 105.099 269.123 127.07 294.23C152.154 322.966 166.013 355.035 165.994 384.591C166.005 424.991 140.408 479.781 18.4572 511.291C-52.6155 529.711 -90.3322 559.523 -108.802 591.258L-109.452 591.024C-106.049 585.237 -102.176 579.739 -97.8726 574.587C-74.0479 545.874 -34.9445 524.332 18.2668 510.578Z" fill="#B2C7F6"/>
<path d="M15.5623 513.811C135.457 481.65 160.098 425.638 159.535 384.287C158.688 317.102 92.0676 252.537 47.5013 241.706C35.0251 238.678 18.3814 238.374 10.1088 253.98C6.23446 261.304 1.46029 264.221 -4.07301 262.639C-4.33732 262.562 -4.5966 262.468 -4.84926 262.359C-19.6769 257.016 -38.6864 218.973 -53.5368 164.72C-61.5517 135.26 -67.3986 105.253 -71.0304 74.9374L-70.2383 75.2229C-66.5926 105.395 -60.755 135.261 -52.7718 164.584C-37.7151 219.556 -18.4921 257.801 -3.74253 261.97C1.40486 263.431 5.883 260.64 9.57846 253.663C16.2152 241.157 29.7899 236.666 47.8216 241.015C92.6237 251.788 159.616 316.81 160.419 384.318C160.922 425.935 136.24 482.308 15.8953 514.576C-51.1002 532.459 -87.7928 561.119 -106.74 592.091L-107.342 591.874C-104.791 587.718 -102.003 583.713 -98.9917 579.878C-75.6215 550.141 -37.0825 527.931 15.5623 513.811Z" fill="#759CF0"/>
<path d="M12.9326 517.036C131.333 484.103 154.967 426.367 154.029 383.771C153.301 352.763 139.197 319.336 114.317 289.635C92.3383 263.557 64.8488 244.179 42.4831 239.092C30.7863 236.434 15.2325 236.434 7.41433 251.97C3.67244 259.324 -0.917367 262.326 -6.24601 260.871C-20.7777 256.942 -39.8478 218.322 -54.7392 162.245C-62.3703 133.476 -68.046 104.223 -71.7274 74.6864L-70.9353 74.9718C-67.2761 104.34 -61.6428 133.428 -54.0736 162.038C-39.5257 216.683 -21.1347 254.754 -6.9883 259.852C-6.71447 259.969 -6.43414 260.07 -6.1487 260.154C-1.2535 261.471 3.08779 258.612 6.6451 251.621C12.9637 239.054 25.4693 234.5 42.612 238.386C65.1102 243.503 92.81 262.993 114.754 289.219C139.8 319.052 153.9 352.639 154.641 383.812C155.667 426.709 131.906 484.847 13.0729 517.839C-49.6293 535.281 -85.2978 562.788 -104.522 592.89L-105.029 592.708C-103.424 590.206 -101.734 587.753 -99.9607 585.348C-77.2035 554.531 -39.2333 531.614 12.9326 517.036Z" fill="#91B0F3"/>
<path d="M-8.32488 258.295C-3.5925 259.517 0.548556 256.569 3.97342 249.548C10.0277 237.119 21.7659 232.36 37.8974 235.774C59.7943 240.423 86.9992 259.896 108.91 286.611C133.785 316.92 148.018 351.182 149.176 383.132C150.209 412.154 140.554 438.202 120.479 460.531C97.2292 486.407 60.219 506.859 10.5256 521.182C-48.2877 538.164 -82.879 564.519 -102.228 593.627L-102.751 593.439C-102.192 592.584 -101.623 591.75 -101.033 590.906C-78.8211 559.07 -41.355 535.416 10.2717 520.446C127.325 486.634 149.988 427.169 148.397 383.209C145.83 312.45 79.5153 245.399 37.7297 236.537C21.9696 233.185 10.5274 237.818 4.63047 249.91C1.02101 257.294 -3.40027 260.374 -8.52996 259.063L-9.44875 258.732C-23.4843 253.674 -41.6361 215.188 -56.0107 159.764C-63.2248 131.693 -68.6907 103.201 -72.3769 74.4522L-71.5849 74.7376C-67.9148 103.324 -62.468 131.654 -55.2761 159.563C-40.6485 215.974 -22.2527 254.727 -8.32488 258.295Z" fill="#BFD1F8"/>
<path d="M7.781 523.882C123.459 489.216 145.148 427.789 142.916 382.326C139.477 309.319 73.9901 241.958 33.2238 233.892C18.3856 230.963 7.58409 235.755 1.9889 247.705C-1.49384 255.135 -5.76238 258.288 -10.7134 257.077C-11.0438 256.985 -11.3667 256.868 -11.6797 256.728C-25.3034 251.819 -43.047 213.194 -57.1583 157.237C-64.0258 129.895 -69.3133 102.18 -72.9945 74.2296L-72.2183 74.5093C-68.5587 102.345 -63.3023 129.947 -56.4751 157.179C-42.4049 212.852 -24.8861 251.307 -11.5793 256.102C-11.274 256.231 -10.962 256.343 -10.6447 256.439C-6.09097 257.561 -2.10258 254.539 1.2114 247.479C6.95251 235.223 18.0456 230.267 33.2938 233.201C54.5464 237.404 81.2982 256.893 103.064 284.057C127.653 314.764 142.062 349.68 143.624 382.349C145.315 411.517 135.479 440.185 116.237 462.171C93.5043 488.896 57.0453 509.905 7.90107 524.641C-47.1772 541.143 -80.5271 566.387 -100.001 594.501L-100.492 594.324C-78.5264 562.524 -42.1409 538.839 7.781 523.882Z" fill="#B8CCF7"/>
<path d="M5.30455 527.376C119.78 491.776 140.374 428.271 137.608 381.309C135.618 348.092 121.162 312.711 96.9452 281.816C75.4889 254.388 49.3734 235.021 28.9724 231.286C14.9668 228.728 4.73117 233.688 -0.662508 245.675C-4.01851 253.15 -8.1027 256.388 -12.9283 255.276C-13.2852 255.175 -13.6346 255.049 -13.9738 254.899C-27.3599 250.075 -44.2369 212.174 -58.3039 155.052C-64.8281 128.331 -69.9275 101.282 -73.5807 74.0183L-72.7886 74.3038C-69.1404 101.408 -64.0621 128.3 -57.575 154.867C-43.4105 212.364 -25.785 251.466 -12.7276 254.471C-8.33105 255.482 -4.50109 252.403 -1.31385 245.297C4.22133 232.967 14.72 227.923 29.0596 230.547C49.6836 234.309 75.9088 253.769 97.4949 281.334C121.814 312.391 136.305 347.874 138.308 381.257C140.522 411.034 131.207 440.527 112.292 463.633C90.0752 491.26 54.1273 512.936 5.4633 528.078C-45.9966 544.075 -78.2001 568.175 -97.5232 595.323L-97.9509 595.169C-76.322 564.751 -41.6417 541.973 5.30455 527.376Z" fill="#9DB8F4"/>
<path d="M2.85849 530.936C116.277 494.345 135.847 428.663 132.323 380.031C129.892 346.1 115.356 310.296 91.4403 279.063C70.2104 251.304 44.6532 231.977 24.908 228.657C11.6228 226.484 1.87072 231.493 -3.18513 243.388C-6.43594 250.918 -10.4206 254.228 -15.0517 253.221C-15.4139 253.119 -15.7686 252.991 -16.1131 252.839C-29.1031 248.158 -45.4997 210.215 -59.3461 152.778C-65.4503 127.3 -70.429 100.438 -74.1123 73.7552L-73.3203 74.0407C-69.6717 100.621 -64.6936 127.287 -58.6704 152.592C-45.1176 208.956 -28.4831 247.629 -15.9208 252.156C-15.5881 252.276 -15.2554 252.396 -14.9386 252.51C-10.7207 253.421 -6.97435 250.277 -3.92967 243.119C1.33672 230.889 11.324 225.625 24.9736 227.929C44.9679 231.302 70.6347 250.722 91.9786 278.612C116.035 309.95 130.651 345.98 133.076 379.98C135.381 411.878 127.091 440.495 108.459 465.081C86.7456 493.695 51.2859 516.102 3.08632 531.644C-45.1133 547.187 -75.5622 570.54 -94.5419 596.487L-95.524 596.133C-74.1879 567.024 -41.1754 545.15 2.85849 530.936Z" fill="#D7E2FB"/>
<path d="M0.47448 534.571C112.87 496.896 131.378 428.897 127.082 378.483C124.153 343.996 109.623 307.729 86.0444 276.205C65.0973 248.208 40.172 228.965 21.0432 225.922C8.46648 223.968 -0.77996 229.213 -5.67481 241.058C-8.82046 248.644 -12.674 252.037 -17.1365 251.109C-36.0501 247.319 -61.8642 165.676 -74.7055 73.613L-73.8818 73.9098C-70.2418 99.9678 -65.4568 126.027 -59.6728 150.655C-46.3742 207.178 -30.1383 245.815 -18.0354 250.176C-17.7171 250.318 -17.3889 250.437 -17.0532 250.53C-12.9722 251.374 -9.41023 248.145 -6.43333 240.928C-1.37544 228.73 8.14104 223.331 21.1107 225.337C40.4537 228.333 65.552 247.691 86.6346 275.809C110.249 307.382 124.886 343.849 127.817 378.479C130.613 411.449 122.827 441.053 104.674 466.492C83.4793 496.153 48.5022 519.307 0.685165 535.327C-44.0919 550.312 -73.3253 572.528 -92.0909 597.334L-93.0414 596.991C-72.0811 569.323 -40.732 548.389 0.47448 534.571Z" fill="#ACC3F6"/>
<path d="M-1.86325 538.277C109.676 499.451 127.03 428.941 121.912 376.638C118.537 342.098 103.535 304.407 80.752 273.259C60.1136 245.051 35.8144 225.909 17.3141 223.307C5.38558 221.64 -3.46926 226.99 -8.16701 238.835C-11.2132 246.493 -14.9457 249.947 -19.2942 249.15C-31.5944 246.776 -47.7317 208.461 -61.3635 148.989C-66.9018 124.772 -71.5648 99.1688 -75.1808 73.4418L-74.3411 73.7443C-61.6494 163.193 -37.7372 241.769 -20.2165 248.083C-19.8824 248.231 -19.5383 248.355 -19.1868 248.454C-15.2527 249.209 -11.7903 245.909 -8.91855 238.635C-4.07361 226.432 5.00373 220.912 17.3569 222.642C36.0903 225.292 60.5524 244.528 81.2991 272.883C104.164 304.15 119.198 342.05 122.658 376.656C125.985 410.784 118.683 441.476 101.026 467.774C80.374 498.561 45.8294 522.552 -1.62656 539.06C-43.1737 553.526 -71.1214 574.558 -89.6152 598.262L-90.4865 597.948C-70.0231 571.659 -40.3533 551.659 -1.86325 538.277Z" fill="#8FAEF3"/>
<path d="M-4.15483 542.053C112.477 499.923 121.664 418.95 116.761 374.441C112.902 339.405 97.8767 301.383 75.5741 270.194C55.3484 241.883 31.6265 222.878 13.7947 220.606C2.38319 219.144 -6.0439 224.648 -10.5503 236.508C-13.4811 244.243 -17.0984 247.774 -21.2815 246.965C-38.635 243.863 -62.6613 165.156 -75.7195 73.2477L-74.8799 73.5502C-71.3143 98.7219 -66.8171 123.692 -61.5269 147.157C-48.635 204.412 -33.7173 241.839 -22.2798 245.961C-21.9488 246.116 -21.6041 246.241 -21.2501 246.332C-17.4529 247.02 -14.1057 243.642 -11.3177 236.303C-6.67994 224.079 2.0172 218.421 13.8115 219.914C31.8448 222.222 55.7239 241.338 76.0997 269.828C98.5048 301.18 113.593 339.278 117.475 374.448C121.357 409.618 114.638 441.576 97.473 468.893C77.339 500.924 43.2313 525.788 -3.934 542.831C-42.3995 556.742 -69.0367 576.67 -87.1282 599.158L-87.9361 598.867C-68.0298 574.024 -39.9816 554.999 -4.15483 542.053Z" fill="#B7CBF7"/>
<path d="M-6.39425 545.884C109.537 502.32 117.363 418.17 111.641 371.862C107.282 336.377 92.2454 298.137 70.3903 266.947C50.5012 238.597 27.5682 219.786 10.3732 217.833C-0.526985 216.591 -8.58975 222.227 -12.9104 234.117C-15.726 241.931 -19.2754 245.522 -23.3603 244.838C-23.7228 244.736 -24.0775 244.608 -24.4217 244.455C-35.7166 240.385 -50.365 203.054 -63.0035 145.892C-68.11 122.761 -72.5231 98.0539 -76.1185 73.0147L-75.3581 73.2887C-71.7905 98.1567 -67.4268 122.703 -62.3437 145.7C-49.7792 202.621 -35.3703 239.722 -24.2813 243.718C-23.9415 243.839 -23.5931 243.935 -23.2389 244.004C-19.5627 244.631 -16.2979 241.134 -13.6207 233.754C-9.20036 221.488 -0.835849 215.71 10.4572 217.004C27.8277 218.966 51.0446 237.933 71.0465 266.467C92.958 297.749 108.039 336.113 112.433 371.7C116.956 408.372 110.797 441.356 94.129 469.73C74.5382 503.084 40.8275 528.933 -6.09033 546.53C-41.6124 559.873 -66.8243 578.577 -84.4888 599.931L-85.265 599.651C-67.5821 578.197 -42.1908 559.342 -6.39425 545.884Z" fill="#B2C7F6"/>
<path d="M-8.58892 549.838C106.904 504.809 113.116 417.141 106.541 368.878C101.63 333.087 86.6248 294.661 65.2995 263.59C45.8622 235.278 23.5368 216.668 7.02746 214.998C-3.34551 213.982 -11.1231 219.72 -15.2955 231.646C-18.0718 239.599 -21.4514 243.216 -25.4311 242.587C-36.5643 240.849 -50.9126 204.325 -63.8322 144.912C-68.7721 122.164 -73.0808 97.7633 -76.6224 72.9225L-75.8144 73.2137C-63.0527 161.971 -41.6475 236.081 -26.3389 241.58C-26.0156 241.724 -25.682 241.844 -25.3409 241.939C-21.78 242.488 -18.6533 238.977 -16.0211 231.474C-11.7332 219.178 -3.74315 213.248 7.07023 214.333C23.7926 216.008 46.3327 234.767 65.8884 263.248C87.2701 294.41 102.343 332.896 107.251 368.848C112.437 406.905 106.886 441.182 90.7335 470.708C71.7092 505.52 38.3725 532.417 -8.34656 550.606C-41.0418 563.355 -64.8672 580.894 -82.0126 601.056L-82.6463 600.827C-64.0658 578.819 -39.3483 561.834 -8.58892 549.838Z" fill="#A6BFF5"/>
</g>
</g>
<defs>
<clipPath id="clip0_211_756">
<rect width="797.345" height="498.549" fill="white" transform="matrix(-0.940779 -0.339021 -0.339021 0.940779 471.144 270.316)"/>
</clipPath>
</defs>
</svg>
